<svg width="36" height="36" viewBox="0 0 36 36" fill="none" xmlns="http://www.w3.org/2000/svg">
<rect width="4" height="4" rx="1" fill="#3AE8B0"/>
<rect x="8" width="4" height="4" rx="1" fill="#3AE8B0"/>
<rect x="16" width="4" height="4" rx="1" fill="#3AE8B0"/>
<rect x="24" width="4" height="4" rx="1" fill="#3AE8B0"/>
<rect x="32" width="4" height="4" rx="1" fill="#3AE8B0"/>
<rect y="8" width="4" height="4" rx="1" fill="#3AE8B0"/>
<rect x="8" y="8" width="4" height="4" rx="1" fill="#3AE8B0"/>
<rect x="16" y="8" width="4" height="4" rx="1" fill="#3AE8B0"/>
<rect x="24" y="8" width="4" height="4" rx="1" fill="#3AE8B0"/>
<rect x="32" y="8" width="4" height="4" rx="1" fill="#3AE8B0"/>
<rect y="16" width="4" height="4" rx="1" fill="#3AE8B0"/>
<rect x="8" y="16" width="4" height="4" rx="1" fill="#3AE8B0"/>
<rect x="16" y="16" width="4" height="4" rx="1" fill="#3AE8B0"/>
<rect x="24" y="16" width="4" height="4" rx="1" fill="#3AE8B0"/>
<rect x="32" y="16" width="4" height="4" rx="1" fill="#3AE8B0"/>
<rect y="24" width="4" height="4" rx="1" fill="#3AE8B0"/>
<rect x="8" y="24" width="4" height="4" rx="1" fill="#3AE8B0"/>
<rect x="16" y="24" width="4" height="4" rx="1" fill="#3AE8B0"/>
<rect x="24" y="24" width="4" height="4" rx="1" fill="#3AE8B0"/>
<rect x="32" y="24" width="4" height="4" rx="1" fill="#3AE8B0"/>
<rect y="32" width="4" height="4" rx="1" fill="#3AE8B0"/>
<rect x="8" y="32" width="4" height="4" rx="1" fill="#3AE8B0"/>
<rect x="16" y="32" width="4" height="4" rx="1" fill="#3AE8B0"/>
<rect x="24" y="32" width="4" height="4" rx="1" fill="#3AE8B0"/>
<rect x="32" y="32" width="4" height="4" rx="1" fill="#3AE8B0"/>
</svg>
