<svg width="418" height="415" viewBox="0 0 418 415" fill="none" xmlns="http://www.w3.org/2000/svg">
<path d="M60.5763 224.788C60.5763 230.746 55.9581 230 50 230C44.0419 230 39 230.746 39 224.788C39 218.83 43.83 214 49.7881 214C55.7463 214 60.5763 218.83 60.5763 224.788Z" fill="black"/>
<rect x="83" y="255" width="250" height="80" rx="6" fill="black"/>
<path d="M35 241C35 237.686 37.6863 235 41 235H59C62.3137 235 65 237.686 65 241V349C65 352.314 62.3137 355 59 355H41C37.6863 355 35 352.314 35 349V241Z" fill="black"/>
<path d="M351 241C351 237.686 353.686 235 357 235H375C378.314 235 381 237.686 381 241V349C381 352.314 378.314 355 375 355H357C353.686 355 351 352.314 351 349V241Z" fill="black"/>
<rect x="181" y="330" width="55" height="11" rx="4" fill="black"/>
<rect x="198" y="341" width="20" height="8" fill="black"/>
<circle cx="208" cy="366" r="17.5" stroke="black" stroke-width="5"/>
<circle cx="208" cy="366" r="5.5" fill="#3ae8b0" stroke="black"/>
<circle cx="208" cy="366" r="10" stroke="black" stroke-width="2"/>
<circle cx="104" cy="276" r="5" fill="#3ae8b0"/>
<rect x="184" y="288" width="4" height="24" rx="2" fill="white"/>
<rect x="198" y="288" width="4" height="24" rx="2" fill="white"/>
<rect x="212" y="288" width="4" height="24" rx="2" fill="white"/>
<rect x="226" y="288" width="4" height="24" rx="2" fill="white"/>
<rect x="168" y="248" width="80" height="8" rx="2" fill="black"/>
<circle cx="208" cy="252" r="20" fill="black"/>
<rect x="46" y="230" width="8" height="5" fill="black"/>
<path d="M376.576 224.788C376.576 230.746 371.958 230 366 230C360.042 230 355 230.746 355 224.788C355 218.83 359.83 214 365.788 214C371.746 214 376.576 218.83 376.576 224.788Z" fill="black"/>
<rect x="362" y="230" width="8" height="5" fill="black"/>
<rect x="200" y="242" width="16" height="3" rx="1" fill="#3ae8b0"/>
<rect x="65" y="289" width="18" height="12" fill="black"/>
<rect x="333" y="289" width="18" height="12" fill="black"/>
<path d="M146.315 324.6L156.716 331.883L122.301 381.032L112 374L146.315 324.6Z" fill="black"/>
<rect x="112" y="374" width="12" height="40" fill="black"/>
<path d="M270.401 325L260 332.283L294.415 381.432L304.716 374.4L270.401 325Z" fill="black"/>
<rect width="12" height="40" transform="matrix(-1 0 0 1 304.716 374.4)" fill="black"/>
<path d="M100 222.057C100 232.357 77.6142 223.363 50 223.363C22.3858 223.363 0 232.357 0 222.057C0 211.758 22.3858 220.379 50 220.379C77.6142 220.379 100 211.758 100 222.057Z" fill="black"/>
<path d="M416 222.057C416 232.357 393.614 223.363 366 223.363C338.386 223.363 316 232.357 316 222.057C316 211.758 338.386 220.379 366 220.379C393.614 220.379 416 211.758 416 222.057Z" fill="black"/>
<rect x="39" y="240" width="2" height="12" rx="1" fill="white"/>
<rect x="43" y="240" width="2" height="12" rx="1" fill="white"/>
<rect x="55" y="240" width="2" height="12" rx="1" fill="white"/>
<rect x="59" y="240" width="2" height="12" rx="1" fill="white"/>
<rect x="55" y="254" width="2" height="12" rx="1" fill="white"/>
<rect x="59" y="254" width="2" height="12" rx="1" fill="white"/>
<rect x="39" y="254" width="2" height="12" rx="1" fill="white"/>
<rect x="43" y="254" width="2" height="12" rx="1" fill="white"/>
<rect x="355" y="240" width="2" height="12" rx="1" fill="white"/>
<rect x="359" y="240" width="2" height="12" rx="1" fill="white"/>
<rect x="371" y="240" width="2" height="12" rx="1" fill="white"/>
<rect x="375" y="240" width="2" height="12" rx="1" fill="white"/>
<rect x="371" y="254" width="2" height="12" rx="1" fill="white"/>
<rect x="375" y="254" width="2" height="12" rx="1" fill="white"/>
<rect x="355" y="254" width="2" height="12" rx="1" fill="white"/>
<rect x="359" y="254" width="2" height="12" rx="1" fill="white"/>
<path d="M232.261 124.496C234.286 126.521 232.463 127.837 230.437 129.863C228.412 131.888 226.951 133.856 224.926 131.831C222.9 129.805 222.9 126.521 224.926 124.496C226.951 122.47 230.235 122.47 232.261 124.496Z" fill="black"/>
<rect x="250.154" y="127.143" width="120.192" height="38.4615" rx="6" transform="rotate(-45 250.154 127.143)" fill="black"/>
<path d="M231.28 140.905C228.937 138.561 228.937 134.762 231.28 132.419L232.993 130.706C235.337 128.363 239.136 128.363 241.479 130.706L273.788 163.015C276.131 165.358 276.131 169.157 273.788 171.501L272.075 173.214C269.732 175.557 265.933 175.557 263.589 173.214L231.28 140.905Z" fill="black"/>
<path d="M338.706 33.4789C336.363 31.1357 336.363 27.3367 338.706 24.9936L340.419 23.2802C342.762 20.937 346.561 20.937 348.905 23.2802L381.214 55.5895C383.557 57.9327 383.557 61.7317 381.214 64.0748L379.501 65.7882C377.157 68.1313 373.358 68.1313 371.015 65.7882L338.706 33.4789Z" fill="black"/>
<rect x="308.967" y="119.324" width="26.4423" height="5.28846" rx="2.64423" transform="rotate(-45 308.967 119.324)" fill="black"/>
<rect x="318.485" y="117.285" width="9.61539" height="3.84615" transform="rotate(-45 318.485 117.285)" fill="black"/>
<circle cx="330.384" cy="122.384" r="7.11539" transform="rotate(-45 330.384 122.384)" stroke="black" stroke-width="5"/>
<circle cx="330.384" cy="122.384" r="2.90385" transform="rotate(-45 330.384 122.384)" fill="#3ae8b0" stroke="black"/>
<circle cx="330.384" cy="122.384" r="4.28846" transform="rotate(-45 330.384 122.384)" stroke="black" stroke-width="2"/>
<circle cx="264.433" cy="127.143" r="2.40385" transform="rotate(-45 264.433 127.143)" fill="#3ae8b0"/>
<rect x="295.708" y="104.026" width="1.92308" height="11.5385" rx="0.961538" transform="rotate(-45 295.708 104.026)" fill="white"/>
<rect x="300.468" y="99.267" width="1.92308" height="11.5385" rx="0.961538" transform="rotate(-45 300.468 99.267)" fill="white"/>
<rect x="305.227" y="94.5076" width="1.92308" height="11.5385" rx="0.961538" transform="rotate(-45 305.227 94.5076)" fill="white"/>
<rect x="309.987" y="89.7482" width="1.92308" height="11.5385" rx="0.961538" transform="rotate(-45 309.987 89.7482)" fill="white"/>
<rect x="276.671" y="95.8674" width="38.4615" height="3.84615" rx="1.92308" transform="rotate(-45 276.671 95.8674)" fill="black"/>
<circle cx="291.629" cy="83.629" r="9.61539" transform="rotate(-45 291.629 83.629)" fill="black"/>
<rect x="229.077" y="131.223" width="3.84615" height="2.40385" transform="rotate(-45 229.077 131.223)" fill="black"/>
<path d="M339.687 17.0698C341.712 19.0953 339.888 20.4116 337.863 22.4371C335.837 24.4626 334.377 26.4303 332.352 24.4048C330.326 22.3793 330.326 19.0953 332.352 17.0698C334.377 15.0443 337.661 15.0443 339.687 17.0698Z" fill="black"/>
<rect x="336.503" y="23.7969" width="3.84615" height="2.40385" transform="rotate(-45 336.503 23.7969)" fill="black"/>
<rect x="285.51" y="82.9491" width="7.69231" height="1.44231" rx="0.721154" transform="rotate(-45 285.51 82.9491)" fill="#3ae8b0"/>
<rect x="255.594" y="144.821" width="8.65385" height="5.76923" transform="rotate(-45 255.594 144.821)" fill="black"/>
<rect x="346.702" y="53.7129" width="8.65385" height="5.76923" transform="rotate(-45 346.702 53.7129)" fill="black"/>
<path d="M295.339 129.28L301.351 128.22L306.36 156.628L300.468 157.739L295.339 129.28Z" fill="black"/>
<rect x="300.468" y="157.739" width="5.76923" height="19.2308" transform="rotate(-45 300.468 157.739)" fill="black"/>
<path d="M337.659 87.2321L336.599 93.2439L365.007 98.253L366.119 92.3604L337.659 87.2321Z" fill="black"/>
<rect width="5.76923" height="19.2308" transform="matrix(-0.707107 0.707107 0.707107 0.707107 366.119 92.3605)" fill="black"/>
<path d="M244.735 110.165C248.236 113.667 237.568 118.219 228.181 127.607C218.793 136.994 214.241 147.662 210.739 144.161C207.238 140.659 217.779 135.98 227.166 126.592C236.554 117.205 241.233 106.664 244.735 110.165Z" fill="black"/>
<path d="M352.161 2.73917C355.662 6.24068 344.994 10.7931 335.607 20.1807C326.219 29.5683 321.666 40.2362 318.165 36.7347C314.663 33.2332 325.205 28.5539 334.592 19.1663C343.98 9.77871 348.659 -0.762343 352.161 2.73917Z" fill="black"/>
<rect x="230.097" y="137.002" width="0.961538" height="5.76923" rx="0.480769" transform="rotate(-45 230.097 137.002)" fill="white"/>
<rect x="231.457" y="135.642" width="0.961538" height="5.76923" rx="0.480769" transform="rotate(-45 231.457 135.642)" fill="white"/>
<rect x="235.536" y="131.563" width="0.961538" height="5.76923" rx="0.480769" transform="rotate(-45 235.536 131.563)" fill="white"/>
<rect x="236.896" y="130.203" width="0.961538" height="5.76923" rx="0.480769" transform="rotate(-45 236.896 130.203)" fill="white"/>
<rect x="240.296" y="136.322" width="0.961538" height="5.76923" rx="0.480769" transform="rotate(-45 240.296 136.322)" fill="white"/>
<rect x="241.656" y="134.962" width="0.961538" height="5.76923" rx="0.480769" transform="rotate(-45 241.656 134.962)" fill="white"/>
<rect x="234.856" y="141.761" width="0.961538" height="5.76923" rx="0.480769" transform="rotate(-45 234.856 141.761)" fill="white"/>
<rect x="236.216" y="140.401" width="0.961538" height="5.76923" rx="0.480769" transform="rotate(-45 236.216 140.401)" fill="white"/>
<rect x="337.523" y="29.576" width="0.961538" height="5.76923" rx="0.480769" transform="rotate(-45 337.523 29.576)" fill="white"/>
<rect x="338.883" y="28.2163" width="0.961538" height="5.76923" rx="0.480769" transform="rotate(-45 338.883 28.2163)" fill="white"/>
<rect x="342.962" y="24.1368" width="0.961538" height="5.76923" rx="0.480769" transform="rotate(-45 342.962 24.1368)" fill="white"/>
<rect x="344.322" y="22.777" width="0.961538" height="5.76923" rx="0.480769" transform="rotate(-45 344.322 22.777)" fill="white"/>
<rect x="347.722" y="28.8962" width="0.961538" height="5.76923" rx="0.480769" transform="rotate(-45 347.722 28.8962)" fill="white"/>
<rect x="349.081" y="27.5364" width="0.961538" height="5.76923" rx="0.480769" transform="rotate(-45 349.081 27.5364)" fill="white"/>
<rect x="342.282" y="34.3354" width="0.961538" height="5.76923" rx="0.480769" transform="rotate(-45 342.282 34.3354)" fill="white"/>
<rect x="343.642" y="32.9757" width="0.961538" height="5.76923" rx="0.480769" transform="rotate(-45 343.642 32.9757)" fill="white"/>
<path d="M66.4602 47.5043C65.8549 48.8024 64.9246 48.1706 63.6265 47.5653C62.3284 46.96 61.1542 46.6104 61.7595 45.3124C62.3648 44.0143 63.9077 43.4527 65.2058 44.058C66.5038 44.6633 67.0654 46.2063 66.4602 47.5043Z" fill="black"/>
<rect x="68.2761" y="56.3644" width="60.0961" height="19.2308" rx="6" transform="rotate(25 68.2761 56.3644)" fill="black"/>
<path d="M58.3267 50.3987C59.1683 48.5938 61.3137 47.813 63.1185 48.6546V48.6546C64.9234 49.4962 65.7042 51.6416 64.8626 53.4464L55.7194 73.054C54.8778 74.8589 52.7324 75.6397 50.9276 74.7981V74.7981C49.1228 73.9565 48.3419 71.8111 49.1835 70.0063L58.3267 50.3987Z" fill="black"/>
<path d="M127.171 82.5015C128.013 80.6966 130.158 79.9158 131.963 80.7574V80.7574C133.768 81.599 134.549 83.7444 133.707 85.5492L124.564 105.157C123.722 106.962 121.577 107.742 119.772 106.901V106.901C117.967 106.059 117.187 103.914 118.028 102.109L127.171 82.5015Z" fill="black"/>
<rect x="82.0074" y="82.66" width="13.2212" height="2.64423" rx="1.32212" transform="rotate(25 82.0074 82.66)" fill="black"/>
<rect x="84.5936" y="86.7836" width="4.80769" height="1.92308" transform="rotate(25 84.5936 86.7836)" fill="black"/>
<circle cx="84.2324" cy="93.246" r="2.5" transform="rotate(25 84.2324 93.246)" stroke="black" stroke-width="4.61539"/>
<circle cx="84.2325" cy="93.2461" r="1.70192" transform="rotate(25 84.2325 93.2461)" fill="#3ae8b0" stroke="black"/>
<circle cx="84.2325" cy="93.2459" r="1.64423" transform="rotate(25 84.2325 93.2459)" stroke="black" stroke-width="2"/>
<circle cx="70.7178" cy="63.073" r="1.20192" transform="rotate(25 70.7178 63.073)" fill="#3ae8b0"/>
<rect x="86.9279" y="73.8146" width="0.961538" height="5.76923" rx="0.480769" transform="rotate(25 86.9279 73.8146)" fill="white"/>
<rect x="89.9779" y="75.2368" width="0.961538" height="5.76923" rx="0.480769" transform="rotate(25 89.9779 75.2368)" fill="white"/>
<rect x="93.028" y="76.6591" width="0.961538" height="5.76923" rx="0.480769" transform="rotate(25 93.028 76.6591)" fill="white"/>
<rect x="96.0781" y="78.0814" width="0.961538" height="5.76923" rx="0.480769" transform="rotate(25 96.0781 78.0814)" fill="white"/>
<rect x="87.5056" y="63.4746" width="19.2308" height="1.92308" rx="0.961538" transform="rotate(25 87.5056 63.4746)" fill="black"/>
<circle cx="95.8138" cy="68.4097" r="4.80769" transform="rotate(25 95.8138 68.4097)" fill="black"/>
<rect x="62.7551" y="47.1589" width="1.92308" height="1.20192" transform="rotate(25 62.7551 47.1589)" fill="black"/>
<path d="M135.305 79.6071C134.699 80.9052 133.769 80.2734 132.471 79.6681C131.173 79.0628 129.999 78.7132 130.604 77.4151C131.209 76.1171 132.752 75.5555 134.05 76.1608C135.348 76.7661 135.91 78.3091 135.305 79.6071Z" fill="black"/>
<rect x="131.6" y="79.2617" width="1.92308" height="1.20192" transform="rotate(25 131.6 79.2617)" fill="black"/>
<rect x="95.0868" y="65.4183" width="3.84615" height="0.721154" rx="0.360577" transform="rotate(25 95.0868 65.4183)" fill="#3ae8b0"/>
<rect x="60.9006" y="61.9431" width="4.32692" height="2.88462" transform="rotate(25 60.9006 61.9431)" fill="black"/>
<rect x="119.288" y="89.1694" width="4.32692" height="2.88462" transform="rotate(25 119.288 89.1694)" fill="black"/>
<path d="M74.9994 77.9598L76.5255 80.6032L64.0348 87.8148L62.5049 85.2362L74.9994 77.9598Z" fill="black"/>
<rect x="62.5049" y="85.2362" width="2.88462" height="9.61539" transform="rotate(25 62.5049 85.2362)" fill="black"/>
<path d="M101.993 90.6531L98.9866 91.1831L101.491 105.387L104.45 104.902L101.993 90.6531Z" fill="black"/>
<rect width="2.88462" height="9.61539" transform="matrix(-0.906308 -0.422618 -0.422618 0.906308 104.45 104.902)" fill="black"/>
<path d="M75.3267 50.9145C74.2803 53.1585 70.317 48.9247 64.3009 46.1193C58.2848 43.314 52.494 42.9994 53.5404 40.7554C54.5868 38.5114 58.5879 42.6639 64.6041 45.4693C70.6202 48.2746 76.373 48.6705 75.3267 50.9145Z" fill="black"/>
<path d="M144.171 83.0173C143.125 85.2612 139.161 81.0275 133.145 78.2221C127.129 75.4168 121.339 75.1021 122.385 72.8582C123.431 70.6142 127.432 74.7667 133.449 77.572C139.465 80.3774 145.218 80.7733 144.171 83.0173Z" fill="black"/>
<rect x="60.2141" y="48.6265" width="0.480769" height="2.88462" rx="0.240385" transform="rotate(25 60.2141 48.6265)" fill="white"/>
<rect x="61.0857" y="49.0328" width="0.480769" height="2.88462" rx="0.240385" transform="rotate(25 61.0857 49.0328)" fill="white"/>
<rect x="63.7" y="50.252" width="0.480769" height="2.88462" rx="0.240385" transform="rotate(25 63.7 50.252)" fill="white"/>
<rect x="64.5713" y="50.6583" width="0.480769" height="2.88462" rx="0.240385" transform="rotate(25 64.5713 50.6583)" fill="white"/>
<rect x="62.2776" y="53.302" width="0.480769" height="2.88462" rx="0.240385" transform="rotate(25 62.2776 53.302)" fill="white"/>
<rect x="63.1492" y="53.7084" width="0.480769" height="2.88462" rx="0.240385" transform="rotate(25 63.1492 53.7084)" fill="white"/>
<rect x="58.792" y="51.6765" width="0.480769" height="2.88462" rx="0.240385" transform="rotate(25 58.792 51.6765)" fill="white"/>
<rect x="59.6633" y="52.0829" width="0.480769" height="2.88462" rx="0.240385" transform="rotate(25 59.6633 52.0829)" fill="white"/>
<rect x="129.059" y="80.7292" width="0.480769" height="2.88462" rx="0.240385" transform="rotate(25 129.059 80.7292)" fill="white"/>
<rect x="129.93" y="81.1355" width="0.480769" height="2.88462" rx="0.240385" transform="rotate(25 129.93 81.1355)" fill="white"/>
<rect x="132.545" y="82.3547" width="0.480769" height="2.88462" rx="0.240385" transform="rotate(25 132.545 82.3547)" fill="white"/>
<rect x="133.416" y="82.761" width="0.480769" height="2.88462" rx="0.240385" transform="rotate(25 133.416 82.761)" fill="white"/>
<rect x="131.122" y="85.4047" width="0.480769" height="2.88462" rx="0.240385" transform="rotate(25 131.122 85.4047)" fill="white"/>
<rect x="131.994" y="85.8112" width="0.480769" height="2.88462" rx="0.240385" transform="rotate(25 131.994 85.8112)" fill="white"/>
<rect x="127.636" y="83.7792" width="0.480769" height="2.88462" rx="0.240385" transform="rotate(25 127.636 83.7792)" fill="white"/>
<rect x="128.508" y="84.1857" width="0.480769" height="2.88462" rx="0.240385" transform="rotate(25 128.508 84.1857)" fill="white"/>
</svg>
