<svg width="416" height="201" viewBox="0 0 416 201" fill="none" xmlns="http://www.w3.org/2000/svg">
<path d="M89 41.5H327C330.038 41.5 332.5 43.9624 332.5 47V115C332.5 118.038 330.038 120.5 327 120.5H89C85.9624 120.5 83.5 118.038 83.5 115V47C83.5 43.9624 85.9624 41.5 89 41.5Z" fill="black" stroke="white"/>
<path d="M99.5 8.05689C99.5 9.24888 99.1789 10.1066 98.6126 10.7357C98.0381 11.3738 97.1624 11.831 95.9544 12.12C93.5192 12.7025 89.9398 12.5565 85.4081 12.0752C83.0968 11.8297 80.5507 11.4985 77.8085 11.1418C69.87 10.1092 60.2881 8.86289 50 8.86289C39.7119 8.86289 30.13 10.1092 22.1916 11.1418C19.4493 11.4985 16.9032 11.8297 14.5919 12.0752C10.0601 12.5565 6.48078 12.7025 4.04558 12.12C2.83756 11.831 1.96191 11.3738 1.38742 10.7357C0.82105 10.1066 0.5 9.24888 0.5 8.05689C0.5 6.86525 0.821002 6.00015 1.38966 5.35988C1.96616 4.71079 2.84383 4.24015 4.05188 3.93454C6.48703 3.31849 10.0663 3.41891 14.5969 3.85347C17.0409 4.08789 19.7479 4.41811 22.6719 4.77481C30.5151 5.73159 39.92 6.87888 50 6.87888C60.08 6.87888 69.4849 5.73158 77.3281 4.77481C80.2521 4.41811 82.9591 4.08789 85.4031 3.85347C89.9337 3.41891 93.513 3.31849 95.9481 3.93454C97.1562 4.24015 98.0338 4.71079 98.6103 5.35988C99.179 6.00015 99.5 6.86525 99.5 8.05689Z" fill="white" stroke="white"/>
<path d="M60.0763 10.788C60.0763 12.218 59.7986 13.1772 59.3491 13.8333C58.9052 14.4813 58.2535 14.8922 57.3814 15.1485C56.4983 15.4081 55.4174 15.5006 54.157 15.5236C53.4142 15.5371 52.6379 15.5267 51.8179 15.5158C51.2353 15.5081 50.6306 15.5 50 15.5C49.3736 15.5 48.7681 15.508 48.1807 15.5157C47.345 15.5266 46.5461 15.5371 45.7765 15.5235C44.4765 15.5006 43.3394 15.4081 42.3998 15.1466C41.4682 14.8872 40.7634 14.4708 40.2834 13.8193C39.8009 13.1644 39.5 12.2101 39.5 10.788C39.5 5.10614 44.1061 0.5 49.7881 0.5C55.4702 0.5 60.0763 5.10614 60.0763 10.788Z" fill="black" stroke="white"/>
<path d="M35.5 27C35.5 23.9622 37.9624 21.5 41 21.5H59C62.0376 21.5 64.5 23.9622 64.5 27V135C64.5 138.038 62.0376 140.5 59 140.5H41C37.9624 140.5 35.5 138.038 35.5 135V27Z" fill="black" stroke="white"/>
<path d="M351.5 27C351.5 23.9621 353.962 21.5 357 21.5H375C378.038 21.5 380.5 23.9621 380.5 27V135C380.5 138.038 378.038 140.5 375 140.5H357C353.962 140.5 351.5 138.038 351.5 135V27Z" fill="black" stroke="white"/>
<path d="M213 127H203V134H213V127Z" fill="white"/>
<path d="M208 167C217.389 167 225 159.389 225 150C225 140.611 217.389 133 208 133C198.611 133 191 140.611 191 150C191 159.389 198.611 167 208 167Z" fill="black" stroke="white" stroke-width="2"/>
<path d="M208 155.5C211.038 155.5 213.5 153.038 213.5 150C213.5 146.962 211.038 144.5 208 144.5C204.962 144.5 202.5 146.962 202.5 150C202.5 153.038 204.962 155.5 208 155.5Z" fill="#6FCCFF"/>
<path d="M208 160C213.523 160 218 155.523 218 150C218 144.477 213.523 140 208 140C202.477 140 198 144.477 198 150C198 155.523 202.477 160 208 160Z" stroke="white"/>
<path d="M104 67C106.761 67 109 64.7614 109 62C109 59.2386 106.761 57 104 57C101.239 57 99 59.2386 99 62C99 64.7614 101.239 67 104 67Z" fill="#6FCCFF"/>
<path d="M189 76C189 74.8954 188.105 74 187 74C185.895 74 185 74.8954 185 76V96C185 97.1046 185.895 98 187 98C188.105 98 189 97.1046 189 96V76Z" fill="white"/>
<path d="M203 76C203 74.8954 202.105 74 201 74C199.895 74 199 74.8954 199 76V96C199 97.1046 199.895 98 201 98C202.105 98 203 97.1046 203 96V76Z" fill="white"/>
<path d="M217 76C217 74.8954 216.105 74 215 74C213.895 74 213 74.8954 213 76V96C213 97.1046 213.895 98 215 98C216.105 98 217 97.1046 217 96V76Z" fill="white"/>
<path d="M231 76C231 74.8954 230.105 74 229 74C227.895 74 227 74.8954 227 76V96C227 97.1046 227.895 98 229 98C230.105 98 231 97.1046 231 96V76Z" fill="white"/>
<path d="M227.5 38C227.5 39.3576 227.361 40.2909 227.126 40.9076C226.898 41.507 226.599 41.7657 226.273 41.8721C225.914 41.9891 225.417 41.9579 224.734 41.7441C224.059 41.5328 223.273 41.1661 222.373 40.6985C221.845 40.4243 221.279 40.1157 220.682 39.7896C219.27 39.0195 217.68 38.1516 215.986 37.408C213.561 36.3434 210.858 35.5 208 35.5C205.142 35.5 202.439 36.3434 200.014 37.408C198.32 38.1516 196.73 39.0195 195.318 39.7896C194.721 40.1157 194.155 40.4243 193.627 40.6985C192.727 41.1661 191.941 41.5328 191.266 41.7441C190.583 41.9579 190.086 41.9891 189.727 41.8721C189.401 41.7657 189.102 41.507 188.874 40.9076C188.639 40.2909 188.5 39.3576 188.5 38C188.5 27.2304 197.23 18.5 208 18.5C218.77 18.5 227.5 27.2304 227.5 38Z" fill="black" stroke="white"/>
<path d="M46.5 15.5H53.5V21.5H46.5V15.5Z" fill="black" stroke="white"/>
<path d="M415.5 8.05689C415.5 9.24888 415.179 10.1066 414.613 10.7357C414.038 11.3738 413.162 11.831 411.954 12.12C409.519 12.7025 405.94 12.5565 401.408 12.0752C399.097 11.8297 396.551 11.4985 393.808 11.1418C385.87 10.1092 376.288 8.86289 366 8.86289C355.712 8.86289 346.13 10.1092 338.192 11.1418C335.449 11.4985 332.903 11.8297 330.592 12.0752C326.06 12.5565 322.481 12.7025 320.046 12.12C318.838 11.831 317.962 11.3738 317.387 10.7357C316.821 10.1066 316.5 9.24888 316.5 8.05689C316.5 6.86525 316.821 6.00015 317.39 5.35988C317.966 4.71079 318.844 4.24015 320.052 3.93454C322.487 3.31849 326.066 3.41891 330.597 3.85347C333.041 4.08789 335.748 4.41811 338.672 4.77482C346.515 5.73159 355.92 6.87888 366 6.87888C376.08 6.87888 385.485 5.73159 393.328 4.77482C396.252 4.41811 398.959 4.08789 401.403 3.85347C405.934 3.41891 409.513 3.31849 411.948 3.93454C413.156 4.24015 414.034 4.71079 414.61 5.35988C415.179 6.00015 415.5 6.86525 415.5 8.05689Z" fill="white" stroke="white"/>
<path d="M376.076 10.788C376.076 12.218 375.798 13.1773 375.349 13.8333C374.905 14.4813 374.253 14.8922 373.381 15.1485C372.498 15.4081 371.417 15.5006 370.157 15.5236C369.414 15.5371 368.638 15.5267 367.818 15.5158C367.235 15.5081 366.631 15.5 366 15.5C365.374 15.5 364.768 15.508 364.181 15.5157C363.345 15.5266 362.546 15.5371 361.777 15.5235C360.477 15.5006 359.339 15.4081 358.4 15.1466C357.468 14.8872 356.763 14.4708 356.283 13.8193C355.801 13.1644 355.5 12.2101 355.5 10.788C355.5 5.10614 360.106 0.5 365.788 0.5C371.47 0.5 376.076 5.10614 376.076 10.788Z" fill="black" stroke="white"/>
<path d="M362.5 15.5H369.5V21.5H362.5V15.5Z" fill="black" stroke="white"/>
<path d="M215.875 27H200.125C199.504 27 199 27.597 199 28.3333V29.6667C199 30.403 199.504 31 200.125 31H215.875C216.496 31 217 30.403 217 29.6667V28.3333C217 27.597 216.496 27 215.875 27Z" fill="#6FCCFF"/>
<path d="M64.5 75.5H83.5V86.5H64.5V75.5Z" fill="black" stroke="white"/>
<path d="M332.5 75.5H351.5V86.5H332.5V75.5Z" fill="black" stroke="white"/>
<path d="M141.271 120.5H154.577L124.081 167.227L124 167.351V167.5V200.5H110.5V167.649L141.271 120.5Z" fill="black" stroke="white"/>
<path d="M274.369 120.5H261.063L291.558 167.227L291.64 167.351V167.5V200.5H305.14V167.649L274.369 120.5Z" fill="black" stroke="white"/>
<path d="M41 27C41 26.4477 40.5523 26 40 26C39.4477 26 39 26.4477 39 27V37C39 37.5523 39.4477 38 40 38C40.5523 38 41 37.5523 41 37V27Z" fill="white"/>
<path d="M45 27C45 26.4477 44.5523 26 44 26C43.4477 26 43 26.4477 43 27V37C43 37.5523 43.4477 38 44 38C44.5523 38 45 37.5523 45 37V27Z" fill="white"/>
<path d="M57 27C57 26.4477 56.5523 26 56 26C55.4477 26 55 26.4477 55 27V37C55 37.5523 55.4477 38 56 38C56.5523 38 57 37.5523 57 37V27Z" fill="white"/>
<path d="M61 27C61 26.4477 60.5523 26 60 26C59.4477 26 59 26.4477 59 27V37C59 37.5523 59.4477 38 60 38C60.5523 38 61 37.5523 61 37V27Z" fill="white"/>
<path d="M57 41C57 40.4477 56.5523 40 56 40C55.4477 40 55 40.4477 55 41V51C55 51.5523 55.4477 52 56 52C56.5523 52 57 51.5523 57 51V41Z" fill="white"/>
<path d="M61 41C61 40.4477 60.5523 40 60 40C59.4477 40 59 40.4477 59 41V51C59 51.5523 59.4477 52 60 52C60.5523 52 61 51.5523 61 51V41Z" fill="white"/>
<path d="M41 41C41 40.4477 40.5523 40 40 40C39.4477 40 39 40.4477 39 41V51C39 51.5523 39.4477 52 40 52C40.5523 52 41 51.5523 41 51V41Z" fill="white"/>
<path d="M45 41C45 40.4477 44.5523 40 44 40C43.4477 40 43 40.4477 43 41V51C43 51.5523 43.4477 52 44 52C44.5523 52 45 51.5523 45 51V41Z" fill="white"/>
<path d="M357 27C357 26.4477 356.552 26 356 26C355.448 26 355 26.4477 355 27V37C355 37.5523 355.448 38 356 38C356.552 38 357 37.5523 357 37V27Z" fill="white"/>
<path d="M361 27C361 26.4477 360.552 26 360 26C359.448 26 359 26.4477 359 27V37C359 37.5523 359.448 38 360 38C360.552 38 361 37.5523 361 37V27Z" fill="white"/>
<path d="M373 27C373 26.4477 372.552 26 372 26C371.448 26 371 26.4477 371 27V37C371 37.5523 371.448 38 372 38C372.552 38 373 37.5523 373 37V27Z" fill="white"/>
<path d="M377 27C377 26.4477 376.552 26 376 26C375.448 26 375 26.4477 375 27V37C375 37.5523 375.448 38 376 38C376.552 38 377 37.5523 377 37V27Z" fill="white"/>
<path d="M373 41C373 40.4477 372.552 40 372 40C371.448 40 371 40.4477 371 41V51C371 51.5523 371.448 52 372 52C372.552 52 373 51.5523 373 51V41Z" fill="white"/>
<path d="M377 41C377 40.4477 376.552 40 376 40C375.448 40 375 40.4477 375 41V51C375 51.5523 375.448 52 376 52C376.552 52 377 51.5523 377 51V41Z" fill="white"/>
<path d="M357 41C357 40.4477 356.552 40 356 40C355.448 40 355 40.4477 355 41V51C355 51.5523 355.448 52 356 52C356.552 52 357 51.5523 357 51V41Z" fill="white"/>
<path d="M361 41C361 40.4477 360.552 40 360 40C359.448 40 359 40.4477 359 41V51C359 51.5523 359.448 52 360 52C360.552 52 361 51.5523 361 51V41Z" fill="white"/>
<path d="M194.5 120.5H221.5V125C221.5 125.828 220.828 126.5 220 126.5H196C195.172 126.5 194.5 125.828 194.5 125V120.5Z" fill="black" stroke="white"/>
<rect x="195.25" y="120.25" width="25.5" height="0.5" fill="black" stroke="black" stroke-width="0.5"/>
<path d="M141.5 119.989H154.135L153.635 120.989L147.5 121.5L141.5 121V119.989Z" fill="black"/>
<path d="M261.258 120H274.094V121H262L261.258 120Z" fill="black"/>
<path d="M186 35.5H230C230.276 35.5 230.5 35.7239 230.5 36V41.5H185.5V36C185.5 35.7239 185.724 35.5 186 35.5Z" fill="black" stroke="white"/>
<rect x="83" y="76" width="1" height="10" fill="black"/>
<rect x="332" y="76" width="1" height="10" fill="black"/>
<rect x="186" y="40" width="44" height="3" fill="black"/>
<path d="M189.5 34H226.57L227.144 37L189 36L189.5 34Z" fill="black"/>
</svg>
