<svg width="326" height="88" viewBox="0 0 326 88" fill="none" xmlns="http://www.w3.org/2000/svg">
<rect y="52" width="4" height="4" rx="1" fill="#3AE8B0"/>
<rect x="8" y="52" width="4" height="4" rx="1" fill="#3AE8B0"/>
<rect x="16" y="52" width="4" height="4" rx="1" fill="#3AE8B0"/>
<rect x="24" y="52" width="4" height="4" rx="1" fill="#3AE8B0"/>
<rect x="32" y="52" width="4" height="4" rx="1" fill="#3AE8B0"/>
<rect y="60" width="4" height="4" rx="1" fill="#3AE8B0"/>
<rect x="8" y="60" width="4" height="4" rx="1" fill="#3AE8B0"/>
<rect x="16" y="60" width="4" height="4" rx="1" fill="#3AE8B0"/>
<rect x="24" y="60" width="4" height="4" rx="1" fill="#3AE8B0"/>
<rect x="32" y="60" width="4" height="4" rx="1" fill="#3AE8B0"/>
<rect y="68" width="4" height="4" rx="1" fill="#3AE8B0"/>
<rect x="8" y="68" width="4" height="4" rx="1" fill="#3AE8B0"/>
<rect x="16" y="68" width="4" height="4" rx="1" fill="#3AE8B0"/>
<rect x="24" y="68" width="4" height="4" rx="1" fill="#3AE8B0"/>
<rect x="32" y="68" width="4" height="4" rx="1" fill="#3AE8B0"/>
<rect y="76" width="4" height="4" rx="1" fill="#3AE8B0"/>
<rect x="8" y="76" width="4" height="4" rx="1" fill="#3AE8B0"/>
<rect x="16" y="76" width="4" height="4" rx="1" fill="#3AE8B0"/>
<rect x="24" y="76" width="4" height="4" rx="1" fill="#3AE8B0"/>
<rect x="32" y="76" width="4" height="4" rx="1" fill="#3AE8B0"/>
<rect y="84" width="4" height="4" rx="1" fill="#3AE8B0"/>
<rect x="8" y="84" width="4" height="4" rx="1" fill="#3AE8B0"/>
<rect x="16" y="84" width="4" height="4" rx="1" fill="#3AE8B0"/>
<rect x="24" y="84" width="4" height="4" rx="1" fill="#3AE8B0"/>
<rect x="32" y="84" width="4" height="4" rx="1" fill="#3AE8B0"/>
<rect x="52" y="52" width="4" height="4" rx="1" fill="#3AE8B0"/>
<rect x="60" y="52" width="4" height="4" rx="1" fill="#3AE8B0"/>
<rect x="68" y="52" width="4" height="4" rx="1" fill="#3AE8B0"/>
<rect x="76" y="52" width="4" height="4" rx="1" fill="#3AE8B0"/>
<rect x="84" y="52" width="4" height="4" rx="1" fill="#3AE8B0"/>
<rect x="52" y="60" width="4" height="4" rx="1" fill="#3AE8B0"/>
<rect x="60" y="60" width="4" height="4" rx="1" fill="#3AE8B0"/>
<rect x="68" y="60" width="4" height="4" rx="1" fill="#3AE8B0"/>
<rect x="76" y="60" width="4" height="4" rx="1" fill="#3AE8B0"/>
<rect x="84" y="60" width="4" height="4" rx="1" fill="#3AE8B0"/>
<rect x="52" y="68" width="4" height="4" rx="1" fill="#3AE8B0"/>
<rect x="60" y="68" width="4" height="4" rx="1" fill="#3AE8B0"/>
<rect x="68" y="68" width="4" height="4" rx="1" fill="#3AE8B0"/>
<rect x="76" y="68" width="4" height="4" rx="1" fill="#3AE8B0"/>
<rect x="84" y="68" width="4" height="4" rx="1" fill="#3AE8B0"/>
<rect x="52" y="76" width="4" height="4" rx="1" fill="#3AE8B0"/>
<rect x="60" y="76" width="4" height="4" rx="1" fill="#3AE8B0"/>
<rect x="68" y="76" width="4" height="4" rx="1" fill="#3AE8B0"/>
<rect x="76" y="76" width="4" height="4" rx="1" fill="#3AE8B0"/>
<rect x="84" y="76" width="4" height="4" rx="1" fill="#3AE8B0"/>
<rect x="52" y="84" width="4" height="4" rx="1" fill="#3AE8B0"/>
<rect x="60" y="84" width="4" height="4" rx="1" fill="#3AE8B0"/>
<rect x="68" y="84" width="4" height="4" rx="1" fill="#3AE8B0"/>
<rect x="76" y="84" width="4" height="4" rx="1" fill="#3AE8B0"/>
<rect x="84" y="84" width="4" height="4" rx="1" fill="#3AE8B0"/>
<rect x="1" width="4" height="4" rx="1" fill="#3AE8B0"/>
<rect x="9" width="4" height="4" rx="1" fill="#3AE8B0"/>
<rect x="17" width="4" height="4" rx="1" fill="#3AE8B0"/>
<rect x="25" width="4" height="4" rx="1" fill="#3AE8B0"/>
<rect x="33" width="4" height="4" rx="1" fill="#3AE8B0"/>
<rect x="1" y="8" width="4" height="4" rx="1" fill="#3AE8B0"/>
<rect x="9" y="8" width="4" height="4" rx="1" fill="#3AE8B0"/>
<rect x="17" y="8" width="4" height="4" rx="1" fill="#3AE8B0"/>
<rect x="25" y="8" width="4" height="4" rx="1" fill="#3AE8B0"/>
<rect x="33" y="8" width="4" height="4" rx="1" fill="#3AE8B0"/>
<rect x="1" y="16" width="4" height="4" rx="1" fill="#3AE8B0"/>
<rect x="9" y="16" width="4" height="4" rx="1" fill="#3AE8B0"/>
<rect x="17" y="16" width="4" height="4" rx="1" fill="#3AE8B0"/>
<rect x="25" y="16" width="4" height="4" rx="1" fill="#3AE8B0"/>
<rect x="33" y="16" width="4" height="4" rx="1" fill="#3AE8B0"/>
<rect x="1" y="24" width="4" height="4" rx="1" fill="#3AE8B0"/>
<rect x="9" y="24" width="4" height="4" rx="1" fill="#3AE8B0"/>
<rect x="17" y="24" width="4" height="4" rx="1" fill="#3AE8B0"/>
<rect x="25" y="24" width="4" height="4" rx="1" fill="#3AE8B0"/>
<rect x="33" y="24" width="4" height="4" rx="1" fill="#3AE8B0"/>
<rect x="1" y="32" width="4" height="4" rx="1" fill="#3AE8B0"/>
<rect x="9" y="32" width="4" height="4" rx="1" fill="#3AE8B0"/>
<rect x="17" y="32" width="4" height="4" rx="1" fill="#3AE8B0"/>
<rect x="25" y="32" width="4" height="4" rx="1" fill="#3AE8B0"/>
<rect x="33" y="32" width="4" height="4" rx="1" fill="#3AE8B0"/>
<rect x="52" width="4" height="4" rx="1" fill="#3AE8B0"/>
<rect x="60" width="4" height="4" rx="1" fill="#3AE8B0"/>
<rect x="68" width="4" height="4" rx="1" fill="#3AE8B0"/>
<rect x="76" width="4" height="4" rx="1" fill="#3AE8B0"/>
<rect x="84" width="4" height="4" rx="1" fill="#3AE8B0"/>
<rect x="52" y="8" width="4" height="4" rx="1" fill="#3AE8B0"/>
<rect x="60" y="8" width="4" height="4" rx="1" fill="#3AE8B0"/>
<rect x="68" y="8" width="4" height="4" rx="1" fill="#3AE8B0"/>
<rect x="76" y="8" width="4" height="4" rx="1" fill="#3AE8B0"/>
<rect x="84" y="8" width="4" height="4" rx="1" fill="#3AE8B0"/>
<rect x="52" y="16" width="4" height="4" rx="1" fill="#3AE8B0"/>
<rect x="60" y="16" width="4" height="4" rx="1" fill="#3AE8B0"/>
<rect x="68" y="16" width="4" height="4" rx="1" fill="#3AE8B0"/>
<rect x="76" y="16" width="4" height="4" rx="1" fill="#3AE8B0"/>
<rect x="84" y="16" width="4" height="4" rx="1" fill="#3AE8B0"/>
<rect x="52" y="24" width="4" height="4" rx="1" fill="#3AE8B0"/>
<rect x="60" y="24" width="4" height="4" rx="1" fill="#3AE8B0"/>
<rect x="68" y="24" width="4" height="4" rx="1" fill="#3AE8B0"/>
<rect x="76" y="24" width="4" height="4" rx="1" fill="#3AE8B0"/>
<rect x="84" y="24" width="4" height="4" rx="1" fill="#3AE8B0"/>
<rect x="52" y="32" width="4" height="4" rx="1" fill="#3AE8B0"/>
<rect x="60" y="32" width="4" height="4" rx="1" fill="#3AE8B0"/>
<rect x="68" y="32" width="4" height="4" rx="1" fill="#3AE8B0"/>
<rect x="76" y="32" width="4" height="4" rx="1" fill="#3AE8B0"/>
<rect x="84" y="32" width="4" height="4" rx="1" fill="#3AE8B0"/>
<rect x="119" y="52" width="4" height="4" rx="1" fill="#3AE8B0"/>
<rect x="127" y="52" width="4" height="4" rx="1" fill="#3AE8B0"/>
<rect x="135" y="52" width="4" height="4" rx="1" fill="#3AE8B0"/>
<rect x="143" y="52" width="4" height="4" rx="1" fill="#3AE8B0"/>
<rect x="151" y="52" width="4" height="4" rx="1" fill="#3AE8B0"/>
<rect x="119" y="60" width="4" height="4" rx="1" fill="#3AE8B0"/>
<rect x="127" y="60" width="4" height="4" rx="1" fill="#3AE8B0"/>
<rect x="135" y="60" width="4" height="4" rx="1" fill="#3AE8B0"/>
<rect x="143" y="60" width="4" height="4" rx="1" fill="#3AE8B0"/>
<rect x="151" y="60" width="4" height="4" rx="1" fill="#3AE8B0"/>
<rect x="119" y="68" width="4" height="4" rx="1" fill="#3AE8B0"/>
<rect x="127" y="68" width="4" height="4" rx="1" fill="#3AE8B0"/>
<rect x="135" y="68" width="4" height="4" rx="1" fill="#3AE8B0"/>
<rect x="143" y="68" width="4" height="4" rx="1" fill="#3AE8B0"/>
<rect x="151" y="68" width="4" height="4" rx="1" fill="#3AE8B0"/>
<rect x="119" y="76" width="4" height="4" rx="1" fill="#3AE8B0"/>
<rect x="127" y="76" width="4" height="4" rx="1" fill="#3AE8B0"/>
<rect x="135" y="76" width="4" height="4" rx="1" fill="#3AE8B0"/>
<rect x="143" y="76" width="4" height="4" rx="1" fill="#3AE8B0"/>
<rect x="151" y="76" width="4" height="4" rx="1" fill="#3AE8B0"/>
<rect x="119" y="84" width="4" height="4" rx="1" fill="#3AE8B0"/>
<rect x="127" y="84" width="4" height="4" rx="1" fill="#3AE8B0"/>
<rect x="135" y="84" width="4" height="4" rx="1" fill="#3AE8B0"/>
<rect x="143" y="84" width="4" height="4" rx="1" fill="#3AE8B0"/>
<rect x="151" y="84" width="4" height="4" rx="1" fill="#3AE8B0"/>
<rect x="171" y="52" width="4" height="4" rx="1" fill="#3AE8B0"/>
<rect x="179" y="52" width="4" height="4" rx="1" fill="#3AE8B0"/>
<rect x="187" y="52" width="4" height="4" rx="1" fill="#3AE8B0"/>
<rect x="195" y="52" width="4" height="4" rx="1" fill="#3AE8B0"/>
<rect x="203" y="52" width="4" height="4" rx="1" fill="#3AE8B0"/>
<rect x="171" y="60" width="4" height="4" rx="1" fill="#3AE8B0"/>
<rect x="179" y="60" width="4" height="4" rx="1" fill="#3AE8B0"/>
<rect x="187" y="60" width="4" height="4" rx="1" fill="#3AE8B0"/>
<rect x="195" y="60" width="4" height="4" rx="1" fill="#3AE8B0"/>
<rect x="203" y="60" width="4" height="4" rx="1" fill="#3AE8B0"/>
<rect x="171" y="68" width="4" height="4" rx="1" fill="#3AE8B0"/>
<rect x="179" y="68" width="4" height="4" rx="1" fill="#3AE8B0"/>
<rect x="187" y="68" width="4" height="4" rx="1" fill="#3AE8B0"/>
<rect x="195" y="68" width="4" height="4" rx="1" fill="#3AE8B0"/>
<rect x="203" y="68" width="4" height="4" rx="1" fill="#3AE8B0"/>
<rect x="171" y="76" width="4" height="4" rx="1" fill="#3AE8B0"/>
<rect x="179" y="76" width="4" height="4" rx="1" fill="#3AE8B0"/>
<rect x="187" y="76" width="4" height="4" rx="1" fill="#3AE8B0"/>
<rect x="195" y="76" width="4" height="4" rx="1" fill="#3AE8B0"/>
<rect x="203" y="76" width="4" height="4" rx="1" fill="#3AE8B0"/>
<rect x="171" y="84" width="4" height="4" rx="1" fill="#3AE8B0"/>
<rect x="179" y="84" width="4" height="4" rx="1" fill="#3AE8B0"/>
<rect x="187" y="84" width="4" height="4" rx="1" fill="#3AE8B0"/>
<rect x="195" y="84" width="4" height="4" rx="1" fill="#3AE8B0"/>
<rect x="203" y="84" width="4" height="4" rx="1" fill="#3AE8B0"/>
<rect x="120" width="4" height="4" rx="1" fill="#3AE8B0"/>
<rect x="128" width="4" height="4" rx="1" fill="#3AE8B0"/>
<rect x="136" width="4" height="4" rx="1" fill="#3AE8B0"/>
<rect x="144" width="4" height="4" rx="1" fill="#3AE8B0"/>
<rect x="152" width="4" height="4" rx="1" fill="#3AE8B0"/>
<rect x="120" y="8" width="4" height="4" rx="1" fill="#3AE8B0"/>
<rect x="128" y="8" width="4" height="4" rx="1" fill="#3AE8B0"/>
<rect x="136" y="8" width="4" height="4" rx="1" fill="#3AE8B0"/>
<rect x="144" y="8" width="4" height="4" rx="1" fill="#3AE8B0"/>
<rect x="152" y="8" width="4" height="4" rx="1" fill="#3AE8B0"/>
<rect x="120" y="16" width="4" height="4" rx="1" fill="#3AE8B0"/>
<rect x="128" y="16" width="4" height="4" rx="1" fill="#3AE8B0"/>
<rect x="136" y="16" width="4" height="4" rx="1" fill="#3AE8B0"/>
<rect x="144" y="16" width="4" height="4" rx="1" fill="#3AE8B0"/>
<rect x="152" y="16" width="4" height="4" rx="1" fill="#3AE8B0"/>
<rect x="120" y="24" width="4" height="4" rx="1" fill="#3AE8B0"/>
<rect x="128" y="24" width="4" height="4" rx="1" fill="#3AE8B0"/>
<rect x="136" y="24" width="4" height="4" rx="1" fill="#3AE8B0"/>
<rect x="144" y="24" width="4" height="4" rx="1" fill="#3AE8B0"/>
<rect x="152" y="24" width="4" height="4" rx="1" fill="#3AE8B0"/>
<rect x="120" y="32" width="4" height="4" rx="1" fill="#3AE8B0"/>
<rect x="128" y="32" width="4" height="4" rx="1" fill="#3AE8B0"/>
<rect x="136" y="32" width="4" height="4" rx="1" fill="#3AE8B0"/>
<rect x="144" y="32" width="4" height="4" rx="1" fill="#3AE8B0"/>
<rect x="152" y="32" width="4" height="4" rx="1" fill="#3AE8B0"/>
<rect x="171" width="4" height="4" rx="1" fill="#3AE8B0"/>
<rect x="179" width="4" height="4" rx="1" fill="#3AE8B0"/>
<rect x="187" width="4" height="4" rx="1" fill="#3AE8B0"/>
<rect x="195" width="4" height="4" rx="1" fill="#3AE8B0"/>
<rect x="203" width="4" height="4" rx="1" fill="#3AE8B0"/>
<rect x="171" y="8" width="4" height="4" rx="1" fill="#3AE8B0"/>
<rect x="179" y="8" width="4" height="4" rx="1" fill="#3AE8B0"/>
<rect x="187" y="8" width="4" height="4" rx="1" fill="#3AE8B0"/>
<rect x="195" y="8" width="4" height="4" rx="1" fill="#3AE8B0"/>
<rect x="203" y="8" width="4" height="4" rx="1" fill="#3AE8B0"/>
<rect x="171" y="16" width="4" height="4" rx="1" fill="#3AE8B0"/>
<rect x="179" y="16" width="4" height="4" rx="1" fill="#3AE8B0"/>
<rect x="187" y="16" width="4" height="4" rx="1" fill="#3AE8B0"/>
<rect x="195" y="16" width="4" height="4" rx="1" fill="#3AE8B0"/>
<rect x="203" y="16" width="4" height="4" rx="1" fill="#3AE8B0"/>
<rect x="171" y="24" width="4" height="4" rx="1" fill="#3AE8B0"/>
<rect x="179" y="24" width="4" height="4" rx="1" fill="#3AE8B0"/>
<rect x="187" y="24" width="4" height="4" rx="1" fill="#3AE8B0"/>
<rect x="195" y="24" width="4" height="4" rx="1" fill="#3AE8B0"/>
<rect x="203" y="24" width="4" height="4" rx="1" fill="#3AE8B0"/>
<rect x="171" y="32" width="4" height="4" rx="1" fill="#3AE8B0"/>
<rect x="179" y="32" width="4" height="4" rx="1" fill="#3AE8B0"/>
<rect x="187" y="32" width="4" height="4" rx="1" fill="#3AE8B0"/>
<rect x="195" y="32" width="4" height="4" rx="1" fill="#3AE8B0"/>
<rect x="203" y="32" width="4" height="4" rx="1" fill="#3AE8B0"/>
<rect x="238" y="52" width="4" height="4" rx="1" fill="#3AE8B0"/>
<rect x="246" y="52" width="4" height="4" rx="1" fill="#3AE8B0"/>
<rect x="254" y="52" width="4" height="4" rx="1" fill="#3AE8B0"/>
<rect x="262" y="52" width="4" height="4" rx="1" fill="#3AE8B0"/>
<rect x="270" y="52" width="4" height="4" rx="1" fill="#3AE8B0"/>
<rect x="238" y="60" width="4" height="4" rx="1" fill="#3AE8B0"/>
<rect x="246" y="60" width="4" height="4" rx="1" fill="#3AE8B0"/>
<rect x="254" y="60" width="4" height="4" rx="1" fill="#3AE8B0"/>
<rect x="262" y="60" width="4" height="4" rx="1" fill="#3AE8B0"/>
<rect x="270" y="60" width="4" height="4" rx="1" fill="#3AE8B0"/>
<rect x="238" y="68" width="4" height="4" rx="1" fill="#3AE8B0"/>
<rect x="246" y="68" width="4" height="4" rx="1" fill="#3AE8B0"/>
<rect x="254" y="68" width="4" height="4" rx="1" fill="#3AE8B0"/>
<rect x="262" y="68" width="4" height="4" rx="1" fill="#3AE8B0"/>
<rect x="270" y="68" width="4" height="4" rx="1" fill="#3AE8B0"/>
<rect x="238" y="76" width="4" height="4" rx="1" fill="#3AE8B0"/>
<rect x="246" y="76" width="4" height="4" rx="1" fill="#3AE8B0"/>
<rect x="254" y="76" width="4" height="4" rx="1" fill="#3AE8B0"/>
<rect x="262" y="76" width="4" height="4" rx="1" fill="#3AE8B0"/>
<rect x="270" y="76" width="4" height="4" rx="1" fill="#3AE8B0"/>
<rect x="238" y="84" width="4" height="4" rx="1" fill="#3AE8B0"/>
<rect x="246" y="84" width="4" height="4" rx="1" fill="#3AE8B0"/>
<rect x="254" y="84" width="4" height="4" rx="1" fill="#3AE8B0"/>
<rect x="262" y="84" width="4" height="4" rx="1" fill="#3AE8B0"/>
<rect x="270" y="84" width="4" height="4" rx="1" fill="#3AE8B0"/>
<rect x="290" y="52" width="4" height="4" rx="1" fill="#3AE8B0"/>
<rect x="298" y="52" width="4" height="4" rx="1" fill="#3AE8B0"/>
<rect x="306" y="52" width="4" height="4" rx="1" fill="#3AE8B0"/>
<rect x="314" y="52" width="4" height="4" rx="1" fill="#3AE8B0"/>
<rect x="322" y="52" width="4" height="4" rx="1" fill="#3AE8B0"/>
<rect x="290" y="60" width="4" height="4" rx="1" fill="#3AE8B0"/>
<rect x="298" y="60" width="4" height="4" rx="1" fill="#3AE8B0"/>
<rect x="306" y="60" width="4" height="4" rx="1" fill="#3AE8B0"/>
<rect x="314" y="60" width="4" height="4" rx="1" fill="#3AE8B0"/>
<rect x="322" y="60" width="4" height="4" rx="1" fill="#3AE8B0"/>
<rect x="290" y="68" width="4" height="4" rx="1" fill="#3AE8B0"/>
<rect x="298" y="68" width="4" height="4" rx="1" fill="#3AE8B0"/>
<rect x="306" y="68" width="4" height="4" rx="1" fill="#3AE8B0"/>
<rect x="314" y="68" width="4" height="4" rx="1" fill="#3AE8B0"/>
<rect x="322" y="68" width="4" height="4" rx="1" fill="#3AE8B0"/>
<rect x="290" y="76" width="4" height="4" rx="1" fill="#3AE8B0"/>
<rect x="298" y="76" width="4" height="4" rx="1" fill="#3AE8B0"/>
<rect x="306" y="76" width="4" height="4" rx="1" fill="#3AE8B0"/>
<rect x="314" y="76" width="4" height="4" rx="1" fill="#3AE8B0"/>
<rect x="322" y="76" width="4" height="4" rx="1" fill="#3AE8B0"/>
<rect x="290" y="84" width="4" height="4" rx="1" fill="#3AE8B0"/>
<rect x="298" y="84" width="4" height="4" rx="1" fill="#3AE8B0"/>
<rect x="306" y="84" width="4" height="4" rx="1" fill="#3AE8B0"/>
<rect x="314" y="84" width="4" height="4" rx="1" fill="#3AE8B0"/>
<rect x="322" y="84" width="4" height="4" rx="1" fill="#3AE8B0"/>
<rect x="239" width="4" height="4" rx="1" fill="#3AE8B0"/>
<rect x="247" width="4" height="4" rx="1" fill="#3AE8B0"/>
<rect x="255" width="4" height="4" rx="1" fill="#3AE8B0"/>
<rect x="263" width="4" height="4" rx="1" fill="#3AE8B0"/>
<rect x="271" width="4" height="4" rx="1" fill="#3AE8B0"/>
<rect x="239" y="8" width="4" height="4" rx="1" fill="#3AE8B0"/>
<rect x="247" y="8" width="4" height="4" rx="1" fill="#3AE8B0"/>
<rect x="255" y="8" width="4" height="4" rx="1" fill="#3AE8B0"/>
<rect x="263" y="8" width="4" height="4" rx="1" fill="#3AE8B0"/>
<rect x="271" y="8" width="4" height="4" rx="1" fill="#3AE8B0"/>
<rect x="239" y="16" width="4" height="4" rx="1" fill="#3AE8B0"/>
<rect x="247" y="16" width="4" height="4" rx="1" fill="#3AE8B0"/>
<rect x="255" y="16" width="4" height="4" rx="1" fill="#3AE8B0"/>
<rect x="263" y="16" width="4" height="4" rx="1" fill="#3AE8B0"/>
<rect x="271" y="16" width="4" height="4" rx="1" fill="#3AE8B0"/>
<rect x="239" y="24" width="4" height="4" rx="1" fill="#3AE8B0"/>
<rect x="247" y="24" width="4" height="4" rx="1" fill="#3AE8B0"/>
<rect x="255" y="24" width="4" height="4" rx="1" fill="#3AE8B0"/>
<rect x="263" y="24" width="4" height="4" rx="1" fill="#3AE8B0"/>
<rect x="271" y="24" width="4" height="4" rx="1" fill="#3AE8B0"/>
<rect x="239" y="32" width="4" height="4" rx="1" fill="#3AE8B0"/>
<rect x="247" y="32" width="4" height="4" rx="1" fill="#3AE8B0"/>
<rect x="255" y="32" width="4" height="4" rx="1" fill="#3AE8B0"/>
<rect x="263" y="32" width="4" height="4" rx="1" fill="#3AE8B0"/>
<rect x="271" y="32" width="4" height="4" rx="1" fill="#3AE8B0"/>
<rect x="290" width="4" height="4" rx="1" fill="#3AE8B0"/>
<rect x="298" width="4" height="4" rx="1" fill="#3AE8B0"/>
<rect x="306" width="4" height="4" rx="1" fill="#3AE8B0"/>
<rect x="314" width="4" height="4" rx="1" fill="#3AE8B0"/>
<rect x="322" width="4" height="4" rx="1" fill="#3AE8B0"/>
<rect x="290" y="8" width="4" height="4" rx="1" fill="#3AE8B0"/>
<rect x="298" y="8" width="4" height="4" rx="1" fill="#3AE8B0"/>
<rect x="306" y="8" width="4" height="4" rx="1" fill="#3AE8B0"/>
<rect x="314" y="8" width="4" height="4" rx="1" fill="#3AE8B0"/>
<rect x="322" y="8" width="4" height="4" rx="1" fill="#3AE8B0"/>
<rect x="290" y="16" width="4" height="4" rx="1" fill="#3AE8B0"/>
<rect x="298" y="16" width="4" height="4" rx="1" fill="#3AE8B0"/>
<rect x="306" y="16" width="4" height="4" rx="1" fill="#3AE8B0"/>
<rect x="314" y="16" width="4" height="4" rx="1" fill="#3AE8B0"/>
<rect x="322" y="16" width="4" height="4" rx="1" fill="#3AE8B0"/>
<rect x="290" y="24" width="4" height="4" rx="1" fill="#3AE8B0"/>
<rect x="298" y="24" width="4" height="4" rx="1" fill="#3AE8B0"/>
<rect x="306" y="24" width="4" height="4" rx="1" fill="#3AE8B0"/>
<rect x="314" y="24" width="4" height="4" rx="1" fill="#3AE8B0"/>
<rect x="322" y="24" width="4" height="4" rx="1" fill="#3AE8B0"/>
<rect x="290" y="32" width="4" height="4" rx="1" fill="#3AE8B0"/>
<rect x="298" y="32" width="4" height="4" rx="1" fill="#3AE8B0"/>
<rect x="306" y="32" width="4" height="4" rx="1" fill="#3AE8B0"/>
<rect x="314" y="32" width="4" height="4" rx="1" fill="#3AE8B0"/>
<rect x="322" y="32" width="4" height="4" rx="1" fill="#3AE8B0"/>
</svg>
