<svg viewBox="0 0 839 669" fill="none" xmlns="http://www.w3.org/2000/svg">
<g>
<path d="M4 477C4 473.686 6.68629 471 10 471H354V660H9.99999C6.68628 660 4 657.314 4 654V477Z" fill="black"/>
<path d="M350 434C350 430.686 352.686 428 356 428H829C832.314 428 835 430.686 835 434V654C835 657.314 832.314 660 829 660H350V434Z" fill="black"/>
<rect x="111" y="227" width="10" height="24" fill="#3AE8B0"/>
<path d="M111 227C111 223.686 113.686 221 117 221H306C309.314 221 312 223.686 312 227V229H111V227Z" fill="#3AE8B0"/>
<rect x="240" y="227" width="10" height="24" fill="#3AE8B0"/>
<path d="M317 343C317 339.686 319.686 337 323 337H327V395H317V343Z" fill="#3AE8B0"/>
<path d="M350 273C350 269.686 352.686 267 356 267H527C530.314 267 533 269.686 533 273V445H350V273Z" fill="black"/>
<rect x="519" y="329" width="316" height="118" rx="6" fill="black"/>
<rect x="383" y="399" width="25" height="30" rx="6" fill="white"/>
<rect x="418" y="399" width="25" height="30" rx="6" fill="white"/>
<rect x="383" y="439" width="25" height="30" rx="6" fill="white"/>
<rect x="418" y="439" width="25" height="30" rx="6" fill="white"/>
<rect x="455" y="399" width="25" height="30" rx="6" fill="white"/>
<rect x="490" y="399" width="25" height="30" rx="6" fill="white"/>
<rect x="455" y="439" width="25" height="30" rx="6" fill="white"/>
<rect x="490" y="439" width="25" height="30" rx="6" fill="white"/>
<rect x="527" y="399" width="25" height="30" rx="6" fill="white"/>
<rect x="562" y="399" width="25" height="30" rx="6" fill="white"/>
<rect x="527" y="439" width="25" height="30" rx="6" fill="white"/>
<rect x="562" y="439" width="25" height="30" rx="6" fill="white"/>
<rect x="599" y="399" width="25" height="30" rx="6" fill="white"/>
<rect x="634" y="399" width="25" height="30" rx="6" fill="white"/>
<rect x="599" y="439" width="25" height="30" rx="6" fill="white"/>
<rect x="634" y="439" width="25" height="30" rx="6" fill="white"/>
<rect x="671" y="399" width="25" height="30" rx="6" fill="white"/>
<rect x="706" y="399" width="25" height="30" rx="6" fill="white"/>
<rect x="671" y="439" width="25" height="30" rx="6" fill="white"/>
<rect x="706" y="439" width="25" height="30" rx="6" fill="white"/>
<rect x="743" y="399" width="25" height="30" rx="6" fill="white"/>
<rect x="778" y="399" width="25" height="30" rx="6" fill="white"/>
<rect x="743" y="439" width="25" height="30" rx="6" fill="white"/>
<rect x="778" y="439" width="25" height="30" rx="6" fill="white"/>
<path d="M302 229H312V310H308C304.686 310 302 307.314 302 304V229Z" fill="#3AE8B0"/>
<rect x="312" y="300" width="34" height="10" fill="#3AE8B0"/>
<rect x="327" y="337" width="18" height="10" fill="#3AE8B0"/>
<path d="M290 395H327V397C327 400.314 324.314 403 321 403H290V395Z" fill="#3AE8B0"/>
<rect x="161" y="395" width="39" height="8" fill="#3AE8B0"/>
<path d="M205 293.526C205 271.435 222.909 253.526 245 253.526V253.526C267.091 253.526 285 271.435 285 293.526V413.526C285 435.618 267.091 453.526 245 453.526V453.526C222.909 453.526 205 435.618 205 413.526V293.526Z" fill="black"/>
<path d="M236 255C236 251.686 238.686 249 242 249H248C251.314 249 254 251.686 254 255V255.789H236V255Z" fill="black"/>
<path d="M285 390C288.314 390 291 392.686 291 396V402C291 405.314 288.314 408 285 408V408V390V390Z" fill="black"/>
<path d="M156 390C159.314 390 162 392.686 162 396V402C162 405.314 159.314 408 156 408V408V390V390Z" fill="black"/>
<path d="M351 314C347.686 314 345 311.314 345 308V302C345 298.686 347.686 296 351 296V296V314V314Z" fill="black"/>
<path d="M205 408C201.686 408 199 405.314 199 402V396C199 392.686 201.686 390 205 390V390V408V408Z" fill="black"/>
<path d="M35 401C35 397.686 37.6863 395 41 395H71V403H35V401Z" fill="#3AE8B0"/>
<rect x="35" y="403" width="10" height="63" fill="#3AE8B0"/>
<path d="M76 408C72.6863 408 70 405.314 70 402V396C70 392.686 72.6863 390 76 390V390V408V408Z" fill="black"/>
<path d="M31 471C31 467.686 33.6863 465 37 465H43C46.3137 465 49 467.686 49 471V471H31V471Z" fill="black"/>
<path d="M350 351C346.686 351 344 348.314 344 345V339C344 335.686 346.686 333 350 333V333V351V351Z" fill="black"/>
<path d="M588 329C588 321.104 594.401 314.704 602.297 314.704H638.703C646.599 314.704 653 321.104 653 329V329H588V329Z" fill="black"/>
<rect x="603" y="143.859" width="35" height="177.992" fill="black"/>
<rect x="598" y="141" width="45" height="13.5817" rx="6.79087" fill="black"/>
<path d="M698 329C698 325.005 701.239 321.766 705.234 321.766H770.766C774.761 321.766 778 325.005 778 329V329H698V329Z" fill="black"/>
<rect x="713" y="202.404" width="50" height="119.362" fill="black"/>
<rect x="708" y="193" width="60" height="10.8511" rx="5.42553" fill="black"/>
<path d="M411.092 120H443V269H393L411.092 120Z" fill="black"/>
<path d="M474.908 120H443V269H493L474.908 120Z" fill="black"/>
<path d="M406.912 153H479.083L481 168H405L406.912 153Z" fill="white"/>
<path d="M401.948 193H483.958L486 209H400L401.948 193Z" fill="white"/>
<path d="M76 295.484C76 273.393 93.9086 255.484 116 255.484V255.484C138.091 255.484 156 273.393 156 295.484V415.484C156 437.576 138.091 455.484 116 455.484V455.484C93.9086 455.484 76 437.576 76 415.484V295.484Z" fill="black"/>
<path d="M107 257C107 253.686 109.686 251 113 251H119C122.314 251 125 253.686 125 257V257.726H107V257Z" fill="black"/>
<rect x="67" y="472.128" width="38" height="20" transform="rotate(-55 67 472.128)" fill="black"/>
<rect width="38" height="20" transform="matrix(0.573576 0.819152 0.819152 -0.573576 126.883 452.52)" fill="black"/>
<rect x="196" y="472.128" width="38" height="20" transform="rotate(-55 196 472.128)" fill="black"/>
<rect width="38" height="20" transform="matrix(0.573576 0.819152 0.819152 -0.573576 255.884 452.52)" fill="black"/>
<path d="M392 567C392 563.686 394.686 561 398 561H476C479.314 561 482 563.686 482 567V661H392V567Z" fill="white"/>
<path d="M395 566C395 564.343 396.343 563 398 563H476C477.657 563 479 564.343 479 566V566H395V566Z" fill="black"/>
<path d="M700 567C700 563.686 702.686 561 706 561H784C787.314 561 790 563.686 790 567V660H700V567Z" fill="white"/>
<rect x="703" y="569" width="84" height="3" fill="black"/>
<rect x="703" y="575" width="84" height="3" fill="black"/>
<rect x="703" y="581" width="84" height="3" fill="black"/>
<rect x="703" y="587" width="84" height="3" fill="black"/>
<rect x="703" y="593" width="84" height="3" fill="black"/>
<rect x="703" y="599" width="84" height="3" fill="black"/>
<rect x="703" y="605" width="84" height="3" fill="black"/>
<rect x="703" y="611" width="84" height="3" fill="black"/>
<rect x="703" y="617" width="84" height="3" fill="black"/>
<rect x="703" y="623" width="84" height="3" fill="black"/>
<rect x="703" y="629" width="84" height="3" fill="black"/>
<rect x="703" y="635" width="84" height="3" fill="black"/>
<rect x="703" y="641" width="84" height="3" fill="black"/>
<rect x="703" y="647" width="84" height="3" fill="black"/>
<rect x="703" y="653" width="84" height="3" fill="black"/>
<rect x="703" y="659" width="84" height="1" fill="black"/>
<path d="M703 566C703 564.343 704.343 563 706 563H784C785.657 563 787 564.343 787 566V566H703V566Z" fill="black"/>
<path d="M546 567C546 563.686 548.686 561 552 561H630C633.314 561 636 563.686 636 567V660H546V567Z" fill="white"/>
<rect x="395" y="569" width="84" height="3" fill="black"/>
<rect x="549" y="569" width="84" height="3" fill="black"/>
<rect x="549" y="575" width="84" height="3" fill="black"/>
<rect x="549" y="581" width="84" height="3" fill="black"/>
<rect x="549" y="587" width="84" height="3" fill="black"/>
<rect x="549" y="593" width="84" height="3" fill="black"/>
<rect x="549" y="599" width="84" height="3" fill="black"/>
<rect x="549" y="605" width="84" height="3" fill="black"/>
<rect x="549" y="611" width="84" height="3" fill="black"/>
<rect x="549" y="617" width="84" height="3" fill="black"/>
<rect x="549" y="623" width="84" height="3" fill="black"/>
<rect x="549" y="629" width="84" height="3" fill="black"/>
<rect x="549" y="635" width="84" height="3" fill="black"/>
<rect x="549" y="641" width="84" height="3" fill="black"/>
<rect x="549" y="647" width="84" height="3" fill="black"/>
<rect x="549" y="653" width="84" height="3" fill="black"/>
<rect x="549" y="659" width="84" height="1" fill="black"/>
<path d="M549 566C549 564.343 550.343 563 552 563H630C631.657 563 633 564.343 633 566V566H549V566Z" fill="black"/>
<circle cx="431" cy="60" r="20" fill="#3AE8B0"/>
<circle cx="444" cy="73" r="20" fill="#3AE8B0"/>
<circle cx="471" cy="73" r="20" fill="#3AE8B0"/>
<circle cx="459" cy="53" r="20" fill="#3AE8B0"/>
<circle cx="447" cy="33" r="20" fill="#3AE8B0"/>
<circle cx="427" cy="33" r="20" fill="#3AE8B0"/>
<circle cx="467" cy="20" r="20" fill="#3AE8B0"/>
<circle cx="484" cy="33" r="20" fill="#3AE8B0"/>
<circle cx="499" cy="53" r="20" fill="#3AE8B0"/>
<circle cx="622" cy="104" r="10" fill="#3AE8B0"/>
<circle cx="630" cy="110" r="10" fill="#3AE8B0"/>
<circle cx="642" cy="104" r="10" fill="#3AE8B0"/>
<circle cx="637" cy="94" r="10" fill="#3AE8B0"/>
<circle cx="624" cy="86" r="10" fill="#3AE8B0"/>
<circle cx="640" cy="79" r="10" fill="#3AE8B0"/>
<circle cx="652" cy="89" r="10" fill="#3AE8B0"/>
<circle cx="657" cy="100" r="10" fill="#3AE8B0"/>
<circle cx="667" cy="90" r="10" fill="#3AE8B0"/>
<circle cx="654" cy="79" r="10" fill="#3AE8B0"/>
<circle cx="630" cy="70" r="10" fill="#3AE8B0"/>
<circle cx="647" cy="66" r="10" fill="#3AE8B0"/>
<circle cx="664" cy="69" r="10" fill="#3AE8B0"/>
<circle cx="672" cy="76" r="10" fill="#3AE8B0"/>
<circle cx="741" cy="155" r="10" fill="#3AE8B0"/>
<circle cx="749" cy="161" r="10" fill="#3AE8B0"/>
<circle cx="761" cy="155" r="10" fill="#3AE8B0"/>
<circle cx="756" cy="145" r="10" fill="#3AE8B0"/>
<circle cx="743" cy="137" r="10" fill="#3AE8B0"/>
<circle cx="759" cy="130" r="10" fill="#3AE8B0"/>
<circle cx="771" cy="140" r="10" fill="#3AE8B0"/>
<circle cx="776" cy="151" r="10" fill="#3AE8B0"/>
<circle cx="786" cy="141" r="10" fill="#3AE8B0"/>
<circle cx="773" cy="130" r="10" fill="#3AE8B0"/>
<circle cx="749" cy="121" r="10" fill="#3AE8B0"/>
<circle cx="766" cy="117" r="10" fill="#3AE8B0"/>
<circle cx="783" cy="120" r="10" fill="#3AE8B0"/>
<circle cx="791" cy="127" r="10" fill="#3AE8B0"/>
<circle cx="116" cy="302" r="20" fill="#3AE8B0"/>
<circle cx="245" cy="302" r="20" fill="#3AE8B0"/>
<rect x="46" y="508" width="60" height="3.57143" rx="1.78571" fill="white"/>
<rect x="46" y="518.714" width="60" height="3.57143" rx="1.78571" fill="white"/>
<rect x="46" y="529.429" width="60" height="3.57143" rx="1.78571" fill="white"/>
<rect x="116" y="508" width="60" height="3.57143" rx="1.78571" fill="white"/>
<rect x="116" y="518.714" width="60" height="3.57143" rx="1.78571" fill="white"/>
<rect x="116" y="529.429" width="60" height="3.57143" rx="1.78571" fill="white"/>
<rect x="186" y="508" width="60" height="3.57143" rx="1.78571" fill="white"/>
<rect x="186" y="518.714" width="60" height="3.57143" rx="1.78571" fill="white"/>
<rect x="186" y="529.429" width="60" height="3.57143" rx="1.78571" fill="white"/>
<rect x="256" y="508" width="60" height="3.57143" rx="1.78571" fill="white"/>
<rect x="256" y="518.714" width="60" height="3.57143" rx="1.78571" fill="white"/>
<rect x="256" y="529.429" width="60" height="3.57143" rx="1.78571" fill="white"/>
<rect x="66" y="429" width="100" height="15" rx="7.5" fill="black"/>
<rect x="195" y="429" width="100" height="15" rx="7.5" fill="black"/>
</g>
</svg>
