<svg width="179" height="129" viewBox="0 0 179 129" fill="none" xmlns="http://www.w3.org/2000/svg">
<rect x="43.4473" y="82.5918" width="92.1049" height="46.0525" rx="3" fill="#000"/>
<rect x="110.224" y="73.3809" width="4.60525" height="13.8157" rx="1" fill="#000"/>
<rect x="121.737" y="59.5654" width="4.60525" height="27.6315" rx="1" fill="#000"/>
<circle cx="127" cy="91" r="4" fill="#57e3ff"/>
<path d="M97.0426 63.5478C96.1992 61.3356 96.0911 58.896 96.7339 56.5787C97.3766 54.2614 98.7372 52.1854 100.621 50.6481C102.504 49.1107 104.814 48.1911 107.218 48.021C109.623 47.8509 112 48.4391 114.007 49.7011L112.12 52.5799C110.715 51.6965 109.052 51.2848 107.368 51.4039C105.685 51.523 104.068 52.1667 102.75 53.2428C101.431 54.3189 100.479 55.7722 100.029 57.3943C99.5792 59.0164 99.6548 60.7241 100.245 62.2726L97.0426 63.5478Z" fill="#57e3ff"/>
<path d="M104.244 64.8323C103.714 63.4731 103.628 61.9811 103.998 60.5701C104.368 59.159 105.176 57.9015 106.305 56.9776C107.434 56.0537 108.826 55.5109 110.283 55.427C111.739 55.3432 113.185 55.7225 114.412 56.5107L113.292 58.2545C112.433 57.7028 111.421 57.4373 110.402 57.496C109.382 57.5547 108.408 57.9346 107.617 58.5813C106.827 59.2281 106.262 60.1084 106.003 61.0961C105.743 62.0838 105.804 63.1282 106.174 64.0796L104.244 64.8323Z" fill="#57e3ff"/>
<path d="M110.074 67.6821C109.721 66.776 109.664 65.7813 109.911 64.8406C110.157 63.9 110.696 63.0616 111.448 62.4457C112.201 61.8297 113.129 61.4679 114.1 61.412C115.071 61.3561 116.035 61.609 116.853 62.1344L116.107 63.297C115.534 62.9291 114.859 62.7521 114.18 62.7913C113.5 62.8304 112.85 63.0837 112.323 63.5148C111.797 63.946 111.42 64.5329 111.247 65.1913C111.074 65.8498 111.114 66.5461 111.362 67.1804L110.074 67.6821Z" fill="#57e3ff"/>
<rect x="101.014" y="110.223" width="2.30262" height="13.8157" rx="1" fill="rgba(255,255,255,.9)"/>
<rect x="105.618" y="110.223" width="2.30262" height="13.8157" rx="1" fill="rgba(255,255,255,.9)"/>
<rect x="110.224" y="110.223" width="2.30262" height="13.8157" rx="1" fill="rgba(255,255,255,.9)"/>
<rect x="114.829" y="110.223" width="2.30262" height="13.8157" rx="1" fill="rgba(255,255,255,.9)"/>
<rect x="119.435" y="110.223" width="2.30262" height="13.8157" rx="1" fill="rgba(255,255,255,.9)"/>
<rect x="124.039" y="110.223" width="2.30262" height="13.8157" rx="1" fill="rgba(255,255,255,.9)"/>
<rect x="128.645" y="110.223" width="2.30262" height="13.8157" rx="1" fill="rgba(255,255,255,.9)"/>
<circle cx="89.5" cy="13.5131" r="12.5131" fill="none" stroke="#57e3ff" stroke-width="2"/>
<circle cx="89.5004" cy="13.5133" r="6.90787" fill="#fff"/>
<circle r="12.5131" transform="matrix(-1 0 0 1 43.4475 31.934)" fill="none" stroke="#57e3ff" stroke-width="2"/>
<circle r="12.5131" transform="matrix(-1 0 0 1 13.5131 71.0785)" fill="none" stroke="#57e3ff" stroke-width="2"/>
<circle r="6.90787" transform="matrix(-1 0 0 1 43.4471 31.9342)" fill="#fff"/>
<circle r="6.90787" transform="matrix(-1 0 0 1 13.5138 71.0778)" fill="#fff"/>
<circle cx="135.552" cy="31.934" r="12.5131" fill="none" stroke="#57e3ff" stroke-width="2"/>
<circle cx="165.487" cy="71.0785" r="12.5131" fill="none" stroke="#57e3ff" stroke-width="2"/>
<circle cx="135.553" cy="31.9342" r="6.90787" fill="#fff"/>
<circle cx="165.487" cy="71.0778" r="6.90787" fill="#fff"/>
<circle cx="52" cy="91" r="2" fill="#57e3ff"/>
<circle cx="58" cy="91" r="2" fill="#57e3ff"/>
<circle cx="64" cy="91" r="2" fill="#57e3ff"/>
<circle cx="70" cy="91" r="2" fill="#57e3ff"/>
<circle cx="76" cy="91" r="2" fill="#57e3ff"/>
</svg>
