<svg viewBox="0 0 480 496" fill="none" xmlns="http://www.w3.org/2000/svg">
<path d="M320 136C322.12 136 324.16 135.16 325.656 133.656L419.312 40H433.472C436.784 49.288 445.584 56 456 56C469.232 56 480 45.232 480 32C480 18.768 469.232 8 456 8C445.584 8 436.784 14.712 433.472 24H416C413.88 24 411.84 24.84 410.344 26.344L316.688 120H304V112C304 98.768 293.232 88 280 88C266.768 88 256 98.768 256 112V136H215.192C211.472 117.768 195.32 104 176 104C165.984 104 156.928 107.832 149.904 113.936L75.856 57.392C78.432 52.104 80 46.256 80 40C80 17.944 62.056 0 40 0C17.944 0 0 17.944 0 40C0 62.056 17.944 80 40 80C50.016 80 59.072 76.168 66.096 70.064L140.144 126.608C138.696 129.576 137.488 132.672 136.808 135.992H79.192C75.472 117.768 59.312 104 40 104C17.944 104 0 121.944 0 144C0 166.056 17.944 184 40 184C50.016 184 59.072 180.168 66.096 174.064L94.816 196L66.096 217.936C59.072 211.832 50.016 208 40 208C17.944 208 0 225.944 0 248C0 270.056 17.944 288 40 288C50.016 288 59.072 284.168 66.096 278.064L94.816 300L66.096 321.936C59.072 315.832 50.016 312 40 312C17.944 312 0 329.944 0 352C0 374.056 17.944 392 40 392C59.312 392 75.472 378.232 79.192 360H136.808C137.488 363.32 138.696 366.416 140.144 369.384L66.096 425.928C59.072 419.832 50.016 416 40 416C17.944 416 0 433.944 0 456C0 478.056 17.944 496 40 496C62.056 496 80 478.056 80 456C80 449.744 78.432 443.896 75.856 438.616L149.904 382.072C156.928 388.168 165.984 392 176 392C195.312 392 211.472 378.232 215.192 360H256V376C256 389.232 266.768 400 280 400C293.232 400 304 389.232 304 376H316.688L410.344 469.656C411.84 471.16 413.88 472 416 472H433.472C436.784 481.288 445.584 488 456 488C469.232 488 480 477.232 480 464C480 450.768 469.232 440 456 440C445.584 440 436.784 446.712 433.472 456H419.312L325.656 362.344C324.16 360.84 322.12 360 320 360H304V336H340.688L402.344 397.656C403.84 399.16 405.88 400 408 400H433.472C436.784 409.288 445.584 416 456 416C469.232 416 480 405.232 480 392C480 378.768 469.232 368 456 368C445.584 368 436.784 374.712 433.472 384H411.312L349.656 322.344C348.16 320.84 346.12 320 344 320H304V296H372.688L402.344 325.656C403.84 327.16 405.88 328 408 328H433.472C436.784 337.288 445.584 344 456 344C469.232 344 480 333.232 480 320C480 306.768 469.232 296 456 296C445.584 296 436.784 302.712 433.472 312H411.312L381.656 282.344C380.16 280.84 378.12 280 376 280H304V256H433.472C436.784 265.288 445.584 272 456 272C469.232 272 480 261.232 480 248C480 234.768 469.232 224 456 224C445.584 224 436.784 230.712 433.472 240H304V216H376C378.12 216 380.16 215.16 381.656 213.656L411.312 184H433.472C436.784 193.288 445.584 200 456 200C469.232 200 480 189.232 480 176C480 162.768 469.232 152 456 152C445.584 152 436.784 158.712 433.472 168H408C405.88 168 403.84 168.84 402.344 170.344L372.688 200H304V176H344C346.12 176 348.16 175.16 349.656 173.656L411.312 112H433.472C436.784 121.288 445.584 128 456 128C469.232 128 480 117.232 480 104C480 90.768 469.232 80 456 80C445.584 80 436.784 86.712 433.472 96H408C405.88 96 403.84 96.84 402.344 98.344L340.688 160H304V136H320ZM456 24C460.408 24 464 27.584 464 32C464 36.416 460.408 40 456 40C451.592 40 448 36.416 448 32C448 27.584 451.592 24 456 24ZM456 456C460.408 456 464 459.584 464 464C464 468.416 460.408 472 456 472C451.592 472 448 468.416 448 464C448 459.584 451.592 456 456 456ZM456 384C460.408 384 464 387.584 464 392C464 396.416 460.408 400 456 400C451.592 400 448 396.416 448 392C448 387.584 451.592 384 456 384ZM456 312C460.408 312 464 315.584 464 320C464 324.416 460.408 328 456 328C451.592 328 448 324.416 448 320C448 315.584 451.592 312 456 312ZM456 240C460.408 240 464 243.584 464 248C464 252.416 460.408 256 456 256C451.592 256 448 252.416 448 248C448 243.584 451.592 240 456 240ZM456 168C460.408 168 464 171.584 464 176C464 180.416 460.408 184 456 184C451.592 184 448 180.416 448 176C448 171.584 451.592 168 456 168ZM456 96C460.408 96 464 99.584 464 104C464 108.416 460.408 112 456 112C451.592 112 448 108.416 448 104C448 99.584 451.592 96 456 96ZM215.192 152H256V240H215.192C211.472 221.768 195.32 208 176 208C165.984 208 156.928 211.832 149.904 217.936L121.184 196L149.904 174.064C156.928 180.168 165.984 184 176 184C195.312 184 211.472 170.232 215.192 152ZM152 248C152 234.768 162.768 224 176 224C189.232 224 200 234.768 200 248C200 261.232 189.232 272 176 272C162.768 272 152 261.232 152 248ZM176 120C189.232 120 200 130.768 200 144C200 157.232 189.232 168 176 168C162.768 168 152 157.232 152 144C152 130.768 162.768 120 176 120ZM40 64C26.768 64 16 53.232 16 40C16 26.768 26.768 16 40 16C53.232 16 64 26.768 64 40C64 53.232 53.232 64 40 64ZM40 168C26.768 168 16 157.232 16 144C16 130.768 26.768 120 40 120C53.232 120 64 130.768 64 144C64 157.232 53.232 168 40 168ZM75.856 161.384C77.304 158.416 78.512 155.32 79.192 152H136.808C137.488 155.32 138.696 158.416 140.144 161.384L108 185.936L75.856 161.384ZM140.144 230.616C138.696 233.584 137.488 236.68 136.808 240H79.192C78.512 236.68 77.304 233.584 75.856 230.616L108 206.072L140.144 230.616ZM40 272C26.768 272 16 261.232 16 248C16 234.768 26.768 224 40 224C53.232 224 64 234.768 64 248C64 261.232 53.232 272 40 272ZM75.856 265.384C77.304 262.416 78.512 259.32 79.192 256H136.808C137.488 259.32 138.696 262.416 140.144 265.384L108 289.936L75.856 265.384ZM136.808 344H79.192C78.512 340.68 77.304 337.584 75.856 334.616L108 310.072L140.144 334.616C138.696 337.584 137.488 340.68 136.808 344ZM40 376C26.768 376 16 365.232 16 352C16 338.768 26.768 328 40 328C53.232 328 64 338.768 64 352C64 365.232 53.232 376 40 376ZM40 480C26.768 480 16 469.232 16 456C16 442.768 26.768 432 40 432C53.232 432 64 442.768 64 456C64 469.232 53.232 480 40 480ZM176 376C162.768 376 152 365.232 152 352C152 338.768 162.768 328 176 328C189.232 328 200 338.768 200 352C200 365.232 189.232 376 176 376ZM215.192 344C211.472 325.768 195.32 312 176 312C165.984 312 156.928 315.832 149.904 321.936L121.184 300L149.904 278.064C156.928 284.168 165.984 288 176 288C195.312 288 211.472 274.232 215.192 256H256V344H215.192ZM288 376C288 380.416 284.408 384 280 384C275.592 384 272 380.416 272 376V112C272 107.584 275.592 104 280 104C284.408 104 288 107.584 288 112V376Z" fill="black"/>
<circle cx="176" cy="144" r="24" fill="#3AE8B0"/>
<circle cx="176" cy="248" r="24" fill="#3AE8B0"/>
<circle cx="176" cy="352" r="24" fill="#3AE8B0"/>
<circle cx="456" cy="32" r="8" fill="#3AE8B0"/>
<circle cx="456" cy="104" r="8" fill="#3AE8B0"/>
<circle cx="456" cy="176" r="8" fill="#3AE8B0"/>
<circle cx="456" cy="248" r="8" fill="#3AE8B0"/>
<circle cx="456" cy="320" r="8" fill="#3AE8B0"/>
<circle cx="456" cy="392" r="8" fill="#3AE8B0"/>
<circle cx="456" cy="464" r="8" fill="#3AE8B0"/>
<rect x="272" y="104" width="16" height="280" rx="8" fill="#3AE8B0"/>
</svg>
