<svg width="199" height="138" viewBox="0 0 199 138" fill="none" xmlns="http://www.w3.org/2000/svg">
<rect y="105" width="199" height="33" rx="4" fill="black"/>
<rect width="100" height="100" rx="4" fill="black"/>
<rect x="14" y="100" width="73" height="5" fill="black"/>
<rect x="27" y="10" width="65" height="80" rx="2" fill="white"/>
<circle cx="13" cy="25" r="5" fill="white"/>
<circle cx="13" cy="42" r="5" fill="white"/>
<rect x="5" y="65" width="3" height="3" rx="0.5" fill="white"/>
<rect x="12" y="65" width="3" height="3" rx="0.5" fill="#006AFF"/>
<rect x="19" y="65" width="3" height="3" rx="0.5" fill="#20F035"/>
<rect x="5" y="79" width="3" height="3" rx="0.5" fill="#20F035"/>
<rect x="12" y="79" width="3" height="3" rx="0.5" fill="white"/>
<rect x="19" y="79" width="3" height="3" rx="0.5" fill="#006AFF"/>
<rect x="5" y="72" width="3" height="3" rx="0.5" fill="#006AFF"/>
<rect x="12" y="72" width="3" height="3" rx="0.5" fill="white"/>
<rect x="19" y="72" width="3" height="3" rx="0.5" fill="#20F035"/>
<rect x="15.5521" y="20" width="1" height="5.5799" transform="rotate(30.6925 15.5521 20)" fill="black"/>
<rect x="17.4142" y="45.0225" width="1" height="5.28035" transform="rotate(128.565 17.4142 45.0225)" fill="black"/>
<rect x="56" y="38" width="7" height="25" fill="#006AFF"/>
<rect x="47" y="54" width="7" height="25" transform="rotate(-90 47 54)" fill="#006AFF"/>
<rect x="20" y="119" width="15" height="4" rx="1" fill="white"/>
<rect x="43" y="119" width="15" height="4" rx="1" fill="white"/>
<rect x="66" y="119" width="15" height="4" rx="1" fill="white"/>
<rect x="116" y="49" width="10" height="51" fill="black"/>
<rect x="113" y="100" width="16" height="7" rx="1" fill="black"/>
<rect x="113" y="39" width="16" height="7" rx="1" fill="black"/>
<rect x="140" y="100" width="16" height="7" rx="1" fill="black"/>
<rect x="167" y="100" width="16" height="7" rx="1" fill="black"/>
<rect x="117" y="49" width="8" height="51" fill="white"/>
<rect x="118" y="51" width="6" height="48" rx="3" fill="#006AFF"/>
<rect x="96" y="37" width="96" height="6" rx="2" fill="black"/>
<circle cx="121" cy="121" r="3" fill="#20F035"/>
<circle cx="148" cy="121" r="3" fill="#20F035"/>
<circle cx="175" cy="121" r="3" fill="#20F035"/>
<rect x="116" y="48" width="10" height="2" rx="1" fill="black"/>
<rect x="120" y="46" width="2" height="2" fill="black"/>
<rect x="143" y="49" width="10" height="51" fill="black"/>
<rect x="140" y="39" width="16" height="7" rx="1" fill="black"/>
<rect x="144" y="49" width="8" height="51" fill="white"/>
<rect x="145" y="51" width="6" height="48" rx="3" fill="#006AFF"/>
<rect x="143" y="48" width="10" height="2" rx="1" fill="black"/>
<rect x="147" y="46" width="2" height="2" fill="black"/>
<rect x="170" y="49" width="10" height="51" fill="black"/>
<rect x="167" y="39" width="16" height="7" rx="1" fill="black"/>
<rect x="171" y="49" width="8" height="51" fill="white"/>
<rect x="172" y="51" width="6" height="48" rx="3" fill="#006AFF"/>
<rect x="170" y="48" width="10" height="2" rx="1" fill="black"/>
<rect x="174" y="46" width="2" height="2" fill="black"/>
</svg>
