<svg width="342" height="291" viewBox="0 0 342 291" fill="none" xmlns="http://www.w3.org/2000/svg">
<line x1="32.853" y1="235.601" x2="32.853" y2="166.681" stroke="#6F84FF" stroke-width="3"/>
<line x1="32.0229" y1="168.183" x2="125.368" y2="168.183" stroke="#6F84FF" stroke-width="3"/>
<line x1="123.868" y1="169.683" x2="123.868" y2="123.895" stroke="#6F84FF" stroke-width="3"/>
<line x1="171.264" y1="239.015" x2="171.264" y2="123.895" stroke="#6FFFEA" stroke-width="3"/>
<line x1="309.429" y1="235.608" x2="309.429" y2="166.676" stroke="#FFA26F" stroke-width="3"/>
<line x1="217.496" y1="168.183" x2="310.836" y2="168.183" stroke="#FFA26F" stroke-width="3"/>
<line x1="218.9" y1="169.683" x2="218.9" y2="125.864" stroke="#FFA26F" stroke-width="3"/>
<circle cx="169.458" cy="59.6406" r="50" fill="black"/>
<path fill-rule="evenodd" clip-rule="evenodd" d="M179.322 47.8848L191.714 70.0511L183.938 84.1069L171.608 62.0699H154.787L162.655 47.8848H179.322Z" fill="white"/>
<path d="M182.19 82.3561H157.035L144.458 59.6404L157.035 36.9248H182.19L194.458 59.0911" stroke="white" stroke-width="3" stroke-miterlimit="3" stroke-linecap="square"/>
<circle cx="32.7725" cy="218.953" r="5" fill="black" stroke="#6F84FF" stroke-width="2"/>
<circle cx="32.7725" cy="194.277" r="5" fill="black" stroke="#6F84FF" stroke-width="2"/>
<circle cx="51.8896" cy="168.326" r="5" fill="black" stroke="#6F84FF" stroke-width="2"/>
<circle cx="78.6953" cy="168.326" r="5" fill="black" stroke="#6F84FF" stroke-width="2"/>
<circle cx="104.729" cy="168.326" r="5" fill="black" stroke="#6F84FF" stroke-width="2"/>
<circle cx="123.893" cy="145.089" r="5" fill="black" stroke="#6F84FF" stroke-width="2"/>
<circle cx="171.125" cy="218.872" r="5" fill="black" stroke="#6FFFEA" stroke-width="2"/>
<circle cx="171.125" cy="194.277" r="5" fill="black" stroke="#6FFFEA" stroke-width="2"/>
<circle cx="171.125" cy="169.683" r="5" fill="black" stroke="#6FFFEA" stroke-width="2"/>
<circle cx="171.125" cy="145.089" r="5" fill="black" stroke="#6FFFEA" stroke-width="2"/>
<circle cx="309.459" cy="218.872" r="5" fill="black" stroke="#FFA26F" stroke-width="2"/>
<circle cx="309.459" cy="194.277" r="5" fill="black" stroke="#FFA26F" stroke-width="2"/>
<circle cx="290.437" cy="168.326" r="5" fill="black" stroke="#FFA26F" stroke-width="2"/>
<circle cx="264.498" cy="168.326" r="5" fill="black" stroke="#FFA26F" stroke-width="2"/>
<circle cx="238.558" cy="168.326" r="5" fill="black" stroke="#FFA26F" stroke-width="2"/>
<circle cx="218.896" cy="145.089" r="5" fill="black" stroke="#FFA26F" stroke-width="2"/>
<circle cx="123.893" cy="123.895" r="3" fill="#6F84FF"/>
<circle cx="171.125" cy="123.895" r="3" fill="#6FFFEA"/>
<circle cx="218.896" cy="123.871" r="3" fill="#FFA26F"/>
<circle cx="309.459" cy="236.776" r="3" fill="#FFA26F"/>
<circle cx="171.163" cy="236.776" r="3" fill="#6FFFEA"/>
<circle cx="32.7725" cy="236.776" r="3" fill="#6F84FF"/>
<path d="M0.772461 287.087H64.7725C64.7725 287.865 64.4634 288.611 63.9133 289.161C63.3632 289.711 62.6171 290.02 61.8391 290.02H3.70579C2.92783 290.02 2.18172 289.711 1.63161 289.161C1.08151 288.611 0.772461 287.865 0.772461 287.087Z" fill="#6F84FF"/>
<path d="M56.7726 251.531H8.77262C8.06538 251.531 7.3871 251.812 6.88701 252.312C6.38691 252.812 6.10596 253.491 6.10596 254.198V282.642C6.10596 283.35 6.38691 284.028 6.88701 284.528C7.3871 285.028 8.06538 285.309 8.77262 285.309H56.7726C57.4799 285.309 58.1581 285.028 58.6582 284.528C59.1583 284.028 59.4393 283.35 59.4393 282.642V254.198C59.4393 253.491 59.1583 252.812 58.6582 252.312C58.1581 251.812 57.4799 251.531 56.7726 251.531ZM18.3015 269.309V267.531H32.5237V269.309H18.3015ZM21.8571 271.087V272.865H14.746V271.087H21.8571ZM14.746 262.198V260.42H21.8571V262.198H14.746ZM18.3015 265.753V263.976H43.1904V265.753H18.3015ZM28.9682 258.642H11.1904V256.865H28.9682V258.642ZM14.746 274.642H25.4126V276.42H14.746V274.642ZM18.3015 278.198H48.5237V279.976H18.3015V278.198Z" fill="#6F84FF"/>
<path d="M139.125 287.087H203.125C203.125 287.865 202.815 288.611 202.265 289.161C201.715 289.711 200.969 290.02 200.191 290.02H142.058C141.28 290.02 140.534 289.711 139.984 289.161C139.434 288.611 139.125 287.865 139.125 287.087Z" fill="#3AE8B0"/>
<path d="M195.125 251.531H147.125C146.417 251.531 145.739 251.812 145.239 252.312C144.739 252.812 144.458 253.491 144.458 254.198V282.642C144.458 283.35 144.739 284.028 145.239 284.528C145.739 285.028 146.417 285.309 147.125 285.309H195.125C195.832 285.309 196.51 285.028 197.01 284.528C197.51 284.028 197.791 283.35 197.791 282.642V254.198C197.791 253.491 197.51 252.812 197.01 252.312C196.51 251.812 195.832 251.531 195.125 251.531ZM156.654 269.309V267.531H170.876V269.309H156.654ZM160.209 271.087V272.865H153.098V271.087H160.209ZM153.098 262.198V260.42H160.209V262.198H153.098ZM156.654 265.753V263.976H181.542V265.753H156.654ZM167.32 258.642H149.542V256.865H167.32V258.642ZM153.098 274.642H163.765V276.42H153.098V274.642ZM156.654 278.198H186.876V279.976H156.654V278.198Z" fill="#3AE8B0"/>
<path d="M277.477 287.087H341.477C341.477 287.865 341.168 288.611 340.617 289.161C340.067 289.711 339.321 290.02 338.543 290.02H280.41C279.632 290.02 278.886 289.711 278.336 289.161C277.786 288.611 277.477 287.865 277.477 287.087Z" fill="#FFA26F"/>
<path d="M333.477 251.531H285.477C284.769 251.531 284.091 251.812 283.591 252.312C283.091 252.812 282.81 253.491 282.81 254.198V282.642C282.81 283.35 283.091 284.028 283.591 284.528C284.091 285.028 284.769 285.309 285.477 285.309H333.477C334.184 285.309 334.862 285.028 335.362 284.528C335.862 284.028 336.143 283.35 336.143 282.642V254.198C336.143 253.491 335.862 252.812 335.362 252.312C334.862 251.812 334.184 251.531 333.477 251.531ZM295.006 269.309V267.531H309.228V269.309H295.006ZM298.561 271.087V272.865H291.45V271.087H298.561ZM291.45 262.198V260.42H298.561V262.198H291.45ZM295.006 265.753V263.976H319.895V265.753H295.006ZM305.672 258.642H287.895V256.865H305.672V258.642ZM291.45 274.642H302.117V276.42H291.45V274.642ZM295.006 278.198H325.228V279.976H295.006V278.198Z" fill="#FFA26F"/>
</svg>
