<svg width="170" height="187" viewBox="0 0 170 187" fill="none" xmlns="http://www.w3.org/2000/svg">
<rect width="4.44786" height="16.6795" transform="matrix(-0.829111 -0.559084 -0.559084 0.829111 169.828 128.543)" fill="black"/>
<rect x="163.654" y="129.745" width="10.0077" height="4.44786" transform="rotate(-146.008 163.654 129.745)" fill="black"/>
<rect x="11.1199" y="105.637" width="55.5982" height="73.3896" rx="2" fill="black"/>
<rect x="32.2472" y="76.7256" width="13.3436" height="33.3589" fill="black"/>
<circle cx="38.919" cy="62.2703" r="16.6795" fill="black"/>
<rect x="118.44" y="22.4775" width="13.3436" height="75.6999" transform="rotate(68.9014 118.44 22.4775)" fill="black"/>
<path d="M127.853 33.8311L144.313 31.1352L155.42 113.638L147.538 115.115L127.853 33.8311Z" fill="black"/>
<circle cx="38.919" cy="62.2698" r="5.55982" fill="white"/>
<circle cx="132.196" cy="23.2229" r="16.6795" transform="rotate(34.9014 132.196 23.2229)" fill="black"/>
<circle cx="132.196" cy="23.2224" r="5.55982" transform="rotate(34.9014 132.196 23.2224)" fill="white"/>
<circle cx="132.196" cy="23.2225" r="8.39571" transform="rotate(34.9014 132.196 23.2225)" stroke="white"/>
<rect width="4.44786" height="16.6795" transform="matrix(0.620645 0.784092 0.784092 -0.620645 135.537 130.254)" fill="black"/>
<rect x="141.785" y="130.98" width="10.0077" height="4.44786" transform="rotate(51.6367 141.785 130.98)" fill="black"/>
<circle cx="38.919" cy="62.2697" r="8.39571" stroke="white"/>
<circle cx="152.409" cy="120.549" r="8.33973" transform="rotate(20.9285 152.409 120.549)" fill="black"/>
<circle cx="152.091" cy="119.838" r="2.86535" transform="rotate(46.1201 152.091 119.838)" fill="white"/>
<circle cx="152.088" cy="119.83" r="4.76436" transform="rotate(46.1201 152.088 119.83)" stroke="white" stroke-width="0.5"/>
<rect x="0.000244141" y="175.69" width="77.8375" height="11.1196" rx="2" fill="black"/>
<rect x="24.4635" y="113.42" width="28.9111" height="13.3436" rx="1" fill="white"/>
<circle cx="21.1276" cy="116.756" r="1.11196" fill="#20F035"/>
<circle cx="21.1276" cy="120.092" r="1.11196" fill="#20F035"/>
<circle cx="21.1276" cy="123.428" r="1.11196" fill="#20F035"/>
<circle cx="51.1506" cy="150.116" r="2.22393" fill="white"/>
<circle cx="43.3669" cy="150.116" r="2.22393" fill="white"/>
<circle cx="35.5831" cy="150.116" r="2.22393" fill="white"/>
<circle cx="51.1506" cy="157.899" r="2.22393" fill="white"/>
<circle cx="43.3669" cy="157.899" r="2.22393" fill="white"/>
<circle cx="35.5831" cy="157.899" r="2.22393" fill="white"/>
<rect x="26.6874" y="115.645" width="2.22393" height="8.89571" fill="#006AFF"/>
<rect x="31.1353" y="115.645" width="2.22393" height="8.89571" fill="#006AFF"/>
<rect x="35.5831" y="115.645" width="2.22393" height="8.89571" fill="#006AFF"/>
<rect x="42.2549" y="117.868" width="1.11196" height="4.44786" transform="rotate(-90 42.2549 117.868)" fill="#006AFF"/>
<rect x="48.9266" y="117.868" width="1.11196" height="2.22393" transform="rotate(-90 48.9266 117.868)" fill="#006AFF"/>
<rect x="42.2549" y="121.204" width="2.22393" height="8.89571" transform="rotate(-90 42.2549 121.204)" fill="#006AFF"/>
<rect x="42.2549" y="124.54" width="1.11196" height="2.22393" transform="rotate(-90 42.2549 124.54)" fill="#006AFF"/>
<rect x="45.5908" y="124.54" width="1.11196" height="2.22393" transform="rotate(-90 45.5908 124.54)" fill="#006AFF"/>
<rect x="48.9266" y="124.54" width="1.11196" height="2.22393" transform="rotate(-90 48.9266 124.54)" fill="#006AFF"/>
</svg>
