<svg width="125" height="118" viewBox="0 0 125 118" fill="none" xmlns="http://www.w3.org/2000/svg">
<rect x="1.47058" width="117.647" height="117.647" rx="4" fill="black"/>
<circle cx="11.7644" cy="10.2937" r="2.94118" fill="white"/>
<circle cx="108.824" cy="107.352" r="2.94118" fill="white"/>
<circle cx="11.7644" cy="107.352" r="2.94118" fill="white"/>
<circle cx="108.824" cy="10.2927" r="2.94118" fill="white"/>
<circle cx="42.6462" cy="8.82215" r="1.47059" fill="white"/>
<circle cx="38.234" cy="8.82313" r="1.47059" fill="white"/>
<circle cx="82.3514" cy="13.2343" r="1.47059" fill="white"/>
<circle cx="47.057" cy="8.82215" r="1.47059" fill="white"/>
<circle cx="47.057" cy="13.2343" r="1.47059" fill="white"/>
<circle cx="51.4686" cy="8.82215" r="1.47059" fill="white"/>
<circle cx="42.6462" cy="13.2343" r="1.47059" fill="white"/>
<circle cx="51.4686" cy="13.2343" r="1.47059" fill="white"/>
<circle cx="55.8803" cy="8.82215" r="1.47059" fill="white"/>
<circle cx="60.2935" cy="8.82215" r="1.47059" fill="white"/>
<circle cx="64.7051" cy="8.82215" r="1.47059" fill="white"/>
<circle cx="69.1167" cy="8.82215" r="1.47059" fill="white"/>
<circle cx="73.5282" cy="8.82215" r="1.47059" fill="white"/>
<circle cx="77.9398" cy="8.82215" r="1.47059" fill="white"/>
<circle cx="38.2338" cy="13.2343" r="1.47059" fill="white"/>
<circle cx="55.8803" cy="13.2343" r="1.47059" fill="white"/>
<circle cx="60.2935" cy="13.2343" r="1.47059" fill="white"/>
<circle cx="64.7051" cy="13.2343" r="1.47059" fill="white"/>
<circle cx="69.1167" cy="13.2343" r="1.47059" fill="white"/>
<circle cx="82.3514" cy="8.82215" r="1.47059" fill="white"/>
<circle cx="73.5282" cy="13.2343" r="1.47059" fill="white"/>
<circle cx="77.9398" cy="13.2343" r="1.47059" fill="white"/>
<rect x="99.0293" y="26.9707" width="25.4706" height="16.6471" rx="1.5" fill="white" stroke="black"/>
<rect x="104.412" y="32.3535" width="7.35295" height="1.47059" rx="0.735295" fill="black"/>
<rect x="104.412" y="36.7656" width="7.35295" height="1.47059" rx="0.735295" fill="black"/>
<rect x="1" y="48.0576" width="6.82354" height="20.0588" rx="1" fill="white" stroke="black" stroke-width="2"/>
<rect x="5.88293" y="36.7637" width="7.35295" height="41.1765" rx="1" fill="white"/>
<rect x="11.7659" y="36.7637" width="5.88236" height="1.47059" fill="white"/>
<rect x="11.7659" y="49.998" width="5.88236" height="1.47059" fill="white"/>
<rect x="11.7659" y="58.8232" width="5.88236" height="1.47059" fill="white"/>
<rect x="11.7659" y="72.0576" width="5.88236" height="1.47059" fill="white"/>
<rect x="11.7659" y="76.4697" width="5.88236" height="1.47059" fill="white"/>
<rect x="11.7659" y="67.6465" width="5.88236" height="1.47059" fill="white"/>
<rect x="11.7659" y="63.2344" width="5.88236" height="1.47059" fill="white"/>
<rect x="11.7659" y="54.4102" width="5.88236" height="1.47059" fill="white"/>
<rect x="11.7659" y="45.5869" width="5.88236" height="1.47059" fill="white"/>
<rect x="11.7659" y="41.1758" width="5.88236" height="1.47059" fill="white"/>
<circle cx="89.7054" cy="104.412" r="5.88236" fill="white"/>
<circle cx="89.7056" cy="89.7056" r="5.88236" fill="white"/>
<mask id="path-45-inside-1" fill="white">
<rect x="47.0605" y="44.1191" width="25" height="25" rx="2"/>
</mask>
<rect x="47.0605" y="44.1191" width="25" height="25" rx="2" fill="#3ae8b0" stroke="white" stroke-width="8" mask="url(#path-45-inside-1)"/>
<rect x="51.4722" y="42.6484" width="1.47059" height="1.47059" fill="white"/>
<rect x="66.178" y="42.6475" width="1.47059" height="1.47059" fill="white"/>
<rect x="63.2368" y="42.6475" width="1.47059" height="1.47059" fill="white"/>
<rect x="60.2958" y="42.6475" width="1.47059" height="1.47059" fill="white"/>
<rect x="57.3547" y="42.6475" width="1.47059" height="1.47059" fill="white"/>
<rect x="54.4128" y="42.6475" width="1.47059" height="1.47059" fill="white"/>
<rect x="51.4722" y="69.1191" width="1.47059" height="1.47059" fill="white"/>
<rect x="66.178" y="69.1191" width="1.47059" height="1.47059" fill="white"/>
<rect x="63.2368" y="69.1191" width="1.47059" height="1.47059" fill="white"/>
<rect x="60.2958" y="69.1191" width="1.47059" height="1.47059" fill="white"/>
<rect x="57.3547" y="69.1191" width="1.47059" height="1.47059" fill="white"/>
<rect x="54.4128" y="69.1191" width="1.47059" height="1.47059" fill="white"/>
<rect x="72.0591" y="64.7061" width="1.47059" height="1.47059" transform="rotate(-90 72.0591 64.7061)" fill="white"/>
<rect x="72.0591" y="50.002" width="1.47059" height="1.47059" transform="rotate(-90 72.0591 50.002)" fill="white"/>
<rect x="72.0591" y="52.9424" width="1.47059" height="1.47059" transform="rotate(-90 72.0591 52.9424)" fill="white"/>
<rect x="72.0591" y="55.8848" width="1.47059" height="1.47059" transform="rotate(-90 72.0591 55.8848)" fill="white"/>
<rect x="72.0591" y="58.8252" width="1.47059" height="1.47059" transform="rotate(-90 72.0591 58.8252)" fill="white"/>
<rect x="72.0591" y="61.7656" width="1.47059" height="1.47059" transform="rotate(-90 72.0591 61.7656)" fill="white"/>
<rect x="45.5901" y="64.7061" width="1.47059" height="1.47059" transform="rotate(-90 45.5901 64.7061)" fill="white"/>
<rect x="45.5901" y="50.002" width="1.47059" height="1.47059" transform="rotate(-90 45.5901 50.002)" fill="white"/>
<rect x="45.5901" y="52.9424" width="1.47059" height="1.47059" transform="rotate(-90 45.5901 52.9424)" fill="white"/>
<rect x="45.5901" y="55.8848" width="1.47059" height="1.47059" transform="rotate(-90 45.5901 55.8848)" fill="white"/>
<rect x="45.5901" y="58.8252" width="1.47059" height="1.47059" transform="rotate(-90 45.5901 58.8252)" fill="white"/>
<rect x="45.5901" y="61.7656" width="1.47059" height="1.47059" transform="rotate(-90 45.5901 61.7656)" fill="white"/>
<rect x="25" y="97.0596" width="50" height="5.88236" rx="0.5" fill="white"/>
<rect x="26.4705" y="98.5293" width="2.94118" height="2.94118" rx="0.5" fill="black"/>
<rect x="52.9402" y="98.5293" width="2.94118" height="2.94118" rx="0.5" fill="black"/>
<rect x="57.3534" y="98.5293" width="2.94118" height="2.94118" rx="0.5" fill="black"/>
<rect x="61.7659" y="98.5293" width="2.94118" height="2.94118" rx="0.5" fill="black"/>
<rect x="70.5881" y="98.5293" width="2.94118" height="2.94118" rx="0.5" fill="black"/>
<rect x="66.1766" y="98.5293" width="2.94118" height="2.94118" rx="0.5" fill="black"/>
<rect x="48.5294" y="98.5293" width="2.94118" height="2.94118" rx="0.5" fill="black"/>
<rect x="44.1169" y="98.5293" width="2.94118" height="2.94118" rx="0.5" fill="black"/>
<rect x="39.7062" y="98.5293" width="2.94118" height="2.94118" rx="0.5" fill="black"/>
<rect x="35.2937" y="98.5293" width="2.94118" height="2.94118" rx="0.5" fill="black"/>
<rect x="30.8829" y="98.5293" width="2.94118" height="2.94118" rx="0.5" fill="black"/>
<rect x="25" y="104.412" width="50" height="5.88236" rx="0.5" fill="white"/>
<rect x="26.4705" y="105.883" width="2.94118" height="2.94118" rx="0.5" fill="black"/>
<rect x="52.9402" y="105.883" width="2.94118" height="2.94118" rx="0.5" fill="black"/>
<rect x="57.3534" y="105.883" width="2.94118" height="2.94118" rx="0.5" fill="black"/>
<rect x="61.7659" y="105.883" width="2.94118" height="2.94118" rx="0.5" fill="black"/>
<rect x="70.5881" y="105.883" width="2.94118" height="2.94118" rx="0.5" fill="black"/>
<rect x="66.1766" y="105.883" width="2.94118" height="2.94118" rx="0.5" fill="black"/>
<rect x="48.5294" y="105.883" width="2.94118" height="2.94118" rx="0.5" fill="black"/>
<rect x="44.1169" y="105.883" width="2.94118" height="2.94118" rx="0.5" fill="black"/>
<rect x="39.7062" y="105.883" width="2.94118" height="2.94118" rx="0.5" fill="black"/>
<rect x="35.2937" y="105.883" width="2.94118" height="2.94118" rx="0.5" fill="black"/>
<rect x="30.8829" y="105.883" width="2.94118" height="2.94118" rx="0.5" fill="black"/>
</svg>
