<svg width="88" height="36" viewBox="0 0 88 36" fill="none" xmlns="http://www.w3.org/2000/svg">
<rect width="4" height="4" rx="1" fill="#3AE8B0"/>
<rect x="8" width="4" height="4" rx="1" fill="#3AE8B0"/>
<rect x="16" width="4" height="4" rx="1" fill="#3AE8B0"/>
<rect x="24" width="4" height="4" rx="1" fill="#3AE8B0"/>
<rect x="32" width="4" height="4" rx="1" fill="#3AE8B0"/>
<rect y="8" width="4" height="4" rx="1" fill="#3AE8B0"/>
<rect x="8" y="8" width="4" height="4" rx="1" fill="#3AE8B0"/>
<rect x="16" y="8" width="4" height="4" rx="1" fill="#3AE8B0"/>
<rect x="24" y="8" width="4" height="4" rx="1" fill="#3AE8B0"/>
<rect x="32" y="8" width="4" height="4" rx="1" fill="#3AE8B0"/>
<rect y="16" width="4" height="4" rx="1" fill="#3AE8B0"/>
<rect x="8" y="16" width="4" height="4" rx="1" fill="#3AE8B0"/>
<rect x="16" y="16" width="4" height="4" rx="1" fill="#3AE8B0"/>
<rect x="24" y="16" width="4" height="4" rx="1" fill="#3AE8B0"/>
<rect x="32" y="16" width="4" height="4" rx="1" fill="#3AE8B0"/>
<rect y="24" width="4" height="4" rx="1" fill="#3AE8B0"/>
<rect x="8" y="24" width="4" height="4" rx="1" fill="#3AE8B0"/>
<rect x="16" y="24" width="4" height="4" rx="1" fill="#3AE8B0"/>
<rect x="24" y="24" width="4" height="4" rx="1" fill="#3AE8B0"/>
<rect x="32" y="24" width="4" height="4" rx="1" fill="#3AE8B0"/>
<rect y="32" width="4" height="4" rx="1" fill="#3AE8B0"/>
<rect x="8" y="32" width="4" height="4" rx="1" fill="#3AE8B0"/>
<rect x="16" y="32" width="4" height="4" rx="1" fill="#3AE8B0"/>
<rect x="24" y="32" width="4" height="4" rx="1" fill="#3AE8B0"/>
<rect x="32" y="32" width="4" height="4" rx="1" fill="#3AE8B0"/>
<rect x="52" width="4" height="4" rx="1" fill="#3AE8B0"/>
<rect x="60" width="4" height="4" rx="1" fill="#3AE8B0"/>
<rect x="68" width="4" height="4" rx="1" fill="#3AE8B0"/>
<rect x="76" width="4" height="4" rx="1" fill="#3AE8B0"/>
<rect x="84" width="4" height="4" rx="1" fill="#3AE8B0"/>
<rect x="52" y="8" width="4" height="4" rx="1" fill="#3AE8B0"/>
<rect x="60" y="8" width="4" height="4" rx="1" fill="#3AE8B0"/>
<rect x="68" y="8" width="4" height="4" rx="1" fill="#3AE8B0"/>
<rect x="76" y="8" width="4" height="4" rx="1" fill="#3AE8B0"/>
<rect x="84" y="8" width="4" height="4" rx="1" fill="#3AE8B0"/>
<rect x="52" y="16" width="4" height="4" rx="1" fill="#3AE8B0"/>
<rect x="60" y="16" width="4" height="4" rx="1" fill="#3AE8B0"/>
<rect x="68" y="16" width="4" height="4" rx="1" fill="#3AE8B0"/>
<rect x="76" y="16" width="4" height="4" rx="1" fill="#3AE8B0"/>
<rect x="84" y="16" width="4" height="4" rx="1" fill="#3AE8B0"/>
<rect x="52" y="24" width="4" height="4" rx="1" fill="#3AE8B0"/>
<rect x="60" y="24" width="4" height="4" rx="1" fill="#3AE8B0"/>
<rect x="68" y="24" width="4" height="4" rx="1" fill="#3AE8B0"/>
<rect x="76" y="24" width="4" height="4" rx="1" fill="#3AE8B0"/>
<rect x="84" y="24" width="4" height="4" rx="1" fill="#3AE8B0"/>
<rect x="52" y="32" width="4" height="4" rx="1" fill="#3AE8B0"/>
<rect x="60" y="32" width="4" height="4" rx="1" fill="#3AE8B0"/>
<rect x="68" y="32" width="4" height="4" rx="1" fill="#3AE8B0"/>
<rect x="76" y="32" width="4" height="4" rx="1" fill="#3AE8B0"/>
<rect x="84" y="32" width="4" height="4" rx="1" fill="#3AE8B0"/>
</svg>
