<svg width="180" height="181" viewBox="0 0 180 181" fill="none" xmlns="http://www.w3.org/2000/svg">
<path d="M93.4936 57.9793L149.335 112.887C152.845 116.338 150.401 122.309 145.479 122.309H33.796C28.8737 122.309 26.43 116.338 29.9399 112.887L85.7813 57.9793C87.9214 55.8749 91.3535 55.8749 93.4936 57.9793Z" fill="black" stroke="white"/>
<path d="M38.9905 122.106H139.877V174.457C139.877 177.495 137.415 179.957 134.377 179.957H44.4905C41.453 179.957 38.9905 177.495 38.9905 174.457V122.106Z" fill="black" stroke="white"/>
<rect x="39.6226" y="110.762" width="99.65" height="19.4232" fill="black"/>
<path d="M61.9589 138.933V138.933C63.7573 138.933 65.2152 140.391 65.2152 142.189V180.013H61.9589V138.933Z" fill="white"/>
<rect width="8.58405" height="3.27267" transform="matrix(0.733381 0.679818 -0.673065 0.739583 58.4367 134.034)" fill="white"/>
<ellipse cx="55.0392" cy="132.771" rx="4.07038" ry="4.10801" fill="#6FCCFF"/>
<path d="M74.9841 118.393V118.393C76.7825 118.393 78.2404 119.85 78.2404 121.649V180.013H74.9841V118.393Z" fill="white"/>
<path d="M88.0093 85.5283H91.2656V180.013H88.0093V85.5283Z" fill="white"/>
<ellipse cx="89.6375" cy="82.6529" rx="4.07038" ry="4.10801" fill="#6FCCFF"/>
<rect width="8.58196" height="3.27347" transform="matrix(0.751226 0.660045 -0.653171 0.75721 71.0167 113.462)" fill="white"/>
<ellipse cx="67.6575" cy="112.641" rx="4.07038" ry="4.10801" fill="#6FCCFF"/>
<path d="M104.291 138.933V138.933C102.492 138.933 101.035 140.391 101.035 142.189V180.013H104.291V138.933Z" fill="white"/>
<rect width="8.58526" height="3.27221" transform="matrix(-0.722905 0.690947 0.684276 0.729223 107.648 134.003)" fill="white"/>
<ellipse rx="4.07038" ry="4.10801" transform="matrix(-1 0 0 1 111.211 133.181)" fill="#6FCCFF"/>
<path d="M117.316 155.365V155.365C115.518 155.365 114.06 156.823 114.06 158.621V180.013H117.316V155.365Z" fill="white"/>
<rect width="8.43325" height="3.27524" transform="matrix(-0.789673 0.613528 0.606479 0.7951 121.533 150.846)" fill="white"/>
<ellipse rx="4.07038" ry="4.10801" transform="matrix(-1 0 0 1 124.643 150.025)" fill="#6FCCFF"/>
<ellipse cx="13.0189" cy="83.9122" rx="13.0189" ry="13.1392" fill="white"/>
<path d="M10.0854 29.6101C10.0854 27.7344 11.606 26.2139 13.4817 26.2139V26.2139C15.3574 26.2139 16.8779 27.7344 16.8779 29.6101V76.4857H10.0854V29.6101Z" fill="white"/>
<path d="M11.8355 33.8247C11.8355 32.8698 12.6096 32.0957 13.5645 32.0957V32.0957C14.5194 32.0957 15.2935 32.8698 15.2935 33.8247V78.3381H11.8355V33.8247Z" fill="white"/>
<ellipse cx="13.0189" cy="83.9127" rx="11.8868" ry="11.9967" fill="black"/>
<path d="M11.3207 29.6431C11.3207 28.3926 12.3344 27.3789 13.5849 27.3789V27.3789C14.8353 27.3789 15.849 28.3926 15.849 29.6431V77.6279H11.3207V29.6431Z" fill="black"/>
<rect width="13.3093" height="2.28508" transform="matrix(1 0 0 -1 16.4191 54.5488)" fill="white"/>
<rect width="5.85806" height="2.50653" transform="matrix(0.869626 0.493711 -0.506316 0.862348 29.7284 52.2637)" fill="white"/>
<ellipse rx="3.48572" ry="3.42762" transform="matrix(1 0 0 -1 34.8228 57.317)" fill="#6FCCFF"/>
<rect x="16.8779" y="38.0376" width="14.2029" height="2.28508" fill="white"/>
<rect width="5.74468" height="2.49019" transform="matrix(0.864022 -0.503455 -0.496553 -0.868006 31.0807 40.3228)" fill="white"/>
<ellipse cx="36.2264" cy="35.5238" rx="3.39623" ry="3.42762" fill="#6FCCFF"/>
<rect x="16.8779" y="45.0659" width="20.8303" height="2.28508" fill="white"/>
<ellipse cx="39.6315" cy="46.2084" rx="3.40968" ry="3.42762" fill="#6FCCFF"/>
<rect x="59.9636" y="14.6006" width="41.3722" height="8.14033" rx="4.07016" fill="black" stroke="white"/>
<path d="M121.282 18.6709C121.282 25.442 115.845 30.9233 109.147 30.9233C102.449 30.9233 97.011 25.442 97.011 18.6709C97.011 11.8997 102.449 6.41846 109.147 6.41846C115.845 6.41846 121.282 11.8997 121.282 18.6709Z" fill="black" stroke="white"/>
<rect width="8.23471" height="2.0373" transform="matrix(0.853349 -0.52318 0.515209 0.855957 118.325 10.8008)" fill="white"/>
<ellipse rx="3.40098" ry="3.42291" transform="matrix(0.920262 -0.391303 0.385235 0.922819 128.213 5.91824)" fill="#6FCCFF"/>
<rect x="121.387" y="17.3354" width="10.583" height="2.05401" fill="white"/>
<ellipse cx="134.959" cy="18.3627" rx="3.39623" ry="3.42762" fill="#6FCCFF"/>
<rect width="9.46813" height="2.26881" transform="matrix(0.657386 0.750919 -0.747859 0.666867 119.849 24.377)" fill="white"/>
<ellipse rx="3.42068" ry="3.40322" transform="matrix(0.657386 0.750919 -0.747859 0.666867 126.769 34.0525)" fill="#6FCCFF"/>
<rect x="67.2678" y="22.6396" width="3.5283" height="14.2892" fill="black" stroke="white"/>
<rect x="67.8998" y="20.7837" width="2.26415" height="3.55214" fill="black"/>
<rect x="76.6213" y="22.6396" width="3.5283" height="10.6135" fill="black" stroke="white"/>
<rect x="77.2534" y="21.0825" width="2.26415" height="3.55214" fill="black"/>
<rect x="96.0554" y="15.2686" width="4.39668" height="6.77179" fill="black"/>
<rect x="161.079" y="73.5767" width="2.26415" height="19.6414" fill="white"/>
<rect x="156.214" y="73.5767" width="2.26415" height="8.18393" fill="white"/>
<path d="M156.769 80.2617L158.478 81.7603L149.744 91.9064L148.035 90.4078L156.769 80.2617Z" fill="white"/>
<path d="M174.892 92.3301L176.008 90.3418L167.06 85.2275L165.945 87.2158L174.892 92.3301Z" fill="white"/>
<rect x="165.945" y="73.5767" width="2.26415" height="13.6399" fill="white"/>
<ellipse cx="162.211" cy="94.5929" rx="3.42762" ry="3.39623" transform="rotate(-90 162.211 94.5929)" fill="#6FCCFF"/>
<ellipse cx="176.604" cy="91.9064" rx="3.42762" ry="3.39623" transform="rotate(-90 176.604 91.9064)" fill="#6FCCFF"/>
<ellipse cx="149.86" cy="90.4718" rx="3.42762" ry="3.39623" transform="rotate(-90 149.86 90.4718)" fill="#6FCCFF"/>
<rect x="155.823" y="30.2197" width="2.39623" height="15.3679" rx="1.19811" fill="white" stroke="white"/>
<rect x="166.686" y="30.2192" width="2.39623" height="15.3679" rx="1.19811" fill="white" stroke="white"/>
<rect x="145.406" y="42.709" width="34.0943" height="21.8508" rx="5.5" fill="black" stroke="white"/>
<rect x="153.33" y="64.417" width="18.2453" height="10.4254" rx="0.5" fill="black" stroke="white"/>
<rect x="153.963" y="59.3472" width="16.9668" height="12.568" fill="black"/>
</svg>
