<svg width="160" height="80" viewBox="0 0 160 80" fill="none" xmlns="http://www.w3.org/2000/svg">
<path d="M34.2305 16.7739H125.769C126.753 16.7739 127.577 17.6014 127.577 18.6555V45.6466C127.577 46.7007 126.753 47.5282 125.769 47.5282H34.2305C33.2469 47.5282 32.4229 46.7007 32.4229 45.6466V18.6555C32.4229 17.6014 33.2469 16.7739 34.2305 16.7739Z" fill="black" stroke="white"/>
<path d="M37.9615 3.19814C37.9615 3.61765 37.8534 3.88285 37.6941 4.06553C37.5282 4.2556 37.2574 4.41308 36.8304 4.51849C35.9551 4.7346 34.6313 4.68503 32.8834 4.49344C32.0061 4.39728 31.0347 4.26687 29.9854 4.126C26.9288 3.71565 23.2109 3.21653 19.2308 3.21653C15.2507 3.21653 11.5328 3.71565 8.47612 4.126C7.4268 4.26687 6.45541 4.39728 5.57809 4.49344C3.83022 4.68503 2.50647 4.7346 1.63109 4.51849C1.20413 4.41308 0.933293 4.2556 0.767482 4.06553C0.608116 3.88285 0.5 3.61765 0.5 3.19814C0.5 2.77893 0.608048 2.50979 0.76968 2.32198C0.937543 2.12693 1.2105 1.96474 1.63756 1.85324C2.51292 1.6247 3.83658 1.65679 5.58331 1.8297C6.5103 1.92146 7.54292 2.05145 8.66184 2.19232C11.6826 2.57261 15.3324 3.03209 19.2308 3.03209C23.1291 3.03209 26.7789 2.57261 29.7997 2.19232C30.9186 2.05145 31.9512 1.92146 32.8782 1.8297C34.625 1.65679 35.9486 1.6247 36.824 1.85324C37.251 1.96474 37.524 2.12693 37.6919 2.32198C37.8535 2.50979 37.9615 2.77893 37.9615 3.19814Z" fill="white" stroke="white"/>
<path d="M22.7986 4.28206C22.7986 4.81632 22.6975 5.13241 22.5687 5.32648C22.4463 5.51079 22.2636 5.63846 21.9789 5.72482C21.6819 5.81489 21.3016 5.85126 20.8237 5.86025C20.5405 5.86558 20.2527 5.86157 19.9434 5.85725C19.7193 5.85413 19.4839 5.85085 19.2308 5.85085C18.9795 5.85085 18.7438 5.85409 18.5178 5.85719C18.2023 5.86153 17.9057 5.8656 17.6121 5.86025C17.1189 5.85125 16.715 5.81492 16.3941 5.72273C16.0824 5.63318 15.8795 5.49987 15.7457 5.31248C15.6082 5.11984 15.5 4.80876 15.5 4.28206C15.5 2.17834 17.1486 0.5 19.1493 0.5C21.15 0.5 22.7986 2.17834 22.7986 4.28206Z" fill="black" stroke="white"/>
<path d="M13.9614 10.7175C13.9614 9.66328 14.7855 8.83594 15.7691 8.83594H22.6922C23.6758 8.83594 24.4999 9.66328 24.4999 10.7175V53.5857C24.4999 54.64 23.6758 55.4673 22.6922 55.4673H15.7691C14.7855 55.4673 13.9614 54.64 13.9614 53.5857V10.7175Z" fill="black" stroke="white"/>
<path d="M135.5 10.7175C135.5 9.66326 136.324 8.83594 137.308 8.83594H144.231C145.215 8.83594 146.038 9.66326 146.038 10.7175V53.5857C146.038 54.64 145.215 55.4673 144.231 55.4673H137.308C136.324 55.4673 135.5 54.64 135.5 53.5857V10.7175Z" fill="black" stroke="white"/>
<path d="M81.9233 50.4097H78.0771V53.1882H81.9233V50.4097Z" fill="white"/>
<path d="M79.9999 66.2871C83.611 66.2871 86.5383 63.266 86.5383 59.5393C86.5383 55.8126 83.611 52.7915 79.9999 52.7915C76.3888 52.7915 73.4614 55.8126 73.4614 59.5393C73.4614 63.266 76.3888 66.2871 79.9999 66.2871Z" fill="black" stroke="white"/>
<path d="M80.0002 61.7227C81.1684 61.7227 82.1155 60.7452 82.1155 59.5395C82.1155 58.3339 81.1684 57.3564 80.0002 57.3564C78.8319 57.3564 77.8848 58.3339 77.8848 59.5395C77.8848 60.7452 78.8319 61.7227 80.0002 61.7227Z" fill="#6FCCFF"/>
<path d="M80 63.5084C82.1241 63.5084 83.8461 61.7313 83.8461 59.5391C83.8461 57.3469 82.1241 55.5698 80 55.5698C77.8758 55.5698 76.1538 57.3469 76.1538 59.5391C76.1538 61.7313 77.8758 63.5084 80 63.5084Z" stroke="white"/>
<path d="M40.0002 26.5938C41.0623 26.5938 41.9233 25.7052 41.9233 24.6092C41.9233 23.5131 41.0623 22.6245 40.0002 22.6245C38.9381 22.6245 38.0771 23.5131 38.0771 24.6092C38.0771 25.7052 38.9381 26.5938 40.0002 26.5938Z" fill="#6FCCFF"/>
<path d="M72.6923 30.1664C72.6923 29.728 72.3479 29.3726 71.923 29.3726C71.4982 29.3726 71.1538 29.728 71.1538 30.1664V38.105C71.1538 38.5434 71.4982 38.8988 71.923 38.8988C72.3479 38.8988 72.6923 38.5434 72.6923 38.105V30.1664Z" fill="white"/>
<path d="M78.077 30.1664C78.077 29.728 77.7326 29.3726 77.3078 29.3726C76.883 29.3726 76.5386 29.728 76.5386 30.1664V38.105C76.5386 38.5434 76.883 38.8988 77.3078 38.8988C77.7326 38.8988 78.077 38.5434 78.077 38.105V30.1664Z" fill="white"/>
<path d="M83.4613 30.1664C83.4613 29.728 83.1169 29.3726 82.6921 29.3726C82.2672 29.3726 81.9229 29.728 81.9229 30.1664V38.105C81.9229 38.5434 82.2672 38.8988 82.6921 38.8988C83.1169 38.8988 83.4613 38.5434 83.4613 38.105V30.1664Z" fill="white"/>
<path d="M88.8461 30.1664C88.8461 29.728 88.5017 29.3726 88.0768 29.3726C87.652 29.3726 87.3076 29.728 87.3076 30.1664V38.105C87.3076 38.5434 87.652 38.8988 88.0768 38.8988C88.5017 38.8988 88.8461 38.5434 88.8461 38.105V30.1664Z" fill="white"/>
<path d="M87.1922 15.0831C87.1922 15.6089 87.1392 15.9385 87.0668 16.1348C87.0019 16.3108 86.9427 16.3301 86.9292 16.3345C86.9288 16.3346 86.9285 16.3347 86.9281 16.3348C86.885 16.3494 86.7721 16.3604 86.5322 16.2828C86.3007 16.208 86.0187 16.0737 85.6755 15.8897C85.4826 15.7862 85.2711 15.6671 85.045 15.5398C84.4979 15.2318 83.8649 14.8754 83.2005 14.5744C82.2477 14.1427 81.1617 13.7892 79.9999 13.7892C78.8381 13.7892 77.7522 14.1427 76.7994 14.5744C76.135 14.8754 75.5019 15.2318 74.9548 15.5398C74.7287 15.6671 74.5173 15.7862 74.3243 15.8897C73.9811 16.0737 73.6991 16.208 73.4676 16.2828C73.2277 16.3604 73.1148 16.3494 73.0717 16.3348C73.0714 16.3347 73.071 16.3346 73.0707 16.3345C73.0571 16.3301 72.9979 16.3108 72.933 16.1348C72.8607 15.9385 72.8076 15.6089 72.8076 15.0831C72.8076 10.9599 76.0425 7.64453 79.9999 7.64453C83.9574 7.64453 87.1922 10.9599 87.1922 15.0831Z" fill="black" stroke="white"/>
<path d="M20.6878 5.95361H17.6108V8.73211H20.6878V5.95361Z" fill="white"/>
<path d="M159.5 3.19814C159.5 3.61764 159.392 3.88285 159.233 4.06553C159.067 4.2556 158.796 4.41308 158.369 4.51849C157.494 4.7346 156.17 4.68503 154.422 4.49344C153.545 4.39728 152.573 4.26687 151.524 4.126C148.467 3.71565 144.749 3.21653 140.769 3.21653C136.789 3.21653 133.071 3.71565 130.015 4.126C128.965 4.26687 127.994 4.39728 127.117 4.49344C125.369 4.68503 124.045 4.7346 123.17 4.51849C122.743 4.41308 122.472 4.2556 122.306 4.06553C122.147 3.88285 122.039 3.61764 122.039 3.19814C122.039 2.77893 122.147 2.50979 122.308 2.32198C122.476 2.12693 122.749 1.96474 123.176 1.85324C124.052 1.6247 125.375 1.65679 127.122 1.8297C128.049 1.92146 129.082 2.05146 130.2 2.19232C133.221 2.57261 136.871 3.03209 140.769 3.03209C144.668 3.03209 148.317 2.57261 151.338 2.19232C152.457 2.05146 153.49 1.92146 154.417 1.8297C156.164 1.65679 157.487 1.6247 158.363 1.85324C158.79 1.96474 159.063 2.12693 159.23 2.32198C159.392 2.50979 159.5 2.77893 159.5 3.19814Z" fill="white" stroke="white"/>
<path d="M144.337 4.28206C144.337 4.81632 144.236 5.13242 144.107 5.32648C143.985 5.51079 143.802 5.63847 143.517 5.72482C143.22 5.81489 142.84 5.85126 142.362 5.86025C142.079 5.86558 141.791 5.86157 141.482 5.85725C141.258 5.85413 141.022 5.85085 140.769 5.85085C140.518 5.85085 140.282 5.85409 140.056 5.85719C139.741 5.86153 139.444 5.8656 139.151 5.86025C138.658 5.85125 138.254 5.81492 137.933 5.72273C137.621 5.63318 137.418 5.49987 137.284 5.31247C137.147 5.11984 137.039 4.80875 137.039 4.28206C137.039 2.17833 138.687 0.5 140.688 0.5C142.688 0.5 144.337 2.17833 144.337 4.28206Z" fill="black" stroke="white"/>
<path d="M142.188 5.9126H139.188V8.69109H142.188V5.9126Z" fill="white"/>
<path d="M83.029 10.7173H76.9713C76.7323 10.7173 76.5386 10.9542 76.5386 11.2465V11.7758C76.5386 12.068 76.7323 12.305 76.9713 12.305H83.029C83.2679 12.305 83.4617 12.068 83.4617 11.7758V11.2465C83.4617 10.9542 83.2679 10.7173 83.029 10.7173Z" fill="#6FCCFF"/>
<path d="M24.4971 30.2695H31.8074V34.0327H24.4971V30.2695Z" fill="black" stroke="white"/>
<path d="M128.19 29.8726H135.5V33.6357H128.19V29.8726Z" fill="black" stroke="white"/>
<path d="M54.5092 47.5171H58.91L47.4594 66.0106L47.3845 66.1316V66.2738V79.3549H42.8076V66.4161L54.5092 47.5171Z" fill="black" stroke="white"/>
<path d="M105.491 47.6621H101.09L112.541 66.1556L112.615 66.2766V66.4189V79.4999H117.192V66.5611L105.491 47.6621Z" fill="black" stroke="white"/>
<path d="M15.7692 10.7168C15.7692 10.4975 15.597 10.3198 15.3846 10.3198C15.1722 10.3198 15 10.4975 15 10.7168V14.686C15 14.9053 15.1722 15.083 15.3846 15.083C15.597 15.083 15.7692 14.9053 15.7692 14.686V10.7168Z" fill="white"/>
<path d="M17.3078 10.7168C17.3078 10.4975 17.1356 10.3198 16.9232 10.3198C16.7108 10.3198 16.5386 10.4975 16.5386 10.7168V14.686C16.5386 14.9053 16.7108 15.083 16.9232 15.083C17.1356 15.083 17.3078 14.9053 17.3078 14.686V10.7168Z" fill="white"/>
<path d="M21.923 10.7168C21.923 10.4975 21.7508 10.3198 21.5384 10.3198C21.326 10.3198 21.1538 10.4975 21.1538 10.7168V14.686C21.1538 14.9053 21.326 15.083 21.5384 15.083C21.7508 15.083 21.923 14.9053 21.923 14.686V10.7168Z" fill="white"/>
<path d="M23.4616 10.7168C23.4616 10.4975 23.2894 10.3198 23.077 10.3198C22.8646 10.3198 22.6924 10.4975 22.6924 10.7168V14.686C22.6924 14.9053 22.8646 15.083 23.077 15.083C23.2894 15.083 23.4616 14.9053 23.4616 14.686V10.7168Z" fill="white"/>
<path d="M21.923 16.2744C21.923 16.0552 21.7508 15.8774 21.5384 15.8774C21.326 15.8774 21.1538 16.0552 21.1538 16.2744V20.2436C21.1538 20.4629 21.326 20.6406 21.5384 20.6406C21.7508 20.6406 21.923 20.4629 21.923 20.2436V16.2744Z" fill="white"/>
<path d="M23.4616 16.2744C23.4616 16.0552 23.2894 15.8774 23.077 15.8774C22.8646 15.8774 22.6924 16.0552 22.6924 16.2744V20.2436C22.6924 20.4629 22.8646 20.6406 23.077 20.6406C23.2894 20.6406 23.4616 20.4629 23.4616 20.2436V16.2744Z" fill="white"/>
<path d="M15.7692 16.2744C15.7692 16.0552 15.597 15.8774 15.3846 15.8774C15.1722 15.8774 15 16.0552 15 16.2744V20.2436C15 20.4629 15.1722 20.6406 15.3846 20.6406C15.597 20.6406 15.7692 20.4629 15.7692 20.2436V16.2744Z" fill="white"/>
<path d="M17.3078 16.2744C17.3078 16.0552 17.1356 15.8774 16.9232 15.8774C16.7108 15.8774 16.5386 16.0552 16.5386 16.2744V20.2436C16.5386 20.4629 16.7108 20.6406 16.9232 20.6406C17.1356 20.6406 17.3078 20.4629 17.3078 20.2436V16.2744Z" fill="white"/>
<path d="M137.308 10.7168C137.308 10.4975 137.136 10.3198 136.923 10.3198C136.711 10.3198 136.539 10.4975 136.539 10.7168V14.686C136.539 14.9053 136.711 15.083 136.923 15.083C137.136 15.083 137.308 14.9053 137.308 14.686V10.7168Z" fill="white"/>
<path d="M138.846 10.7168C138.846 10.4975 138.674 10.3198 138.462 10.3198C138.249 10.3198 138.077 10.4975 138.077 10.7168V14.686C138.077 14.9053 138.249 15.083 138.462 15.083C138.674 15.083 138.846 14.9053 138.846 14.686V10.7168Z" fill="white"/>
<path d="M143.462 10.7168C143.462 10.4975 143.289 10.3198 143.077 10.3198C142.865 10.3198 142.692 10.4975 142.692 10.7168V14.686C142.692 14.9053 142.865 15.083 143.077 15.083C143.289 15.083 143.462 14.9053 143.462 14.686V10.7168Z" fill="white"/>
<path d="M145 10.7168C145 10.4975 144.828 10.3198 144.616 10.3198C144.403 10.3198 144.231 10.4975 144.231 10.7168V14.686C144.231 14.9053 144.403 15.083 144.616 15.083C144.828 15.083 145 14.9053 145 14.686V10.7168Z" fill="white"/>
<path d="M143.462 16.2744C143.462 16.0552 143.289 15.8774 143.077 15.8774C142.865 15.8774 142.692 16.0552 142.692 16.2744V20.2436C142.692 20.4629 142.865 20.6406 143.077 20.6406C143.289 20.6406 143.462 20.4629 143.462 20.2436V16.2744Z" fill="white"/>
<path d="M145 16.2744C145 16.0552 144.828 15.8774 144.616 15.8774C144.403 15.8774 144.231 16.0552 144.231 16.2744V20.2436C144.231 20.4629 144.403 20.6406 144.616 20.6406C144.828 20.6406 145 20.4629 145 20.2436V16.2744Z" fill="white"/>
<path d="M137.308 16.2744C137.308 16.0552 137.136 15.8774 136.923 15.8774C136.711 15.8774 136.539 16.0552 136.539 16.2744V20.2436C136.539 20.4629 136.711 20.6406 136.923 20.6406C137.136 20.6406 137.308 20.4629 137.308 20.2436V16.2744Z" fill="white"/>
<path d="M138.846 16.2744C138.846 16.0552 138.674 15.8774 138.462 15.8774C138.249 15.8774 138.077 16.0552 138.077 16.2744V20.2436C138.077 20.4629 138.249 20.6406 138.462 20.6406C138.674 20.6406 138.846 20.4629 138.846 20.2436V16.2744Z" fill="white"/>
<path d="M75.1152 47.6621H84.8845V48.4098C84.8845 49.2382 84.2129 49.9098 83.3845 49.9098H76.6152C75.7868 49.9098 75.1152 49.2382 75.1152 48.4098V47.6621Z" fill="black" stroke="white"/>
<rect x="76.1216" y="46.8037" width="7.75814" height="1.05393" fill="black" stroke="black"/>
<path d="M72.1538 14.3921H87.8461C88.1223 14.3921 88.3461 14.6159 88.3461 14.8921V16.1706H71.6538V14.8921C71.6538 14.6159 71.8777 14.3921 72.1538 14.3921Z" fill="black" stroke="white"/>
<rect x="30.6465" y="30.8047" width="3.89624" height="2.69361" fill="black"/>
<rect x="125.682" y="30.4082" width="4.01614" height="2.69291" fill="black"/>
<rect x="72.1514" y="14.9736" width="15.6908" height="2.09481" fill="black"/>
<path d="M73.5538 13.2207H86.4413L86.9766 15.5983H73.0513L73.5538 13.2207Z" fill="black"/>
</svg>
