<svg width="160" height="128" viewBox="0 0 160 128" fill="none" xmlns="http://www.w3.org/2000/svg">
<path d="M101.353 63.3452V63.8452H101.853H154C157.038 63.8452 159.5 66.3077 159.5 69.3452L159.5 124.076C159.5 125.457 158.381 126.576 157 126.576L2.99994 126.576C1.61923 126.576 0.499939 125.457 0.499939 124.076V93.686C0.499939 92.3053 1.61923 91.186 2.99994 91.186H66.6185H67.1185V90.686V57.4077C67.1185 54.3701 69.5809 51.9077 72.6185 51.9077H95.8531C98.8907 51.9077 101.353 54.3701 101.353 57.4077V63.3452Z" fill="black" stroke="white"/>
<rect x="72.9722" y="76.8228" width="4.81348" height="5.77617" rx="2.40674" fill="white"/>
<rect x="79.7111" y="76.8228" width="4.81348" height="5.77617" rx="2.40674" fill="white"/>
<rect x="72.9723" y="84.5244" width="4.81348" height="5.77617" rx="2.40674" fill="white"/>
<rect x="79.7111" y="84.5244" width="4.81348" height="5.77617" rx="2.40674" fill="white"/>
<rect x="86.8351" y="76.8228" width="4.81348" height="5.77617" rx="2.40674" fill="white"/>
<rect x="93.574" y="76.8228" width="4.81348" height="5.77617" rx="2.40674" fill="white"/>
<rect x="86.8351" y="84.5244" width="4.81348" height="5.77617" rx="2.40674" fill="white"/>
<rect x="93.574" y="84.5244" width="4.81348" height="5.77617" rx="2.40674" fill="white"/>
<rect x="100.698" y="76.8228" width="4.81348" height="5.77617" rx="2.40674" fill="white"/>
<rect x="107.437" y="76.8228" width="4.81348" height="5.77617" rx="2.40674" fill="white"/>
<rect x="100.698" y="84.5244" width="4.81348" height="5.77617" rx="2.40674" fill="white"/>
<rect x="107.437" y="84.5244" width="4.81348" height="5.77617" rx="2.40674" fill="white"/>
<rect x="114.561" y="76.8228" width="4.81348" height="5.77617" rx="2.40674" fill="white"/>
<rect x="121.3" y="76.8228" width="4.81348" height="5.77617" rx="2.40674" fill="white"/>
<rect x="114.561" y="84.5244" width="4.81348" height="5.77617" rx="2.40674" fill="white"/>
<rect x="121.3" y="84.5244" width="4.81348" height="5.77617" rx="2.40674" fill="white"/>
<rect x="128.424" y="76.8228" width="4.81348" height="5.77617" rx="2.40674" fill="white"/>
<rect x="135.162" y="76.8228" width="4.81348" height="5.77617" rx="2.40674" fill="white"/>
<rect x="128.424" y="84.5244" width="4.81348" height="5.77617" rx="2.40674" fill="white"/>
<rect x="135.162" y="84.5244" width="4.81348" height="5.77617" rx="2.40674" fill="white"/>
<rect x="142.286" y="76.8228" width="4.81348" height="5.77617" rx="2.40674" fill="white"/>
<rect x="149.025" y="76.8228" width="4.81348" height="5.77617" rx="2.40674" fill="white"/>
<rect x="142.286" y="84.5244" width="4.81348" height="5.77617" rx="2.40674" fill="white"/>
<rect x="149.025" y="84.5244" width="4.81348" height="5.77617" rx="2.40674" fill="white"/>
<mask id="path-26-outside-1" maskUnits="userSpaceOnUse" x="19.6016" y="41.5513" width="48" height="20" fill="black">
<rect fill="white" x="19.6016" y="41.5513" width="48" height="20"/>
<path fill-rule="evenodd" clip-rule="evenodd" d="M20.6016 44.0916C20.6016 43.2409 21.2912 42.5513 22.1419 42.5513H57.8213C58.672 42.5513 59.3616 43.2409 59.3616 44.0916H59.302V59.6871C58.2386 59.6871 57.3766 58.825 57.3766 57.7617V44.0916H47.3645V48.677H45.4391V44.0916H20.6016ZM20.6016 44.0967H22.527V49.3778H20.6016V44.0967ZM65.8483 57.7618H59.302V59.6872H65.8483V57.7618Z"/>
</mask>
<path fill-rule="evenodd" clip-rule="evenodd" d="M20.6016 44.0916C20.6016 43.2409 21.2912 42.5513 22.1419 42.5513H57.8213C58.672 42.5513 59.3616 43.2409 59.3616 44.0916H59.302V59.6871C58.2386 59.6871 57.3766 58.825 57.3766 57.7617V44.0916H47.3645V48.677H45.4391V44.0916H20.6016ZM20.6016 44.0967H22.527V49.3778H20.6016V44.0967ZM65.8483 57.7618H59.302V59.6872H65.8483V57.7618Z" fill="#6FCCFF"/>
<path d="M20.6016 44.0916H19.6016V45.0916H20.6016V44.0916ZM59.3616 44.0916V45.0916H60.3616V44.0916H59.3616ZM59.302 44.0916V43.0916H58.302V44.0916H59.302ZM59.302 59.6871V60.6871H60.302V59.6871H59.302ZM57.3766 44.0916H58.3766V43.0916H57.3766V44.0916ZM47.3645 44.0916V43.0916H46.3645V44.0916H47.3645ZM47.3645 48.677V49.677H48.3645V48.677H47.3645ZM45.4391 48.677H44.4391V49.677H45.4391V48.677ZM45.4391 44.0916H46.4391V43.0916H45.4391V44.0916ZM22.527 44.0967H23.527V43.0967H22.527V44.0967ZM20.6016 44.0967V43.0967H19.6016V44.0967H20.6016ZM22.527 49.3778V50.3778H23.527V49.3778H22.527ZM20.6016 49.3778H19.6016V50.3778H20.6016V49.3778ZM59.302 57.7618V56.7618H58.302V57.7618H59.302ZM65.8483 57.7618H66.8483V56.7618H65.8483V57.7618ZM59.302 59.6872H58.302V60.6872H59.302V59.6872ZM65.8483 59.6872V60.6872H66.8483V59.6872H65.8483ZM22.1419 41.5513C20.739 41.5513 19.6016 42.6886 19.6016 44.0916H21.6016C21.6016 43.7932 21.8435 43.5513 22.1419 43.5513V41.5513ZM57.8213 41.5513H22.1419V43.5513H57.8213V41.5513ZM60.3616 44.0916C60.3616 42.6886 59.2243 41.5513 57.8213 41.5513V43.5513C58.1197 43.5513 58.3616 43.7932 58.3616 44.0916H60.3616ZM59.302 45.0916H59.3616V43.0916H59.302V45.0916ZM60.302 59.6871V44.0916H58.302V59.6871H60.302ZM56.3766 57.7617C56.3766 59.3773 57.6863 60.6871 59.302 60.6871V58.6871C58.7909 58.6871 58.3766 58.2727 58.3766 57.7617H56.3766ZM56.3766 44.0916V57.7617H58.3766V44.0916H56.3766ZM47.3645 45.0916H57.3766V43.0916H47.3645V45.0916ZM48.3645 48.677V44.0916H46.3645V48.677H48.3645ZM45.4391 49.677H47.3645V47.677H45.4391V49.677ZM44.4391 44.0916V48.677H46.4391V44.0916H44.4391ZM20.6016 45.0916H45.4391V43.0916H20.6016V45.0916ZM22.527 43.0967H20.6016V45.0967H22.527V43.0967ZM23.527 49.3778V44.0967H21.527V49.3778H23.527ZM20.6016 50.3778H22.527V48.3778H20.6016V50.3778ZM19.6016 44.0967V49.3778H21.6016V44.0967H19.6016ZM59.302 58.7618H65.8483V56.7618H59.302V58.7618ZM60.302 59.6872V57.7618H58.302V59.6872H60.302ZM65.8483 58.6872H59.302V60.6872H65.8483V58.6872ZM64.8483 57.7618V59.6872H66.8483V57.7618H64.8483Z" fill="white" mask="url(#path-26-outside-1)"/>
<mask id="path-28-outside-2" maskUnits="userSpaceOnUse" x="54.0661" y="64.1201" width="13" height="15" fill="black">
<rect fill="white" x="54.0661" y="64.1201" width="13" height="15"/>
<path fill-rule="evenodd" clip-rule="evenodd" d="M60.0721 67.213C60.0721 66.0571 61.0091 65.1201 62.165 65.1201V76.0812H62.19C62.19 76.9162 61.5132 77.5931 60.6782 77.5931H55.0661V76.0812H60.0721V67.213ZM62.1901 65.1202H65.6558V67.01H62.1901V65.1202Z"/>
</mask>
<path fill-rule="evenodd" clip-rule="evenodd" d="M60.0721 67.213C60.0721 66.0571 61.0091 65.1201 62.165 65.1201V76.0812H62.19C62.19 76.9162 61.5132 77.5931 60.6782 77.5931H55.0661V76.0812H60.0721V67.213ZM62.1901 65.1202H65.6558V67.01H62.1901V65.1202Z" fill="#6FCCFF"/>
<path d="M62.165 65.1201H63.165V64.1201H62.165V65.1201ZM62.165 76.0812H61.165V77.0812H62.165V76.0812ZM62.19 76.0812H63.19V75.0812H62.19V76.0812ZM55.0661 77.5931H54.0661V78.5931H55.0661V77.5931ZM55.0661 76.0812V75.0812H54.0661V76.0812H55.0661ZM60.0721 76.0812V77.0812H61.0721V76.0812H60.0721ZM65.6558 65.1202H66.6558V64.1202H65.6558V65.1202ZM62.1901 65.1202V64.1202H61.1901V65.1202H62.1901ZM65.6558 67.01V68.01H66.6558V67.01H65.6558ZM62.1901 67.01H61.1901V68.01H62.1901V67.01ZM62.165 64.1201C60.4569 64.1201 59.0721 65.5048 59.0721 67.213H61.0721C61.0721 66.6094 61.5614 66.1201 62.165 66.1201V64.1201ZM63.165 76.0812V65.1201H61.165V76.0812H63.165ZM62.165 77.0812H62.19V75.0812H62.165V77.0812ZM61.19 76.0812C61.19 76.3639 60.9609 76.5931 60.6782 76.5931V78.5931C62.0654 78.5931 63.19 77.4685 63.19 76.0812H61.19ZM60.6782 76.5931H55.0661V78.5931H60.6782V76.5931ZM56.0661 77.5931V76.0812H54.0661V77.5931H56.0661ZM55.0661 77.0812H60.0721V75.0812H55.0661V77.0812ZM59.0721 67.213V76.0812H61.0721V67.213H59.0721ZM65.6558 64.1202H62.1901V66.1202H65.6558V64.1202ZM66.6558 67.01V65.1202H64.6558V67.01H66.6558ZM62.1901 68.01H65.6558V66.01H62.1901V68.01ZM61.1901 65.1202V67.01H63.1901V65.1202H61.1901Z" fill="white" mask="url(#path-28-outside-2)"/>
<rect x="29.3281" y="75.5527" width="8.90947" height="2.54031" fill="#6FCCFF" stroke="white"/>
<path d="M66.8483 61.6118C65.7438 61.6118 64.8483 60.7164 64.8483 59.6118V57.6118C64.8483 56.5072 65.7438 55.6118 66.8483 55.6118V55.6118V61.6118V61.6118Z" fill="white"/>
<path d="M38.7376 79.8232C37.633 79.8232 36.7376 78.9278 36.7376 77.8232V75.8232C36.7376 74.7187 37.633 73.8232 38.7376 73.8232V73.8232V79.8232V79.8232Z" fill="white"/>
<path d="M14.133 79.8228C13.0284 79.8228 12.133 78.9273 12.133 77.8228V75.8228C12.133 74.7182 13.0284 73.8228 14.133 73.8228V73.8228V79.8228V79.8228Z" fill="white"/>
<mask id="path-34-outside-3" maskUnits="userSpaceOnUse" x="4.96863" y="74.7974" width="9" height="16" fill="black">
<rect fill="white" x="4.96863" y="74.7974" width="9" height="16"/>
<path fill-rule="evenodd" clip-rule="evenodd" d="M5.96863 77.5934C5.96863 77.5935 5.96863 77.5935 5.96863 77.5935V89.7234H7.89402V77.5935H12.9V75.7974H7.76472C6.77277 75.7974 5.96863 76.6015 5.96863 77.5934Z"/>
</mask>
<path fill-rule="evenodd" clip-rule="evenodd" d="M5.96863 77.5934C5.96863 77.5935 5.96863 77.5935 5.96863 77.5935V89.7234H7.89402V77.5935H12.9V75.7974H7.76472C6.77277 75.7974 5.96863 76.6015 5.96863 77.5934Z" fill="#6FCCFF"/>
<path d="M5.96863 77.5934L4.96863 77.5934V77.5934H5.96863ZM5.96863 89.7234H4.96863V90.7234H5.96863V89.7234ZM7.89402 89.7234V90.7234H8.89402V89.7234H7.89402ZM7.89402 77.5935V76.5935H6.89402V77.5935H7.89402ZM12.9 77.5935V78.5935H13.9V77.5935H12.9ZM12.9 75.7974H13.9V74.7974H12.9V75.7974ZM6.96863 77.5935C6.96863 77.5935 6.96863 77.5935 6.96863 77.5935C6.96863 77.5935 6.96863 77.5935 6.96863 77.5935C6.96863 77.5935 6.96863 77.5935 6.96863 77.5935C6.96863 77.5935 6.96863 77.5935 6.96863 77.5935C6.96863 77.5935 6.96863 77.5935 6.96863 77.5935C6.96863 77.5935 6.96863 77.5935 6.96863 77.5935C6.96863 77.5935 6.96863 77.5935 6.96863 77.5935C6.96863 77.5935 6.96863 77.5935 6.96863 77.5935C6.96863 77.5935 6.96863 77.5935 6.96863 77.5935C6.96863 77.5935 6.96863 77.5935 6.96863 77.5935C6.96863 77.5935 6.96863 77.5935 6.96863 77.5935C6.96863 77.5935 6.96863 77.5935 6.96863 77.5935C6.96863 77.5935 6.96863 77.5935 6.96863 77.5935C6.96863 77.5935 6.96863 77.5935 6.96863 77.5935C6.96863 77.5935 6.96863 77.5935 6.96863 77.5935C6.96863 77.5935 6.96863 77.5935 6.96863 77.5935C6.96863 77.5935 6.96863 77.5935 6.96863 77.5935C6.96863 77.5935 6.96863 77.5935 6.96863 77.5935C6.96863 77.5935 6.96863 77.5935 6.96863 77.5935C6.96863 77.5935 6.96863 77.5935 6.96863 77.5935C6.96863 77.5935 6.96863 77.5935 6.96863 77.5935C6.96863 77.5935 6.96863 77.5935 6.96863 77.5935C6.96863 77.5935 6.96863 77.5935 6.96863 77.5935C6.96863 77.5935 6.96863 77.5935 6.96863 77.5935C6.96863 77.5935 6.96863 77.5935 6.96863 77.5935C6.96863 77.5935 6.96863 77.5935 6.96863 77.5935C6.96863 77.5935 6.96863 77.5935 6.96863 77.5935C6.96863 77.5935 6.96863 77.5935 6.96863 77.5935C6.96863 77.5935 6.96863 77.5935 6.96863 77.5935C6.96863 77.5935 6.96863 77.5935 6.96863 77.5935C6.96863 77.5935 6.96863 77.5935 6.96863 77.5935C6.96863 77.5935 6.96863 77.5935 6.96863 77.5935C6.96863 77.5935 6.96863 77.5935 6.96863 77.5935C6.96863 77.5935 6.96863 77.5935 6.96863 77.5935C6.96863 77.5935 6.96863 77.5935 6.96863 77.5935C6.96863 77.5935 6.96863 77.5935 6.96863 77.5935C6.96863 77.5935 6.96863 77.5935 6.96863 77.5935C6.96863 77.5935 6.96863 77.5935 6.96863 77.5935C6.96863 77.5935 6.96863 77.5935 6.96863 77.5935C6.96863 77.5935 6.96863 77.5935 6.96863 77.5935C6.96863 77.5935 6.96863 77.5935 6.96863 77.5935C6.96863 77.5935 6.96863 77.5935 6.96863 77.5935C6.96863 77.5935 6.96863 77.5935 6.96863 77.5935C6.96863 77.5935 6.96863 77.5935 6.96863 77.5935C6.96863 77.5935 6.96863 77.5935 6.96863 77.5935C6.96863 77.5935 6.96863 77.5935 6.96863 77.5935C6.96863 77.5935 6.96863 77.5935 6.96863 77.5935C6.96863 77.5935 6.96863 77.5935 6.96863 77.5935C6.96863 77.5935 6.96863 77.5935 6.96863 77.5935C6.96863 77.5935 6.96863 77.5935 6.96863 77.5935C6.96863 77.5935 6.96863 77.5935 6.96863 77.5935C6.96863 77.5935 6.96863 77.5935 6.96863 77.5935C6.96863 77.5935 6.96863 77.5935 6.96863 77.5935C6.96863 77.5935 6.96863 77.5935 6.96863 77.5935C6.96863 77.5935 6.96863 77.5935 6.96863 77.5935C6.96863 77.5935 6.96863 77.5935 6.96863 77.5935C6.96863 77.5935 6.96863 77.5935 6.96863 77.5935C6.96863 77.5935 6.96863 77.5935 6.96863 77.5935C6.96863 77.5935 6.96863 77.5935 6.96863 77.5935C6.96863 77.5935 6.96863 77.5935 6.96863 77.5935C6.96863 77.5935 6.96863 77.5935 6.96863 77.5935C6.96863 77.5935 6.96863 77.5935 6.96863 77.5935C6.96863 77.5935 6.96863 77.5935 6.96863 77.5935C6.96863 77.5935 6.96863 77.5935 6.96863 77.5935C6.96863 77.5935 6.96863 77.5935 6.96863 77.5935C6.96863 77.5935 6.96863 77.5935 6.96863 77.5935C6.96863 77.5935 6.96863 77.5935 6.96863 77.5935C6.96863 77.5935 6.96863 77.5935 6.96863 77.5935C6.96863 77.5935 6.96863 77.5935 6.96863 77.5935C6.96863 77.5935 6.96863 77.5935 6.96863 77.5935C6.96863 77.5935 6.96863 77.5935 6.96863 77.5935C6.96863 77.5935 6.96863 77.5935 6.96863 77.5935C6.96863 77.5935 6.96863 77.5935 6.96863 77.5935C6.96863 77.5935 6.96863 77.5935 6.96863 77.5935C6.96863 77.5935 6.96863 77.5935 6.96863 77.5935C6.96863 77.5935 6.96863 77.5935 6.96863 77.5935C6.96863 77.5935 6.96863 77.5935 6.96863 77.5935C6.96863 77.5935 6.96863 77.5935 6.96863 77.5935C6.96863 77.5935 6.96863 77.5935 6.96863 77.5935C6.96863 77.5935 6.96863 77.5935 6.96863 77.5935C6.96863 77.5935 6.96863 77.5935 6.96863 77.5935C6.96863 77.5935 6.96863 77.5935 6.96863 77.5935C6.96863 77.5935 6.96863 77.5935 6.96863 77.5935C6.96863 77.5935 6.96863 77.5935 6.96863 77.5935C6.96863 77.5935 6.96863 77.5935 6.96863 77.5935C6.96863 77.5935 6.96863 77.5935 6.96863 77.5935C6.96863 77.5935 6.96863 77.5935 6.96863 77.5935C6.96863 77.5935 6.96863 77.5935 6.96863 77.5935C6.96863 77.5935 6.96863 77.5935 6.96863 77.5935C6.96863 77.5935 6.96863 77.5935 6.96863 77.5935C6.96863 77.5935 6.96863 77.5935 6.96863 77.5935C6.96863 77.5935 6.96863 77.5935 6.96863 77.5935C6.96863 77.5935 6.96863 77.5935 6.96863 77.5935C6.96863 77.5935 6.96863 77.5935 6.96863 77.5935C6.96863 77.5935 6.96863 77.5935 6.96863 77.5935C6.96863 77.5935 6.96863 77.5935 6.96863 77.5935C6.96863 77.5935 6.96863 77.5935 6.96863 77.5935C6.96863 77.5935 6.96863 77.5935 6.96863 77.5935C6.96863 77.5935 6.96863 77.5935 6.96863 77.5935C6.96863 77.5935 6.96863 77.5935 6.96863 77.5935C6.96863 77.5935 6.96863 77.5935 6.96863 77.5935C6.96863 77.5935 6.96863 77.5935 6.96863 77.5935C6.96863 77.5935 6.96863 77.5935 6.96863 77.5935C6.96863 77.5935 6.96863 77.5935 6.96863 77.5935C6.96863 77.5935 6.96863 77.5935 6.96863 77.5935C6.96863 77.5935 6.96863 77.5935 6.96863 77.5935C6.96863 77.5935 6.96863 77.5935 6.96863 77.5935C6.96863 77.5935 6.96863 77.5935 6.96863 77.5935C6.96863 77.5935 6.96863 77.5935 6.96863 77.5935C6.96863 77.5935 6.96863 77.5935 6.96863 77.5935C6.96863 77.5935 6.96863 77.5935 6.96863 77.5935C6.96863 77.5935 6.96863 77.5935 6.96863 77.5935C6.96863 77.5935 6.96863 77.5935 6.96863 77.5935C6.96863 77.5935 6.96863 77.5935 6.96863 77.5935C6.96863 77.5935 6.96863 77.5935 6.96863 77.5935C6.96863 77.5935 6.96863 77.5935 6.96863 77.5935C6.96863 77.5935 6.96863 77.5935 6.96863 77.5935C6.96863 77.5935 6.96863 77.5935 6.96863 77.5935C6.96863 77.5935 6.96863 77.5935 6.96863 77.5935C6.96863 77.5935 6.96863 77.5935 6.96863 77.5935C6.96863 77.5935 6.96863 77.5935 6.96863 77.5935C6.96863 77.5935 6.96863 77.5935 6.96863 77.5935C6.96863 77.5935 6.96863 77.5935 6.96863 77.5935C6.96863 77.5935 6.96863 77.5935 6.96863 77.5935C6.96863 77.5935 6.96863 77.5935 6.96863 77.5935C6.96863 77.5935 6.96863 77.5935 6.96863 77.5935C6.96863 77.5935 6.96863 77.5935 6.96863 77.5935C6.96863 77.5935 6.96863 77.5935 6.96863 77.5935C6.96863 77.5935 6.96863 77.5935 6.96863 77.5935C6.96863 77.5935 6.96863 77.5935 6.96863 77.5935C6.96863 77.5935 6.96863 77.5935 6.96863 77.5935C6.96863 77.5935 6.96863 77.5935 6.96863 77.5935C6.96863 77.5935 6.96863 77.5935 6.96863 77.5935C6.96863 77.5935 6.96863 77.5935 6.96863 77.5935C6.96863 77.5935 6.96863 77.5935 6.96863 77.5935C6.96863 77.5935 6.96863 77.5935 6.96863 77.5935C6.96863 77.5935 6.96863 77.5935 6.96863 77.5935C6.96863 77.5935 6.96863 77.5935 6.96863 77.5935C6.96863 77.5935 6.96863 77.5935 6.96863 77.5935C6.96863 77.5935 6.96863 77.5935 6.96863 77.5935C6.96863 77.5935 6.96863 77.5935 6.96863 77.5935C6.96863 77.5935 6.96863 77.5935 6.96863 77.5935C6.96863 77.5935 6.96863 77.5935 6.96863 77.5935C6.96863 77.5935 6.96863 77.5935 6.96863 77.5935C6.96863 77.5935 6.96863 77.5935 6.96863 77.5935C6.96863 77.5935 6.96863 77.5935 6.96863 77.5935C6.96863 77.5935 6.96863 77.5935 6.96863 77.5935C6.96863 77.5935 6.96863 77.5935 6.96863 77.5935C6.96863 77.5935 6.96863 77.5935 6.96863 77.5935C6.96863 77.5935 6.96863 77.5935 6.96863 77.5935C6.96863 77.5935 6.96863 77.5935 6.96863 77.5935C6.96863 77.5935 6.96863 77.5935 6.96863 77.5935C6.96863 77.5935 6.96863 77.5935 6.96863 77.5935C6.96863 77.5935 6.96863 77.5935 6.96863 77.5935C6.96863 77.5935 6.96863 77.5935 6.96863 77.5935C6.96863 77.5935 6.96863 77.5935 6.96863 77.5935C6.96863 77.5935 6.96863 77.5935 6.96863 77.5935C6.96863 77.5935 6.96863 77.5935 6.96863 77.5935C6.96863 77.5935 6.96863 77.5935 6.96863 77.5935C6.96863 77.5935 6.96863 77.5935 6.96863 77.5935C6.96863 77.5935 6.96863 77.5935 6.96863 77.5935C6.96863 77.5935 6.96863 77.5935 6.96863 77.5935C6.96863 77.5935 6.96863 77.5935 6.96863 77.5935C6.96863 77.5935 6.96863 77.5935 6.96863 77.5935C6.96863 77.5935 6.96863 77.5935 6.96863 77.5935C6.96863 77.5935 6.96863 77.5935 6.96863 77.5935C6.96863 77.5935 6.96863 77.5935 6.96863 77.5935C6.96863 77.5935 6.96863 77.5935 6.96863 77.5935C6.96863 77.5935 6.96863 77.5935 6.96863 77.5935C6.96863 77.5935 6.96863 77.5935 6.96863 77.5935C6.96863 77.5935 6.96863 77.5935 6.96863 77.5935C6.96863 77.5935 6.96863 77.5935 6.96863 77.5935C6.96863 77.5935 6.96863 77.5935 6.96863 77.5935C6.96863 77.5935 6.96863 77.5935 6.96863 77.5935C6.96863 77.5935 6.96863 77.5935 6.96863 77.5935C6.96863 77.5935 6.96863 77.5935 6.96863 77.5935C6.96863 77.5935 6.96863 77.5935 6.96863 77.5935C6.96863 77.5935 6.96863 77.5935 6.96863 77.5935C6.96863 77.5935 6.96863 77.5935 6.96863 77.5935C6.96863 77.5935 6.96863 77.5935 6.96863 77.5935C6.96863 77.5935 6.96863 77.5935 6.96863 77.5935C6.96863 77.5935 6.96863 77.5935 6.96863 77.5935C6.96863 77.5935 6.96863 77.5935 6.96863 77.5935C6.96863 77.5935 6.96863 77.5935 6.96863 77.5935C6.96863 77.5935 6.96863 77.5935 6.96863 77.5935C6.96863 77.5935 6.96863 77.5935 6.96863 77.5935C6.96863 77.5935 6.96863 77.5935 6.96863 77.5935C6.96863 77.5935 6.96863 77.5935 6.96863 77.5935C6.96863 77.5935 6.96863 77.5935 6.96863 77.5935C6.96863 77.5935 6.96863 77.5935 6.96863 77.5935C6.96863 77.5935 6.96863 77.5935 6.96863 77.5935C6.96863 77.5935 6.96863 77.5935 6.96863 77.5935C6.96863 77.5935 6.96863 77.5935 6.96863 77.5935C6.96863 77.5935 6.96863 77.5935 6.96863 77.5935C6.96863 77.5935 6.96863 77.5935 6.96863 77.5935C6.96863 77.5935 6.96863 77.5935 6.96863 77.5935C6.96863 77.5935 6.96863 77.5935 6.96863 77.5935C6.96863 77.5935 6.96863 77.5935 6.96863 77.5935C6.96863 77.5935 6.96863 77.5935 6.96863 77.5935C6.96863 77.5935 6.96863 77.5935 6.96863 77.5935C6.96863 77.5935 6.96863 77.5935 6.96863 77.5935C6.96863 77.5935 6.96863 77.5935 6.96863 77.5935C6.96863 77.5935 6.96863 77.5935 6.96863 77.5935C6.96863 77.5935 6.96863 77.5935 6.96863 77.5935C6.96863 77.5935 6.96863 77.5935 6.96863 77.5935C6.96863 77.5935 6.96863 77.5935 6.96863 77.5935C6.96863 77.5935 6.96863 77.5935 6.96863 77.5935C6.96863 77.5935 6.96863 77.5935 6.96863 77.5935C6.96863 77.5935 6.96863 77.5935 6.96863 77.5935C6.96863 77.5935 6.96863 77.5935 6.96863 77.5935C6.96863 77.5935 6.96863 77.5935 6.96863 77.5935C6.96863 77.5935 6.96863 77.5935 6.96863 77.5935C6.96863 77.5935 6.96863 77.5935 6.96863 77.5935C6.96863 77.5935 6.96863 77.5935 6.96863 77.5935C6.96863 77.5935 6.96863 77.5935 6.96863 77.5935C6.96863 77.5935 6.96863 77.5935 6.96863 77.5935C6.96863 77.5935 6.96863 77.5935 6.96863 77.5935C6.96863 77.5935 6.96863 77.5935 6.96863 77.5935C6.96863 77.5935 6.96863 77.5935 6.96863 77.5935C6.96863 77.5935 6.96863 77.5935 6.96863 77.5935C6.96863 77.5935 6.96863 77.5935 6.96863 77.5935C6.96863 77.5935 6.96863 77.5935 6.96863 77.5935C6.96863 77.5935 6.96863 77.5935 6.96863 77.5935C6.96863 77.5935 6.96863 77.5935 6.96863 77.5935C6.96863 77.5935 6.96863 77.5935 6.96863 77.5935C6.96863 77.5935 6.96863 77.5935 6.96863 77.5935C6.96863 77.5935 6.96863 77.5935 6.96863 77.5935C6.96863 77.5935 6.96863 77.5935 6.96863 77.5935C6.96863 77.5935 6.96863 77.5935 6.96863 77.5935C6.96863 77.5935 6.96863 77.5935 6.96863 77.5935C6.96863 77.5935 6.96863 77.5935 6.96863 77.5935C6.96863 77.5935 6.96863 77.5935 6.96863 77.5935C6.96863 77.5935 6.96863 77.5935 6.96863 77.5935C6.96863 77.5935 6.96863 77.5935 6.96863 77.5935C6.96863 77.5935 6.96863 77.5935 6.96863 77.5935C6.96863 77.5935 6.96863 77.5935 6.96863 77.5935C6.96863 77.5935 6.96863 77.5935 6.96863 77.5935C6.96863 77.5935 6.96863 77.5935 6.96863 77.5935C6.96863 77.5935 6.96863 77.5935 6.96863 77.5935C6.96863 77.5935 6.96863 77.5935 6.96863 77.5935C6.96863 77.5935 6.96863 77.5935 6.96863 77.5935C6.96863 77.5935 6.96863 77.5935 6.96863 77.5935C6.96863 77.5935 6.96863 77.5935 6.96863 77.5935C6.96863 77.5935 6.96863 77.5935 6.96863 77.5935C6.96863 77.5935 6.96863 77.5935 6.96863 77.5935C6.96863 77.5935 6.96863 77.5935 6.96863 77.5935C6.96863 77.5935 6.96863 77.5935 6.96863 77.5935C6.96863 77.5935 6.96863 77.5935 6.96863 77.5935C6.96863 77.5935 6.96863 77.5935 6.96863 77.5935C6.96863 77.5935 6.96863 77.5935 6.96863 77.5935C6.96863 77.5935 6.96863 77.5935 6.96863 77.5935C6.96863 77.5935 6.96863 77.5935 6.96863 77.5935C6.96863 77.5935 6.96863 77.5935 6.96863 77.5935C6.96863 77.5935 6.96863 77.5935 6.96863 77.5935C6.96863 77.5935 6.96863 77.5935 6.96863 77.5935C6.96863 77.5935 6.96863 77.5935 6.96863 77.5935C6.96863 77.5935 6.96863 77.5935 6.96863 77.5935C6.96863 77.5935 6.96863 77.5935 6.96863 77.5935C6.96863 77.5935 6.96863 77.5935 6.96863 77.5935C6.96863 77.5935 6.96863 77.5935 6.96863 77.5935C6.96863 77.5935 6.96863 77.5935 6.96863 77.5935C6.96863 77.5935 6.96863 77.5935 6.96863 77.5935C6.96863 77.5935 6.96863 77.5935 6.96863 77.5935C6.96863 77.5935 6.96863 77.5935 6.96863 77.5935C6.96863 77.5935 6.96863 77.5935 6.96863 77.5935C6.96863 77.5935 6.96863 77.5935 6.96863 77.5935C6.96863 77.5935 6.96863 77.5935 6.96863 77.5935C6.96863 77.5935 6.96863 77.5935 6.96863 77.5935C6.96863 77.5935 6.96863 77.5935 6.96863 77.5935C6.96863 77.5935 6.96863 77.5935 6.96863 77.5935C6.96863 77.5935 6.96863 77.5935 6.96863 77.5935C6.96863 77.5935 6.96863 77.5935 6.96863 77.5935C6.96863 77.5935 6.96863 77.5935 6.96863 77.5935C6.96863 77.5935 6.96863 77.5935 6.96863 77.5935C6.96863 77.5935 6.96863 77.5935 6.96863 77.5935C6.96863 77.5935 6.96863 77.5935 6.96863 77.5935C6.96863 77.5935 6.96863 77.5935 6.96863 77.5935C6.96863 77.5935 6.96863 77.5935 6.96863 77.5935C6.96863 77.5935 6.96863 77.5935 6.96863 77.5935C6.96863 77.5935 6.96863 77.5935 6.96863 77.5935C6.96863 77.5935 6.96863 77.5935 6.96863 77.5935C6.96863 77.5935 6.96863 77.5935 6.96863 77.5935C6.96863 77.5935 6.96863 77.5935 6.96863 77.5935C6.96863 77.5935 6.96863 77.5935 6.96863 77.5935C6.96863 77.5935 6.96863 77.5935 6.96863 77.5935C6.96863 77.5935 6.96863 77.5935 6.96863 77.5935C6.96863 77.5935 6.96863 77.5935 6.96863 77.5935C6.96863 77.5935 6.96863 77.5935 6.96863 77.5935C6.96863 77.5935 6.96863 77.5935 6.96863 77.5935C6.96863 77.5935 6.96863 77.5935 6.96863 77.5935C6.96863 77.5935 6.96863 77.5935 6.96863 77.5935C6.96863 77.5935 6.96863 77.5935 6.96863 77.5935C6.96863 77.5935 6.96863 77.5935 6.96863 77.5935C6.96863 77.5935 6.96863 77.5935 6.96863 77.5935C6.96863 77.5935 6.96863 77.5935 6.96863 77.5935C6.96863 77.5935 6.96863 77.5935 6.96863 77.5935C6.96863 77.5935 6.96863 77.5935 6.96863 77.5935C6.96863 77.5935 6.96863 77.5935 6.96863 77.5935C6.96863 77.5935 6.96863 77.5935 6.96863 77.5935C6.96863 77.5935 6.96863 77.5935 6.96863 77.5935C6.96863 77.5935 6.96863 77.5935 6.96863 77.5935C6.96863 77.5935 6.96863 77.5935 6.96863 77.5935C6.96863 77.5935 6.96863 77.5935 6.96863 77.5935C6.96863 77.5935 6.96863 77.5935 6.96863 77.5935C6.96863 77.5935 6.96863 77.5935 6.96863 77.5935C6.96863 77.5935 6.96863 77.5935 6.96863 77.5935C6.96863 77.5935 6.96863 77.5935 6.96863 77.5935C6.96863 77.5935 6.96863 77.5935 6.96863 77.5935C6.96863 77.5935 6.96863 77.5935 6.96863 77.5935C6.96863 77.5935 6.96863 77.5935 6.96863 77.5935C6.96863 77.5935 6.96863 77.5935 6.96863 77.5935C6.96863 77.5935 6.96863 77.5935 6.96863 77.5935C6.96863 77.5935 6.96863 77.5935 6.96863 77.5935C6.96863 77.5935 6.96863 77.5935 6.96863 77.5935C6.96863 77.5935 6.96863 77.5935 6.96863 77.5935C6.96863 77.5935 6.96863 77.5935 6.96863 77.5935C6.96863 77.5935 6.96863 77.5935 6.96863 77.5935C6.96863 77.5935 6.96863 77.5935 6.96863 77.5935C6.96863 77.5935 6.96863 77.5935 6.96863 77.5935C6.96863 77.5935 6.96863 77.5935 6.96863 77.5935C6.96863 77.5935 6.96863 77.5935 6.96863 77.5935C6.96863 77.5935 6.96863 77.5935 6.96863 77.5935C6.96863 77.5935 6.96863 77.5935 6.96863 77.5935C6.96863 77.5935 6.96863 77.5935 6.96863 77.5935C6.96863 77.5935 6.96863 77.5935 6.96863 77.5935C6.96863 77.5935 6.96863 77.5935 6.96863 77.5935C6.96863 77.5935 6.96863 77.5935 6.96863 77.5935C6.96863 77.5935 6.96863 77.5935 6.96863 77.5935C6.96863 77.5935 6.96863 77.5935 6.96863 77.5935C6.96863 77.5935 6.96863 77.5935 6.96863 77.5935C6.96863 77.5935 6.96863 77.5935 6.96863 77.5935C6.96863 77.5935 6.96863 77.5935 6.96863 77.5935C6.96863 77.5935 6.96863 77.5935 6.96863 77.5935C6.96863 77.5935 6.96863 77.5935 6.96863 77.5935C6.96863 77.5935 6.96863 77.5935 6.96863 77.5935C6.96863 77.5935 6.96863 77.5935 6.96863 77.5935C6.96863 77.5935 6.96863 77.5935 6.96863 77.5935C6.96863 77.5935 6.96863 77.5935 6.96863 77.5935C6.96863 77.5935 6.96863 77.5935 6.96863 77.5935C6.96863 77.5935 6.96863 77.5935 6.96863 77.5935C6.96863 77.5935 6.96863 77.5935 6.96863 77.5935C6.96863 77.5935 6.96863 77.5935 6.96863 77.5935C6.96863 77.5935 6.96863 77.5935 6.96863 77.5935C6.96863 77.5935 6.96863 77.5935 6.96863 77.5935C6.96863 77.5935 6.96863 77.5935 6.96863 77.5935C6.96863 77.5935 6.96863 77.5935 6.96863 77.5935C6.96863 77.5935 6.96863 77.5935 6.96863 77.5935C6.96863 77.5935 6.96863 77.5935 6.96863 77.5935C6.96863 77.5935 6.96863 77.5935 6.96863 77.5935C6.96863 77.5935 6.96863 77.5935 6.96863 77.5935C6.96863 77.5935 6.96863 77.5935 6.96863 77.5935C6.96863 77.5935 6.96863 77.5935 6.96863 77.5935C6.96863 77.5935 6.96863 77.5935 6.96863 77.5935C6.96863 77.5935 6.96863 77.5935 6.96863 77.5935C6.96863 77.5935 6.96863 77.5935 6.96863 77.5935C6.96863 77.5935 6.96863 77.5935 6.96863 77.5935C6.96863 77.5935 6.96863 77.5935 6.96863 77.5935C6.96863 77.5935 6.96863 77.5935 6.96863 77.5935C6.96863 77.5935 6.96863 77.5935 6.96863 77.5935C6.96863 77.5935 6.96863 77.5935 6.96863 77.5935C6.96863 77.5935 6.96863 77.5935 6.96863 77.5935C6.96863 77.5935 6.96863 77.5935 6.96863 77.5935C6.96863 77.5935 6.96863 77.5935 6.96863 77.5935C6.96863 77.5935 6.96863 77.5935 6.96863 77.5935C6.96863 77.5935 6.96863 77.5935 6.96863 77.5935C6.96863 77.5935 6.96863 77.5935 6.96863 77.5935C6.96863 77.5935 6.96863 77.5935 6.96863 77.5935C6.96863 77.5935 6.96863 77.5935 6.96863 77.5935C6.96863 77.5935 6.96863 77.5935 6.96863 77.5935C6.96863 77.5935 6.96863 77.5935 6.96863 77.5935C6.96863 77.5935 6.96863 77.5935 6.96863 77.5935C6.96863 77.5935 6.96863 77.5935 6.96863 77.5935C6.96863 77.5935 6.96863 77.5935 6.96863 77.5935C6.96863 77.5935 6.96863 77.5935 6.96863 77.5935C6.96863 77.5935 6.96863 77.5935 6.96863 77.5935C6.96863 77.5935 6.96863 77.5935 6.96863 77.5935C6.96863 77.5935 6.96863 77.5935 6.96863 77.5935C6.96863 77.5935 6.96863 77.5935 6.96863 77.5935C6.96863 77.5935 6.96863 77.5935 6.96863 77.5935C6.96863 77.5935 6.96863 77.5935 6.96863 77.5935C6.96863 77.5935 6.96863 77.5935 6.96863 77.5935C6.96863 77.5935 6.96863 77.5935 6.96863 77.5935C6.96863 77.5935 6.96863 77.5935 6.96863 77.5935C6.96863 77.5935 6.96863 77.5935 6.96863 77.5935C6.96863 77.5935 6.96863 77.5935 6.96863 77.5935C6.96863 77.5935 6.96863 77.5935 6.96863 77.5935C6.96863 77.5935 6.96863 77.5935 6.96863 77.5935C6.96863 77.5935 6.96863 77.5935 6.96863 77.5935C6.96863 77.5935 6.96863 77.5935 6.96863 77.5935C6.96863 77.5935 6.96863 77.5935 6.96863 77.5935C6.96863 77.5935 6.96863 77.5935 6.96863 77.5935C6.96863 77.5935 6.96863 77.5935 6.96863 77.5935C6.96863 77.5935 6.96863 77.5935 6.96863 77.5935C6.96863 77.5935 6.96863 77.5935 6.96863 77.5935C6.96863 77.5935 6.96863 77.5935 6.96863 77.5935C6.96863 77.5935 6.96863 77.5935 6.96863 77.5935C6.96863 77.5935 6.96863 77.5935 6.96863 77.5935C6.96863 77.5935 6.96863 77.5935 6.96863 77.5935C6.96863 77.5935 6.96863 77.5935 6.96863 77.5935C6.96863 77.5935 6.96863 77.5935 6.96863 77.5935C6.96863 77.5935 6.96863 77.5935 6.96863 77.5935C6.96863 77.5935 6.96863 77.5935 6.96863 77.5935C6.96863 77.5935 6.96863 77.5935 6.96863 77.5935C6.96863 77.5935 6.96863 77.5935 6.96863 77.5935C6.96863 77.5935 6.96863 77.5935 6.96863 77.5935C6.96863 77.5935 6.96863 77.5935 6.96863 77.5935C6.96863 77.5935 6.96863 77.5935 6.96863 77.5935C6.96863 77.5935 6.96863 77.5935 6.96863 77.5935C6.96863 77.5935 6.96863 77.5935 6.96863 77.5935C6.96863 77.5935 6.96863 77.5935 6.96863 77.5935C6.96863 77.5935 6.96863 77.5935 6.96863 77.5935C6.96863 77.5935 6.96863 77.5935 6.96863 77.5935C6.96863 77.5935 6.96863 77.5935 6.96863 77.5935C6.96863 77.5935 6.96863 77.5935 6.96863 77.5935C6.96863 77.5935 6.96863 77.5935 6.96863 77.5935C6.96863 77.5935 6.96863 77.5935 6.96863 77.5935C6.96863 77.5935 6.96863 77.5935 6.96863 77.5935C6.96863 77.5935 6.96863 77.5935 6.96863 77.5935C6.96863 77.5935 6.96863 77.5935 6.96863 77.5935C6.96863 77.5935 6.96863 77.5935 6.96863 77.5935C6.96863 77.5935 6.96863 77.5935 6.96863 77.5935C6.96863 77.5935 6.96863 77.5935 6.96863 77.5935C6.96863 77.5935 6.96863 77.5935 6.96863 77.5935C6.96863 77.5935 6.96863 77.5935 6.96863 77.5935C6.96863 77.5935 6.96863 77.5935 6.96863 77.5935C6.96863 77.5935 6.96863 77.5935 6.96863 77.5935C6.96863 77.5935 6.96863 77.5935 6.96863 77.5935C6.96863 77.5935 6.96863 77.5935 6.96863 77.5935C6.96863 77.5935 6.96863 77.5935 6.96863 77.5935C6.96863 77.5935 6.96863 77.5935 6.96863 77.5935C6.96863 77.5935 6.96863 77.5935 6.96863 77.5935C6.96863 77.5935 6.96863 77.5935 6.96863 77.5935C6.96863 77.5935 6.96863 77.5935 6.96863 77.5935C6.96863 77.5935 6.96863 77.5935 6.96863 77.5935C6.96863 77.5935 6.96863 77.5935 6.96863 77.5935C6.96863 77.5935 6.96863 77.5935 6.96863 77.5935C6.96863 77.5935 6.96863 77.5935 6.96863 77.5935C6.96863 77.5935 6.96863 77.5935 6.96863 77.5935C6.96863 77.5935 6.96863 77.5935 6.96863 77.5935C6.96863 77.5935 6.96863 77.5935 6.96863 77.5935C6.96863 77.5935 6.96863 77.5935 6.96863 77.5935C6.96863 77.5935 6.96863 77.5935 6.96863 77.5935C6.96863 77.5935 6.96863 77.5935 6.96863 77.5935C6.96863 77.5935 6.96863 77.5935 6.96863 77.5935C6.96863 77.5935 6.96863 77.5935 6.96863 77.5935C6.96863 77.5935 6.96863 77.5935 6.96863 77.5935C6.96863 77.5935 6.96863 77.5935 6.96863 77.5935C6.96863 77.5935 6.96863 77.5935 6.96863 77.5935C6.96863 77.5935 6.96863 77.5935 6.96863 77.5935C6.96863 77.5935 6.96863 77.5935 6.96863 77.5935C6.96863 77.5935 6.96863 77.5935 6.96863 77.5935C6.96863 77.5935 6.96863 77.5935 6.96863 77.5935C6.96863 77.5935 6.96863 77.5935 6.96863 77.5935C6.96863 77.5935 6.96863 77.5935 6.96863 77.5935C6.96863 77.5935 6.96863 77.5935 6.96863 77.5935C6.96863 77.5935 6.96863 77.5935 6.96863 77.5935C6.96863 77.5935 6.96863 77.5935 6.96863 77.5935C6.96863 77.5935 6.96863 77.5935 6.96863 77.5935C6.96863 77.5935 6.96863 77.5935 6.96863 77.5934C6.96863 77.5934 6.96863 77.5934 6.96863 77.5934C6.96863 77.5934 6.96863 77.5934 6.96863 77.5934C6.96863 77.5934 6.96863 77.5934 6.96863 77.5934C6.96863 77.5934 6.96863 77.5934 6.96863 77.5934C6.96863 77.5934 6.96863 77.5934 6.96863 77.5934C6.96863 77.5934 6.96863 77.5934 6.96863 77.5934C6.96863 77.5934 6.96863 77.5934 6.96863 77.5934C6.96863 77.5934 6.96863 77.5934 6.96863 77.5934C6.96863 77.5934 6.96863 77.5934 6.96863 77.5934C6.96863 77.5934 6.96863 77.5934 6.96863 77.5934C6.96863 77.5934 6.96863 77.5934 6.96863 77.5934C6.96863 77.5934 6.96863 77.5934 6.96863 77.5934C6.96863 77.5934 6.96863 77.5934 6.96863 77.5934C6.96863 77.5934 6.96863 77.5934 6.96863 77.5934C6.96863 77.5934 6.96863 77.5934 6.96863 77.5934C6.96863 77.5934 6.96863 77.5934 6.96863 77.5934C6.96863 77.5934 6.96863 77.5934 6.96863 77.5934C6.96863 77.5934 6.96863 77.5934 6.96863 77.5934C6.96863 77.5934 6.96863 77.5934 6.96863 77.5934C6.96863 77.5934 6.96863 77.5934 6.96863 77.5934C6.96863 77.5934 6.96863 77.5934 6.96863 77.5934C6.96863 77.5934 6.96863 77.5934 6.96863 77.5934C6.96863 77.5934 6.96863 77.5934 6.96863 77.5934C6.96863 77.5934 6.96863 77.5934 6.96863 77.5934C6.96863 77.5934 6.96863 77.5934 6.96863 77.5934C6.96863 77.5934 6.96863 77.5934 6.96863 77.5934C6.96863 77.5934 6.96863 77.5934 6.96863 77.5934C6.96863 77.5934 6.96863 77.5934 6.96863 77.5934C6.96863 77.5934 6.96863 77.5934 6.96863 77.5934C6.96863 77.5934 6.96863 77.5934 6.96863 77.5934C6.96863 77.5934 6.96863 77.5934 6.96863 77.5934C6.96863 77.5934 6.96863 77.5934 6.96863 77.5934C6.96863 77.5934 6.96863 77.5934 6.96863 77.5934C6.96863 77.5934 6.96863 77.5934 6.96863 77.5934C6.96863 77.5934 6.96863 77.5934 6.96863 77.5934C6.96863 77.5934 6.96863 77.5934 6.96863 77.5934C6.96863 77.5934 6.96863 77.5934 6.96863 77.5934C6.96863 77.5934 6.96863 77.5934 6.96863 77.5934C6.96863 77.5934 6.96863 77.5934 6.96863 77.5934C6.96863 77.5934 6.96863 77.5934 6.96863 77.5934C6.96863 77.5934 6.96863 77.5934 6.96863 77.5934C6.96863 77.5934 6.96863 77.5934 6.96863 77.5934C6.96863 77.5934 6.96863 77.5934 6.96863 77.5934C6.96863 77.5934 6.96863 77.5934 6.96863 77.5934C6.96863 77.5934 6.96863 77.5934 6.96863 77.5934C6.96863 77.5934 6.96863 77.5934 6.96863 77.5934C6.96863 77.5934 6.96863 77.5934 6.96863 77.5934C6.96863 77.5934 6.96863 77.5934 6.96863 77.5934C6.96863 77.5934 6.96863 77.5934 6.96863 77.5934C6.96863 77.5934 6.96863 77.5934 6.96863 77.5934C6.96863 77.5934 6.96863 77.5934 6.96863 77.5934C6.96863 77.5934 6.96863 77.5934 6.96863 77.5934C6.96863 77.5934 6.96863 77.5934 6.96863 77.5934H4.96863C4.96863 77.5934 4.96863 77.5934 4.96863 77.5934C4.96863 77.5934 4.96863 77.5934 4.96863 77.5934C4.96863 77.5934 4.96863 77.5934 4.96863 77.5934C4.96863 77.5934 4.96863 77.5934 4.96863 77.5934C4.96863 77.5934 4.96863 77.5934 4.96863 77.5934C4.96863 77.5934 4.96863 77.5934 4.96863 77.5934C4.96863 77.5934 4.96863 77.5934 4.96863 77.5934C4.96863 77.5934 4.96863 77.5934 4.96863 77.5934C4.96863 77.5934 4.96863 77.5934 4.96863 77.5934C4.96863 77.5934 4.96863 77.5934 4.96863 77.5934C4.96863 77.5934 4.96863 77.5934 4.96863 77.5934C4.96863 77.5934 4.96863 77.5934 4.96863 77.5934C4.96863 77.5934 4.96863 77.5934 4.96863 77.5934C4.96863 77.5934 4.96863 77.5934 4.96863 77.5934C4.96863 77.5934 4.96863 77.5934 4.96863 77.5934C4.96863 77.5934 4.96863 77.5934 4.96863 77.5934C4.96863 77.5934 4.96863 77.5934 4.96863 77.5934C4.96863 77.5934 4.96863 77.5934 4.96863 77.5934C4.96863 77.5934 4.96863 77.5934 4.96863 77.5934C4.96863 77.5934 4.96863 77.5934 4.96863 77.5934C4.96863 77.5934 4.96863 77.5934 4.96863 77.5934C4.96863 77.5934 4.96863 77.5934 4.96863 77.5934C4.96863 77.5934 4.96863 77.5934 4.96863 77.5934C4.96863 77.5934 4.96863 77.5934 4.96863 77.5934C4.96863 77.5934 4.96863 77.5934 4.96863 77.5934C4.96863 77.5934 4.96863 77.5934 4.96863 77.5934C4.96863 77.5934 4.96863 77.5934 4.96863 77.5934C4.96863 77.5934 4.96863 77.5934 4.96863 77.5934C4.96863 77.5934 4.96863 77.5934 4.96863 77.5934C4.96863 77.5934 4.96863 77.5934 4.96863 77.5934C4.96863 77.5934 4.96863 77.5934 4.96863 77.5934C4.96863 77.5934 4.96863 77.5934 4.96863 77.5934C4.96863 77.5934 4.96863 77.5934 4.96863 77.5934C4.96863 77.5934 4.96863 77.5934 4.96863 77.5934C4.96863 77.5934 4.96863 77.5934 4.96863 77.5934C4.96863 77.5934 4.96863 77.5934 4.96863 77.5934C4.96863 77.5934 4.96863 77.5934 4.96863 77.5934C4.96863 77.5934 4.96863 77.5934 4.96863 77.5934C4.96863 77.5934 4.96863 77.5934 4.96863 77.5934C4.96863 77.5934 4.96863 77.5934 4.96863 77.5934C4.96863 77.5934 4.96863 77.5934 4.96863 77.5934C4.96863 77.5934 4.96863 77.5934 4.96863 77.5934C4.96863 77.5934 4.96863 77.5934 4.96863 77.5934C4.96863 77.5934 4.96863 77.5934 4.96863 77.5934C4.96863 77.5934 4.96863 77.5934 4.96863 77.5934C4.96863 77.5934 4.96863 77.5934 4.96863 77.5934C4.96863 77.5934 4.96863 77.5934 4.96863 77.5934C4.96863 77.5934 4.96863 77.5934 4.96863 77.5934C4.96863 77.5934 4.96863 77.5934 4.96863 77.5934C4.96863 77.5934 4.96863 77.5934 4.96863 77.5934C4.96863 77.5934 4.96863 77.5934 4.96863 77.5934C4.96863 77.5934 4.96863 77.5934 4.96863 77.5934C4.96863 77.5934 4.96863 77.5934 4.96863 77.5934C4.96863 77.5935 4.96863 77.5935 4.96863 77.5935C4.96863 77.5935 4.96863 77.5935 4.96863 77.5935C4.96863 77.5935 4.96863 77.5935 4.96863 77.5935C4.96863 77.5935 4.96863 77.5935 4.96863 77.5935C4.96863 77.5935 4.96863 77.5935 4.96863 77.5935C4.96863 77.5935 4.96863 77.5935 4.96863 77.5935C4.96863 77.5935 4.96863 77.5935 4.96863 77.5935C4.96863 77.5935 4.96863 77.5935 4.96863 77.5935C4.96863 77.5935 4.96863 77.5935 4.96863 77.5935C4.96863 77.5935 4.96863 77.5935 4.96863 77.5935C4.96863 77.5935 4.96863 77.5935 4.96863 77.5935C4.96863 77.5935 4.96863 77.5935 4.96863 77.5935C4.96863 77.5935 4.96863 77.5935 4.96863 77.5935C4.96863 77.5935 4.96863 77.5935 4.96863 77.5935C4.96863 77.5935 4.96863 77.5935 4.96863 77.5935C4.96863 77.5935 4.96863 77.5935 4.96863 77.5935C4.96863 77.5935 4.96863 77.5935 4.96863 77.5935C4.96863 77.5935 4.96863 77.5935 4.96863 77.5935C4.96863 77.5935 4.96863 77.5935 4.96863 77.5935C4.96863 77.5935 4.96863 77.5935 4.96863 77.5935C4.96863 77.5935 4.96863 77.5935 4.96863 77.5935C4.96863 77.5935 4.96863 77.5935 4.96863 77.5935C4.96863 77.5935 4.96863 77.5935 4.96863 77.5935C4.96863 77.5935 4.96863 77.5935 4.96863 77.5935C4.96863 77.5935 4.96863 77.5935 4.96863 77.5935C4.96863 77.5935 4.96863 77.5935 4.96863 77.5935C4.96863 77.5935 4.96863 77.5935 4.96863 77.5935C4.96863 77.5935 4.96863 77.5935 4.96863 77.5935C4.96863 77.5935 4.96863 77.5935 4.96863 77.5935C4.96863 77.5935 4.96863 77.5935 4.96863 77.5935C4.96863 77.5935 4.96863 77.5935 4.96863 77.5935C4.96863 77.5935 4.96863 77.5935 4.96863 77.5935C4.96863 77.5935 4.96863 77.5935 4.96863 77.5935C4.96863 77.5935 4.96863 77.5935 4.96863 77.5935C4.96863 77.5935 4.96863 77.5935 4.96863 77.5935C4.96863 77.5935 4.96863 77.5935 4.96863 77.5935C4.96863 77.5935 4.96863 77.5935 4.96863 77.5935C4.96863 77.5935 4.96863 77.5935 4.96863 77.5935C4.96863 77.5935 4.96863 77.5935 4.96863 77.5935C4.96863 77.5935 4.96863 77.5935 4.96863 77.5935C4.96863 77.5935 4.96863 77.5935 4.96863 77.5935C4.96863 77.5935 4.96863 77.5935 4.96863 77.5935C4.96863 77.5935 4.96863 77.5935 4.96863 77.5935C4.96863 77.5935 4.96863 77.5935 4.96863 77.5935C4.96863 77.5935 4.96863 77.5935 4.96863 77.5935C4.96863 77.5935 4.96863 77.5935 4.96863 77.5935C4.96863 77.5935 4.96863 77.5935 4.96863 77.5935C4.96863 77.5935 4.96863 77.5935 4.96863 77.5935C4.96863 77.5935 4.96863 77.5935 4.96863 77.5935C4.96863 77.5935 4.96863 77.5935 4.96863 77.5935C4.96863 77.5935 4.96863 77.5935 4.96863 77.5935C4.96863 77.5935 4.96863 77.5935 4.96863 77.5935C4.96863 77.5935 4.96863 77.5935 4.96863 77.5935C4.96863 77.5935 4.96863 77.5935 4.96863 77.5935C4.96863 77.5935 4.96863 77.5935 4.96863 77.5935C4.96863 77.5935 4.96863 77.5935 4.96863 77.5935C4.96863 77.5935 4.96863 77.5935 4.96863 77.5935C4.96863 77.5935 4.96863 77.5935 4.96863 77.5935C4.96863 77.5935 4.96863 77.5935 4.96863 77.5935C4.96863 77.5935 4.96863 77.5935 4.96863 77.5935C4.96863 77.5935 4.96863 77.5935 4.96863 77.5935C4.96863 77.5935 4.96863 77.5935 4.96863 77.5935C4.96863 77.5935 4.96863 77.5935 4.96863 77.5935C4.96863 77.5935 4.96863 77.5935 4.96863 77.5935C4.96863 77.5935 4.96863 77.5935 4.96863 77.5935C4.96863 77.5935 4.96863 77.5935 4.96863 77.5935C4.96863 77.5935 4.96863 77.5935 4.96863 77.5935C4.96863 77.5935 4.96863 77.5935 4.96863 77.5935C4.96863 77.5935 4.96863 77.5935 4.96863 77.5935C4.96863 77.5935 4.96863 77.5935 4.96863 77.5935C4.96863 77.5935 4.96863 77.5935 4.96863 77.5935C4.96863 77.5935 4.96863 77.5935 4.96863 77.5935C4.96863 77.5935 4.96863 77.5935 4.96863 77.5935C4.96863 77.5935 4.96863 77.5935 4.96863 77.5935C4.96863 77.5935 4.96863 77.5935 4.96863 77.5935C4.96863 77.5935 4.96863 77.5935 4.96863 77.5935C4.96863 77.5935 4.96863 77.5935 4.96863 77.5935C4.96863 77.5935 4.96863 77.5935 4.96863 77.5935C4.96863 77.5935 4.96863 77.5935 4.96863 77.5935C4.96863 77.5935 4.96863 77.5935 4.96863 77.5935C4.96863 77.5935 4.96863 77.5935 4.96863 77.5935C4.96863 77.5935 4.96863 77.5935 4.96863 77.5935C4.96863 77.5935 4.96863 77.5935 4.96863 77.5935C4.96863 77.5935 4.96863 77.5935 4.96863 77.5935C4.96863 77.5935 4.96863 77.5935 4.96863 77.5935C4.96863 77.5935 4.96863 77.5935 4.96863 77.5935C4.96863 77.5935 4.96863 77.5935 4.96863 77.5935C4.96863 77.5935 4.96863 77.5935 4.96863 77.5935C4.96863 77.5935 4.96863 77.5935 4.96863 77.5935C4.96863 77.5935 4.96863 77.5935 4.96863 77.5935C4.96863 77.5935 4.96863 77.5935 4.96863 77.5935C4.96863 77.5935 4.96863 77.5935 4.96863 77.5935C4.96863 77.5935 4.96863 77.5935 4.96863 77.5935C4.96863 77.5935 4.96863 77.5935 4.96863 77.5935C4.96863 77.5935 4.96863 77.5935 4.96863 77.5935C4.96863 77.5935 4.96863 77.5935 4.96863 77.5935C4.96863 77.5935 4.96863 77.5935 4.96863 77.5935C4.96863 77.5935 4.96863 77.5935 4.96863 77.5935C4.96863 77.5935 4.96863 77.5935 4.96863 77.5935C4.96863 77.5935 4.96863 77.5935 4.96863 77.5935C4.96863 77.5935 4.96863 77.5935 4.96863 77.5935C4.96863 77.5935 4.96863 77.5935 4.96863 77.5935C4.96863 77.5935 4.96863 77.5935 4.96863 77.5935C4.96863 77.5935 4.96863 77.5935 4.96863 77.5935C4.96863 77.5935 4.96863 77.5935 4.96863 77.5935C4.96863 77.5935 4.96863 77.5935 4.96863 77.5935C4.96863 77.5935 4.96863 77.5935 4.96863 77.5935C4.96863 77.5935 4.96863 77.5935 4.96863 77.5935C4.96863 77.5935 4.96863 77.5935 4.96863 77.5935C4.96863 77.5935 4.96863 77.5935 4.96863 77.5935C4.96863 77.5935 4.96863 77.5935 4.96863 77.5935C4.96863 77.5935 4.96863 77.5935 4.96863 77.5935C4.96863 77.5935 4.96863 77.5935 4.96863 77.5935C4.96863 77.5935 4.96863 77.5935 4.96863 77.5935C4.96863 77.5935 4.96863 77.5935 4.96863 77.5935C4.96863 77.5935 4.96863 77.5935 4.96863 77.5935C4.96863 77.5935 4.96863 77.5935 4.96863 77.5935C4.96863 77.5935 4.96863 77.5935 4.96863 77.5935C4.96863 77.5935 4.96863 77.5935 4.96863 77.5935C4.96863 77.5935 4.96863 77.5935 4.96863 77.5935C4.96863 77.5935 4.96863 77.5935 4.96863 77.5935C4.96863 77.5935 4.96863 77.5935 4.96863 77.5935C4.96863 77.5935 4.96863 77.5935 4.96863 77.5935C4.96863 77.5935 4.96863 77.5935 4.96863 77.5935C4.96863 77.5935 4.96863 77.5935 4.96863 77.5935C4.96863 77.5935 4.96863 77.5935 4.96863 77.5935C4.96863 77.5935 4.96863 77.5935 4.96863 77.5935C4.96863 77.5935 4.96863 77.5935 4.96863 77.5935C4.96863 77.5935 4.96863 77.5935 4.96863 77.5935C4.96863 77.5935 4.96863 77.5935 4.96863 77.5935C4.96863 77.5935 4.96863 77.5935 4.96863 77.5935C4.96863 77.5935 4.96863 77.5935 4.96863 77.5935C4.96863 77.5935 4.96863 77.5935 4.96863 77.5935C4.96863 77.5935 4.96863 77.5935 4.96863 77.5935C4.96863 77.5935 4.96863 77.5935 4.96863 77.5935C4.96863 77.5935 4.96863 77.5935 4.96863 77.5935C4.96863 77.5935 4.96863 77.5935 4.96863 77.5935C4.96863 77.5935 4.96863 77.5935 4.96863 77.5935C4.96863 77.5935 4.96863 77.5935 4.96863 77.5935C4.96863 77.5935 4.96863 77.5935 4.96863 77.5935C4.96863 77.5935 4.96863 77.5935 4.96863 77.5935C4.96863 77.5935 4.96863 77.5935 4.96863 77.5935C4.96863 77.5935 4.96863 77.5935 4.96863 77.5935C4.96863 77.5935 4.96863 77.5935 4.96863 77.5935C4.96863 77.5935 4.96863 77.5935 4.96863 77.5935C4.96863 77.5935 4.96863 77.5935 4.96863 77.5935C4.96863 77.5935 4.96863 77.5935 4.96863 77.5935C4.96863 77.5935 4.96863 77.5935 4.96863 77.5935C4.96863 77.5935 4.96863 77.5935 4.96863 77.5935C4.96863 77.5935 4.96863 77.5935 4.96863 77.5935C4.96863 77.5935 4.96863 77.5935 4.96863 77.5935C4.96863 77.5935 4.96863 77.5935 4.96863 77.5935C4.96863 77.5935 4.96863 77.5935 4.96863 77.5935C4.96863 77.5935 4.96863 77.5935 4.96863 77.5935C4.96863 77.5935 4.96863 77.5935 4.96863 77.5935C4.96863 77.5935 4.96863 77.5935 4.96863 77.5935C4.96863 77.5935 4.96863 77.5935 4.96863 77.5935C4.96863 77.5935 4.96863 77.5935 4.96863 77.5935C4.96863 77.5935 4.96863 77.5935 4.96863 77.5935C4.96863 77.5935 4.96863 77.5935 4.96863 77.5935C4.96863 77.5935 4.96863 77.5935 4.96863 77.5935C4.96863 77.5935 4.96863 77.5935 4.96863 77.5935C4.96863 77.5935 4.96863 77.5935 4.96863 77.5935C4.96863 77.5935 4.96863 77.5935 4.96863 77.5935C4.96863 77.5935 4.96863 77.5935 4.96863 77.5935C4.96863 77.5935 4.96863 77.5935 4.96863 77.5935C4.96863 77.5935 4.96863 77.5935 4.96863 77.5935C4.96863 77.5935 4.96863 77.5935 4.96863 77.5935C4.96863 77.5935 4.96863 77.5935 4.96863 77.5935C4.96863 77.5935 4.96863 77.5935 4.96863 77.5935C4.96863 77.5935 4.96863 77.5935 4.96863 77.5935C4.96863 77.5935 4.96863 77.5935 4.96863 77.5935C4.96863 77.5935 4.96863 77.5935 4.96863 77.5935C4.96863 77.5935 4.96863 77.5935 4.96863 77.5935C4.96863 77.5935 4.96863 77.5935 4.96863 77.5935C4.96863 77.5935 4.96863 77.5935 4.96863 77.5935C4.96863 77.5935 4.96863 77.5935 4.96863 77.5935C4.96863 77.5935 4.96863 77.5935 4.96863 77.5935C4.96863 77.5935 4.96863 77.5935 4.96863 77.5935C4.96863 77.5935 4.96863 77.5935 4.96863 77.5935C4.96863 77.5935 4.96863 77.5935 4.96863 77.5935C4.96863 77.5935 4.96863 77.5935 4.96863 77.5935C4.96863 77.5935 4.96863 77.5935 4.96863 77.5935C4.96863 77.5935 4.96863 77.5935 4.96863 77.5935C4.96863 77.5935 4.96863 77.5935 4.96863 77.5935C4.96863 77.5935 4.96863 77.5935 4.96863 77.5935C4.96863 77.5935 4.96863 77.5935 4.96863 77.5935C4.96863 77.5935 4.96863 77.5935 4.96863 77.5935C4.96863 77.5935 4.96863 77.5935 4.96863 77.5935C4.96863 77.5935 4.96863 77.5935 4.96863 77.5935C4.96863 77.5935 4.96863 77.5935 4.96863 77.5935C4.96863 77.5935 4.96863 77.5935 4.96863 77.5935C4.96863 77.5935 4.96863 77.5935 4.96863 77.5935C4.96863 77.5935 4.96863 77.5935 4.96863 77.5935C4.96863 77.5935 4.96863 77.5935 4.96863 77.5935C4.96863 77.5935 4.96863 77.5935 4.96863 77.5935C4.96863 77.5935 4.96863 77.5935 4.96863 77.5935C4.96863 77.5935 4.96863 77.5935 4.96863 77.5935C4.96863 77.5935 4.96863 77.5935 4.96863 77.5935C4.96863 77.5935 4.96863 77.5935 4.96863 77.5935C4.96863 77.5935 4.96863 77.5935 4.96863 77.5935C4.96863 77.5935 4.96863 77.5935 4.96863 77.5935C4.96863 77.5935 4.96863 77.5935 4.96863 77.5935C4.96863 77.5935 4.96863 77.5935 4.96863 77.5935C4.96863 77.5935 4.96863 77.5935 4.96863 77.5935C4.96863 77.5935 4.96863 77.5935 4.96863 77.5935C4.96863 77.5935 4.96863 77.5935 4.96863 77.5935C4.96863 77.5935 4.96863 77.5935 4.96863 77.5935C4.96863 77.5935 4.96863 77.5935 4.96863 77.5935C4.96863 77.5935 4.96863 77.5935 4.96863 77.5935C4.96863 77.5935 4.96863 77.5935 4.96863 77.5935C4.96863 77.5935 4.96863 77.5935 4.96863 77.5935C4.96863 77.5935 4.96863 77.5935 4.96863 77.5935C4.96863 77.5935 4.96863 77.5935 4.96863 77.5935C4.96863 77.5935 4.96863 77.5935 4.96863 77.5935C4.96863 77.5935 4.96863 77.5935 4.96863 77.5935C4.96863 77.5935 4.96863 77.5935 4.96863 77.5935C4.96863 77.5935 4.96863 77.5935 4.96863 77.5935C4.96863 77.5935 4.96863 77.5935 4.96863 77.5935C4.96863 77.5935 4.96863 77.5935 4.96863 77.5935C4.96863 77.5935 4.96863 77.5935 4.96863 77.5935C4.96863 77.5935 4.96863 77.5935 4.96863 77.5935C4.96863 77.5935 4.96863 77.5935 4.96863 77.5935C4.96863 77.5935 4.96863 77.5935 4.96863 77.5935C4.96863 77.5935 4.96863 77.5935 4.96863 77.5935C4.96863 77.5935 4.96863 77.5935 4.96863 77.5935C4.96863 77.5935 4.96863 77.5935 4.96863 77.5935C4.96863 77.5935 4.96863 77.5935 4.96863 77.5935C4.96863 77.5935 4.96863 77.5935 4.96863 77.5935C4.96863 77.5935 4.96863 77.5935 4.96863 77.5935C4.96863 77.5935 4.96863 77.5935 4.96863 77.5935C4.96863 77.5935 4.96863 77.5935 4.96863 77.5935C4.96863 77.5935 4.96863 77.5935 4.96863 77.5935C4.96863 77.5935 4.96863 77.5935 4.96863 77.5935C4.96863 77.5935 4.96863 77.5935 4.96863 77.5935C4.96863 77.5935 4.96863 77.5935 4.96863 77.5935C4.96863 77.5935 4.96863 77.5935 4.96863 77.5935C4.96863 77.5935 4.96863 77.5935 4.96863 77.5935C4.96863 77.5935 4.96863 77.5935 4.96863 77.5935C4.96863 77.5935 4.96863 77.5935 4.96863 77.5935C4.96863 77.5935 4.96863 77.5935 4.96863 77.5935C4.96863 77.5935 4.96863 77.5935 4.96863 77.5935C4.96863 77.5935 4.96863 77.5935 4.96863 77.5935C4.96863 77.5935 4.96863 77.5935 4.96863 77.5935C4.96863 77.5935 4.96863 77.5935 4.96863 77.5935C4.96863 77.5935 4.96863 77.5935 4.96863 77.5935C4.96863 77.5935 4.96863 77.5935 4.96863 77.5935C4.96863 77.5935 4.96863 77.5935 4.96863 77.5935C4.96863 77.5935 4.96863 77.5935 4.96863 77.5935C4.96863 77.5935 4.96863 77.5935 4.96863 77.5935C4.96863 77.5935 4.96863 77.5935 4.96863 77.5935C4.96863 77.5935 4.96863 77.5935 4.96863 77.5935C4.96863 77.5935 4.96863 77.5935 4.96863 77.5935C4.96863 77.5935 4.96863 77.5935 4.96863 77.5935C4.96863 77.5935 4.96863 77.5935 4.96863 77.5935C4.96863 77.5935 4.96863 77.5935 4.96863 77.5935C4.96863 77.5935 4.96863 77.5935 4.96863 77.5935C4.96863 77.5935 4.96863 77.5935 4.96863 77.5935C4.96863 77.5935 4.96863 77.5935 4.96863 77.5935C4.96863 77.5935 4.96863 77.5935 4.96863 77.5935C4.96863 77.5935 4.96863 77.5935 4.96863 77.5935C4.96863 77.5935 4.96863 77.5935 4.96863 77.5935C4.96863 77.5935 4.96863 77.5935 4.96863 77.5935C4.96863 77.5935 4.96863 77.5935 4.96863 77.5935C4.96863 77.5935 4.96863 77.5935 4.96863 77.5935C4.96863 77.5935 4.96863 77.5935 4.96863 77.5935C4.96863 77.5935 4.96863 77.5935 4.96863 77.5935C4.96863 77.5935 4.96863 77.5935 4.96863 77.5935C4.96863 77.5935 4.96863 77.5935 4.96863 77.5935C4.96863 77.5935 4.96863 77.5935 4.96863 77.5935C4.96863 77.5935 4.96863 77.5935 4.96863 77.5935C4.96863 77.5935 4.96863 77.5935 4.96863 77.5935C4.96863 77.5935 4.96863 77.5935 4.96863 77.5935C4.96863 77.5935 4.96863 77.5935 4.96863 77.5935C4.96863 77.5935 4.96863 77.5935 4.96863 77.5935C4.96863 77.5935 4.96863 77.5935 4.96863 77.5935C4.96863 77.5935 4.96863 77.5935 4.96863 77.5935C4.96863 77.5935 4.96863 77.5935 4.96863 77.5935C4.96863 77.5935 4.96863 77.5935 4.96863 77.5935C4.96863 77.5935 4.96863 77.5935 4.96863 77.5935C4.96863 77.5935 4.96863 77.5935 4.96863 77.5935C4.96863 77.5935 4.96863 77.5935 4.96863 77.5935C4.96863 77.5935 4.96863 77.5935 4.96863 77.5935C4.96863 77.5935 4.96863 77.5935 4.96863 77.5935C4.96863 77.5935 4.96863 77.5935 4.96863 77.5935C4.96863 77.5935 4.96863 77.5935 4.96863 77.5935C4.96863 77.5935 4.96863 77.5935 4.96863 77.5935C4.96863 77.5935 4.96863 77.5935 4.96863 77.5935C4.96863 77.5935 4.96863 77.5935 4.96863 77.5935C4.96863 77.5935 4.96863 77.5935 4.96863 77.5935C4.96863 77.5935 4.96863 77.5935 4.96863 77.5935C4.96863 77.5935 4.96863 77.5935 4.96863 77.5935C4.96863 77.5935 4.96863 77.5935 4.96863 77.5935C4.96863 77.5935 4.96863 77.5935 4.96863 77.5935C4.96863 77.5935 4.96863 77.5935 4.96863 77.5935C4.96863 77.5935 4.96863 77.5935 4.96863 77.5935C4.96863 77.5935 4.96863 77.5935 4.96863 77.5935C4.96863 77.5935 4.96863 77.5935 4.96863 77.5935C4.96863 77.5935 4.96863 77.5935 4.96863 77.5935C4.96863 77.5935 4.96863 77.5935 4.96863 77.5935C4.96863 77.5935 4.96863 77.5935 4.96863 77.5935C4.96863 77.5935 4.96863 77.5935 4.96863 77.5935C4.96863 77.5935 4.96863 77.5935 4.96863 77.5935C4.96863 77.5935 4.96863 77.5935 4.96863 77.5935C4.96863 77.5935 4.96863 77.5935 4.96863 77.5935C4.96863 77.5935 4.96863 77.5935 4.96863 77.5935C4.96863 77.5935 4.96863 77.5935 4.96863 77.5935C4.96863 77.5935 4.96863 77.5935 4.96863 77.5935C4.96863 77.5935 4.96863 77.5935 4.96863 77.5935C4.96863 77.5935 4.96863 77.5935 4.96863 77.5935C4.96863 77.5935 4.96863 77.5935 4.96863 77.5935C4.96863 77.5935 4.96863 77.5935 4.96863 77.5935C4.96863 77.5935 4.96863 77.5935 4.96863 77.5935C4.96863 77.5935 4.96863 77.5935 4.96863 77.5935C4.96863 77.5935 4.96863 77.5935 4.96863 77.5935C4.96863 77.5935 4.96863 77.5935 4.96863 77.5935C4.96863 77.5935 4.96863 77.5935 4.96863 77.5935C4.96863 77.5935 4.96863 77.5935 4.96863 77.5935C4.96863 77.5935 4.96863 77.5935 4.96863 77.5935C4.96863 77.5935 4.96863 77.5935 4.96863 77.5935C4.96863 77.5935 4.96863 77.5935 4.96863 77.5935C4.96863 77.5935 4.96863 77.5935 4.96863 77.5935C4.96863 77.5935 4.96863 77.5935 4.96863 77.5935C4.96863 77.5935 4.96863 77.5935 4.96863 77.5935C4.96863 77.5935 4.96863 77.5935 4.96863 77.5935C4.96863 77.5935 4.96863 77.5935 4.96863 77.5935C4.96863 77.5935 4.96863 77.5935 4.96863 77.5935C4.96863 77.5935 4.96863 77.5935 4.96863 77.5935C4.96863 77.5935 4.96863 77.5935 4.96863 77.5935C4.96863 77.5935 4.96863 77.5935 4.96863 77.5935C4.96863 77.5935 4.96863 77.5935 4.96863 77.5935C4.96863 77.5935 4.96863 77.5935 4.96863 77.5935C4.96863 77.5935 4.96863 77.5935 4.96863 77.5935C4.96863 77.5935 4.96863 77.5935 4.96863 77.5935C4.96863 77.5935 4.96863 77.5935 4.96863 77.5935C4.96863 77.5935 4.96863 77.5935 4.96863 77.5935C4.96863 77.5935 4.96863 77.5935 4.96863 77.5935C4.96863 77.5935 4.96863 77.5935 4.96863 77.5935C4.96863 77.5935 4.96863 77.5935 4.96863 77.5935C4.96863 77.5935 4.96863 77.5935 4.96863 77.5935C4.96863 77.5935 4.96863 77.5935 4.96863 77.5935C4.96863 77.5935 4.96863 77.5935 4.96863 77.5935C4.96863 77.5935 4.96863 77.5935 4.96863 77.5935C4.96863 77.5935 4.96863 77.5935 4.96863 77.5935C4.96863 77.5935 4.96863 77.5935 4.96863 77.5935C4.96863 77.5935 4.96863 77.5935 4.96863 77.5935C4.96863 77.5935 4.96863 77.5935 4.96863 77.5935C4.96863 77.5935 4.96863 77.5935 4.96863 77.5935C4.96863 77.5935 4.96863 77.5935 4.96863 77.5935C4.96863 77.5935 4.96863 77.5935 4.96863 77.5935C4.96863 77.5935 4.96863 77.5935 4.96863 77.5935C4.96863 77.5935 4.96863 77.5935 4.96863 77.5935C4.96863 77.5935 4.96863 77.5935 4.96863 77.5935C4.96863 77.5935 4.96863 77.5935 4.96863 77.5935C4.96863 77.5935 4.96863 77.5935 4.96863 77.5935C4.96863 77.5935 4.96863 77.5935 4.96863 77.5935C4.96863 77.5935 4.96863 77.5935 4.96863 77.5935C4.96863 77.5935 4.96863 77.5935 4.96863 77.5935C4.96863 77.5935 4.96863 77.5935 4.96863 77.5935C4.96863 77.5935 4.96863 77.5935 4.96863 77.5935C4.96863 77.5935 4.96863 77.5935 4.96863 77.5935C4.96863 77.5935 4.96863 77.5935 4.96863 77.5935C4.96863 77.5935 4.96863 77.5935 4.96863 77.5935C4.96863 77.5935 4.96863 77.5935 4.96863 77.5935C4.96863 77.5935 4.96863 77.5935 4.96863 77.5935C4.96863 77.5935 4.96863 77.5935 4.96863 77.5935C4.96863 77.5935 4.96863 77.5935 4.96863 77.5935C4.96863 77.5935 4.96863 77.5935 4.96863 77.5935C4.96863 77.5935 4.96863 77.5935 4.96863 77.5935C4.96863 77.5935 4.96863 77.5935 4.96863 77.5935C4.96863 77.5935 4.96863 77.5935 4.96863 77.5935C4.96863 77.5935 4.96863 77.5935 4.96863 77.5935C4.96863 77.5935 4.96863 77.5935 4.96863 77.5935C4.96863 77.5935 4.96863 77.5935 4.96863 77.5935C4.96863 77.5935 4.96863 77.5935 4.96863 77.5935C4.96863 77.5935 4.96863 77.5935 4.96863 77.5935C4.96863 77.5935 4.96863 77.5935 4.96863 77.5935C4.96863 77.5935 4.96863 77.5935 4.96863 77.5935C4.96863 77.5935 4.96863 77.5935 4.96863 77.5935C4.96863 77.5935 4.96863 77.5935 4.96863 77.5935C4.96863 77.5935 4.96863 77.5935 4.96863 77.5935C4.96863 77.5935 4.96863 77.5935 4.96863 77.5935C4.96863 77.5935 4.96863 77.5935 4.96863 77.5935C4.96863 77.5935 4.96863 77.5935 4.96863 77.5935C4.96863 77.5935 4.96863 77.5935 4.96863 77.5935C4.96863 77.5935 4.96863 77.5935 4.96863 77.5935C4.96863 77.5935 4.96863 77.5935 4.96863 77.5935C4.96863 77.5935 4.96863 77.5935 4.96863 77.5935C4.96863 77.5935 4.96863 77.5935 4.96863 77.5935C4.96863 77.5935 4.96863 77.5935 4.96863 77.5935C4.96863 77.5935 4.96863 77.5935 4.96863 77.5935C4.96863 77.5935 4.96863 77.5935 4.96863 77.5935C4.96863 77.5935 4.96863 77.5935 4.96863 77.5935C4.96863 77.5935 4.96863 77.5935 4.96863 77.5935C4.96863 77.5935 4.96863 77.5935 4.96863 77.5935C4.96863 77.5935 4.96863 77.5935 4.96863 77.5935C4.96863 77.5935 4.96863 77.5935 4.96863 77.5935C4.96863 77.5935 4.96863 77.5935 4.96863 77.5935C4.96863 77.5935 4.96863 77.5935 4.96863 77.5935C4.96863 77.5935 4.96863 77.5935 4.96863 77.5935C4.96863 77.5935 4.96863 77.5935 4.96863 77.5935C4.96863 77.5935 4.96863 77.5935 4.96863 77.5935C4.96863 77.5935 4.96863 77.5935 4.96863 77.5935C4.96863 77.5935 4.96863 77.5935 4.96863 77.5935C4.96863 77.5935 4.96863 77.5935 4.96863 77.5935C4.96863 77.5935 4.96863 77.5935 4.96863 77.5935C4.96863 77.5935 4.96863 77.5935 4.96863 77.5935C4.96863 77.5935 4.96863 77.5935 4.96863 77.5935C4.96863 77.5935 4.96863 77.5935 4.96863 77.5935C4.96863 77.5935 4.96863 77.5935 4.96863 77.5935C4.96863 77.5935 4.96863 77.5935 4.96863 77.5935C4.96863 77.5935 4.96863 77.5935 4.96863 77.5935C4.96863 77.5935 4.96863 77.5935 4.96863 77.5935C4.96863 77.5935 4.96863 77.5935 4.96863 77.5935C4.96863 77.5935 4.96863 77.5935 4.96863 77.5935C4.96863 77.5935 4.96863 77.5935 4.96863 77.5935C4.96863 77.5935 4.96863 77.5935 4.96863 77.5935C4.96863 77.5935 4.96863 77.5935 4.96863 77.5935C4.96863 77.5935 4.96863 77.5935 4.96863 77.5935C4.96863 77.5935 4.96863 77.5935 4.96863 77.5935C4.96863 77.5935 4.96863 77.5935 4.96863 77.5935C4.96863 77.5935 4.96863 77.5935 4.96863 77.5935C4.96863 77.5935 4.96863 77.5935 4.96863 77.5935C4.96863 77.5935 4.96863 77.5935 4.96863 77.5935C4.96863 77.5935 4.96863 77.5935 4.96863 77.5935C4.96863 77.5935 4.96863 77.5935 4.96863 77.5935C4.96863 77.5935 4.96863 77.5935 4.96863 77.5935C4.96863 77.5935 4.96863 77.5935 4.96863 77.5935C4.96863 77.5935 4.96863 77.5935 4.96863 77.5935C4.96863 77.5935 4.96863 77.5935 4.96863 77.5935C4.96863 77.5935 4.96863 77.5935 4.96863 77.5935C4.96863 77.5935 4.96863 77.5935 4.96863 77.5935C4.96863 77.5935 4.96863 77.5935 4.96863 77.5935C4.96863 77.5935 4.96863 77.5935 4.96863 77.5935C4.96863 77.5935 4.96863 77.5935 4.96863 77.5935C4.96863 77.5935 4.96863 77.5935 4.96863 77.5935C4.96863 77.5935 4.96863 77.5935 4.96863 77.5935C4.96863 77.5935 4.96863 77.5935 4.96863 77.5935C4.96863 77.5935 4.96863 77.5935 4.96863 77.5935C4.96863 77.5935 4.96863 77.5935 4.96863 77.5935C4.96863 77.5935 4.96863 77.5935 4.96863 77.5935C4.96863 77.5935 4.96863 77.5935 4.96863 77.5935C4.96863 77.5935 4.96863 77.5935 4.96863 77.5935C4.96863 77.5935 4.96863 77.5935 4.96863 77.5935C4.96863 77.5935 4.96863 77.5935 4.96863 77.5935C4.96863 77.5935 4.96863 77.5935 4.96863 77.5935C4.96863 77.5935 4.96863 77.5935 4.96863 77.5935C4.96863 77.5935 4.96863 77.5935 4.96863 77.5935C4.96863 77.5935 4.96863 77.5935 4.96863 77.5935C4.96863 77.5935 4.96863 77.5935 4.96863 77.5935C4.96863 77.5935 4.96863 77.5935 4.96863 77.5935C4.96863 77.5935 4.96863 77.5935 4.96863 77.5935C4.96863 77.5935 4.96863 77.5935 4.96863 77.5935C4.96863 77.5935 4.96863 77.5935 4.96863 77.5935C4.96863 77.5935 4.96863 77.5935 4.96863 77.5935C4.96863 77.5935 4.96863 77.5935 4.96863 77.5935C4.96863 77.5935 4.96863 77.5935 4.96863 77.5935C4.96863 77.5935 4.96863 77.5935 4.96863 77.5935C4.96863 77.5935 4.96863 77.5935 4.96863 77.5935H6.96863ZM6.96863 89.7234V77.5935H4.96863V89.7234H6.96863ZM7.89402 88.7234H5.96863V90.7234H7.89402V88.7234ZM6.89402 77.5935V89.7234H8.89402V77.5935H6.89402ZM12.9 76.5935H7.89402V78.5935H12.9V76.5935ZM11.9 75.7974V77.5935H13.9V75.7974H11.9ZM7.76472 76.7974H12.9V74.7974H7.76472V76.7974ZM6.96863 77.5935C6.96863 77.1538 7.32505 76.7974 7.76472 76.7974V74.7974C6.22049 74.7974 4.96864 76.0492 4.96863 77.5934L6.96863 77.5935Z" fill="white" mask="url(#path-34-outside-3)"/>
<path d="M3.93134 91.2417C3.93134 90.1371 4.82677 89.2417 5.93134 89.2417H7.93134C9.03591 89.2417 9.93134 90.1371 9.93134 91.2417V91.2417H3.93134V91.2417Z" fill="white"/>
<path d="M29.2286 73.8232C30.3331 73.8232 31.2286 74.7187 31.2286 75.8232V77.8232C31.2286 78.9278 30.3331 79.8232 29.2286 79.8232V79.8232V73.8232V73.8232Z" fill="white"/>
<path d="M54.0661 73.8228C55.1707 73.8228 56.0661 74.7182 56.0661 75.8228V77.8228C56.0661 78.9273 55.1707 79.8228 54.0661 79.8228V79.8228V73.8228V73.8228Z" fill="white"/>
<path d="M66.6558 68.8486C65.5512 68.8486 64.6558 67.9532 64.6558 66.8486V64.8486C64.6558 63.7441 65.5512 62.8486 66.6558 62.8486V62.8486V68.8486V68.8486Z" fill="white"/>
<mask id="path-40-inside-4" fill="white">
<path fill-rule="evenodd" clip-rule="evenodd" d="M115.866 26.5063C115.039 26.5063 114.368 27.177 114.368 28.0043C114.368 28.643 114.768 29.1883 115.331 29.4037V60.6811C113.673 61.0885 112.443 62.585 112.443 64.3688H124.958C124.958 62.585 123.728 61.0884 122.07 60.6811V29.4038C122.633 29.1883 123.032 28.643 123.032 28.0043C123.032 27.177 122.362 26.5063 121.535 26.5063H115.866Z"/>
</mask>
<path fill-rule="evenodd" clip-rule="evenodd" d="M115.866 26.5063C115.039 26.5063 114.368 27.177 114.368 28.0043C114.368 28.643 114.768 29.1883 115.331 29.4037V60.6811C113.673 61.0885 112.443 62.585 112.443 64.3688H124.958C124.958 62.585 123.728 61.0884 122.07 60.6811V29.4038C122.633 29.1883 123.032 28.643 123.032 28.0043C123.032 27.177 122.362 26.5063 121.535 26.5063H115.866Z" fill="black"/>
<path d="M115.331 29.4037H116.331V28.7157L115.688 28.4698L115.331 29.4037ZM115.331 60.6811L115.569 61.6522L116.331 61.4651V60.6811H115.331ZM112.443 64.3688H111.443V65.3688H112.443V64.3688ZM124.958 64.3688V65.3688H125.958V64.3688H124.958ZM122.07 60.6811H121.07V61.4651L121.831 61.6522L122.07 60.6811ZM122.07 29.4038L121.712 28.4698L121.07 28.7157V29.4038H122.07ZM115.368 28.0043C115.368 27.7293 115.591 27.5063 115.866 27.5063V25.5063C114.487 25.5063 113.368 26.6247 113.368 28.0043H115.368ZM115.688 28.4698C115.499 28.3975 115.368 28.215 115.368 28.0043H113.368C113.368 29.0709 114.036 29.979 114.973 30.3377L115.688 28.4698ZM114.331 29.4037V60.6811H116.331V29.4037H114.331ZM115.092 59.71C112.998 60.2246 111.443 62.1139 111.443 64.3688H113.443C113.443 63.0561 114.348 61.9523 115.569 61.6522L115.092 59.71ZM112.443 65.3688H124.958V63.3688H112.443V65.3688ZM125.958 64.3688C125.958 62.1139 124.403 60.2246 122.308 59.7099L121.831 61.6522C123.053 61.9523 123.958 63.0561 123.958 64.3688H125.958ZM123.07 60.6811V29.4038H121.07V60.6811H123.07ZM122.032 28.0043C122.032 28.215 121.901 28.3976 121.712 28.4698L122.427 30.3377C123.364 29.9791 124.032 29.071 124.032 28.0043H122.032ZM121.535 27.5063C121.809 27.5063 122.032 27.7293 122.032 28.0043H124.032C124.032 26.6247 122.914 25.5063 121.535 25.5063V27.5063ZM115.866 27.5063H121.535V25.5063H115.866V27.5063Z" fill="white" mask="url(#path-40-inside-4)"/>
<mask id="path-42-inside-5" fill="white">
<path fill-rule="evenodd" clip-rule="evenodd" d="M137.136 36.0254C136.259 36.0254 135.547 36.7366 135.547 37.614C135.547 38.2692 135.944 38.8317 136.51 39.0746V60.5017C134.841 60.9948 133.622 62.5396 133.622 64.369H149.025C149.025 62.5396 147.807 60.9947 146.137 60.5017V39.0746C146.703 38.8316 147.1 38.2691 147.1 37.614C147.1 36.7366 146.389 36.0254 145.511 36.0254H137.136Z"/>
</mask>
<path fill-rule="evenodd" clip-rule="evenodd" d="M137.136 36.0254C136.259 36.0254 135.547 36.7366 135.547 37.614C135.547 38.2692 135.944 38.8317 136.51 39.0746V60.5017C134.841 60.9948 133.622 62.5396 133.622 64.369H149.025C149.025 62.5396 147.807 60.9947 146.137 60.5017V39.0746C146.703 38.8316 147.1 38.2691 147.1 37.614C147.1 36.7366 146.389 36.0254 145.511 36.0254H137.136Z" fill="black"/>
<path d="M136.51 39.0746H137.51V38.4155L136.905 38.1556L136.51 39.0746ZM136.51 60.5017L136.793 61.4608L137.51 61.2492V60.5017H136.51ZM133.622 64.369H132.622V65.369H133.622V64.369ZM149.025 64.369V65.369H150.025V64.369H149.025ZM146.137 60.5017H145.137V61.2492L145.854 61.4608L146.137 60.5017ZM146.137 39.0746L145.743 38.1556L145.137 38.4155V39.0746H146.137ZM136.547 37.614C136.547 37.2889 136.811 37.0254 137.136 37.0254V35.0254C135.706 35.0254 134.547 36.1844 134.547 37.614H136.547ZM136.905 38.1556C136.693 38.0647 136.547 37.8552 136.547 37.614H134.547C134.547 38.6831 135.195 39.5986 136.116 39.9936L136.905 38.1556ZM135.51 39.0746V60.5017H137.51V39.0746H135.51ZM136.227 59.5427C134.144 60.1578 132.622 62.0844 132.622 64.369H134.622C134.622 62.9948 135.537 61.8317 136.793 61.4608L136.227 59.5427ZM133.622 65.369H149.025V63.369H133.622V65.369ZM150.025 64.369C150.025 62.0843 148.503 60.1577 146.42 59.5427L145.854 61.4608C147.11 61.8317 148.025 62.9948 148.025 64.369H150.025ZM147.137 60.5017V39.0746H145.137V60.5017H147.137ZM146.1 37.614C146.1 37.8552 145.955 38.0647 145.743 38.1556L146.532 39.9936C147.452 39.5985 148.1 38.6831 148.1 37.614H146.1ZM145.511 37.0254C145.836 37.0254 146.1 37.2889 146.1 37.614H148.1C148.1 36.1844 146.941 35.0254 145.511 35.0254V37.0254ZM137.136 37.0254H145.511V35.0254H137.136V37.0254Z" fill="white" mask="url(#path-42-inside-5)"/>
<path d="M90.2252 23.6045L93.5872 51.2928H75.462L78.824 23.6045H90.2252Z" fill="black" stroke="white"/>
<path d="M77.9753 28.2896H90.9484L91.2931 31.1776H77.6316L77.9753 28.2896Z" fill="white"/>
<path d="M77.0546 35.9082H91.7108L92.0758 38.9888H76.7066L77.0546 35.9082Z" fill="white"/>
<mask id="path-47-inside-6" fill="white">
<path fill-rule="evenodd" clip-rule="evenodd" d="M29.3102 56.8926C29.3102 53.227 26.7493 50.1596 23.3191 49.3817C23.2061 48.7816 22.6793 48.3276 22.0464 48.3276H21.1708C20.5379 48.3276 20.0111 48.7816 19.8981 49.3817C16.4679 50.1596 13.907 53.227 13.907 56.8926V79.9973C13.907 80.9104 14.0659 81.7864 14.3576 82.5991H14.2197C12.9837 82.5991 11.9816 83.6012 11.9816 84.8372C11.9816 86.0733 12.9837 87.0753 14.2197 87.0753H14.8566L11.6758 91.6242H16.8044L19.4866 87.4028C20.1607 87.5956 20.8726 87.6989 21.6086 87.6989C22.3624 87.6989 23.0909 87.5906 23.7793 87.3887L26.3243 91.3941H31.4528L28.4329 87.0753H28.9974C30.2335 87.0753 31.2355 86.0733 31.2355 84.8372C31.2355 83.6012 30.2335 82.5991 28.9974 82.5991H28.8596C29.1513 81.7864 29.3102 80.9104 29.3102 79.9973V56.8926Z"/>
</mask>
<path fill-rule="evenodd" clip-rule="evenodd" d="M29.3102 56.8926C29.3102 53.227 26.7493 50.1596 23.3191 49.3817C23.2061 48.7816 22.6793 48.3276 22.0464 48.3276H21.1708C20.5379 48.3276 20.0111 48.7816 19.8981 49.3817C16.4679 50.1596 13.907 53.227 13.907 56.8926V79.9973C13.907 80.9104 14.0659 81.7864 14.3576 82.5991H14.2197C12.9837 82.5991 11.9816 83.6012 11.9816 84.8372C11.9816 86.0733 12.9837 87.0753 14.2197 87.0753H14.8566L11.6758 91.6242H16.8044L19.4866 87.4028C20.1607 87.5956 20.8726 87.6989 21.6086 87.6989C22.3624 87.6989 23.0909 87.5906 23.7793 87.3887L26.3243 91.3941H31.4528L28.4329 87.0753H28.9974C30.2335 87.0753 31.2355 86.0733 31.2355 84.8372C31.2355 83.6012 30.2335 82.5991 28.9974 82.5991H28.8596C29.1513 81.7864 29.3102 80.9104 29.3102 79.9973V56.8926Z" fill="black"/>
<path d="M23.3191 49.3817L22.3363 49.5667L22.4577 50.2117L23.0979 50.3569L23.3191 49.3817ZM19.8981 49.3817L20.1193 50.3569L20.7595 50.2117L20.8809 49.5667L19.8981 49.3817ZM14.3576 82.5991V83.5991H15.7789L15.2988 82.2613L14.3576 82.5991ZM14.8566 87.0753L15.6761 87.6484L16.7761 86.0753H14.8566V87.0753ZM11.6758 91.6242L10.8563 91.0511L9.75637 92.6242H11.6758V91.6242ZM16.8044 91.6242V92.6242H17.3538L17.6484 92.1605L16.8044 91.6242ZM19.4866 87.4028L19.7616 86.4414L19.0432 86.2359L18.6425 86.8665L19.4866 87.4028ZM23.7793 87.3887L24.6234 86.8524L24.2199 86.2174L23.498 86.4291L23.7793 87.3887ZM26.3243 91.3941L25.4802 91.9304L25.7749 92.3941H26.3243V91.3941ZM31.4528 91.3941V92.3941H33.3723L32.2723 90.821L31.4528 91.3941ZM28.4329 87.0753V86.0753H26.5135L27.6134 87.6484L28.4329 87.0753ZM28.8596 82.5991L27.9184 82.2613L27.4383 83.5991H28.8596V82.5991ZM23.0979 50.3569C26.0826 51.0338 28.3102 53.7042 28.3102 56.8926H30.3102C30.3102 52.7498 27.416 49.2854 23.5402 48.4064L23.0979 50.3569ZM22.0464 49.3276C22.1895 49.3276 22.3107 49.4305 22.3363 49.5667L24.3018 49.1967C24.1015 48.1327 23.169 47.3276 22.0464 47.3276V49.3276ZM21.1708 49.3276H22.0464V47.3276H21.1708V49.3276ZM20.8809 49.5667C20.9065 49.4305 21.0277 49.3276 21.1708 49.3276V47.3276C20.0482 47.3276 19.1157 48.1327 18.9154 49.1967L20.8809 49.5667ZM14.907 56.8926C14.907 53.7042 17.1346 51.0338 20.1193 50.3569L19.677 48.4064C15.8012 49.2854 12.907 52.7498 12.907 56.8926H14.907ZM14.907 79.9973V56.8926H12.907V79.9973H14.907ZM15.2988 82.2613C15.0455 81.5554 14.907 80.7936 14.907 79.9973H12.907C12.907 81.0272 13.0864 82.0173 13.4164 82.9369L15.2988 82.2613ZM14.2197 83.5991H14.3576V81.5991H14.2197V83.5991ZM12.9816 84.8372C12.9816 84.1534 13.5359 83.5991 14.2197 83.5991V81.5991C12.4314 81.5991 10.9816 83.0489 10.9816 84.8372H12.9816ZM14.2197 86.0753C13.5359 86.0753 12.9816 85.521 12.9816 84.8372H10.9816C10.9816 86.6256 12.4314 88.0753 14.2197 88.0753V86.0753ZM14.8566 86.0753H14.2197V88.0753H14.8566V86.0753ZM12.4954 92.1972L15.6761 87.6484L14.0371 86.5023L10.8563 91.0511L12.4954 92.1972ZM16.8044 90.6242H11.6758V92.6242H16.8044V90.6242ZM18.6425 86.8665L15.9603 91.0879L17.6484 92.1605L20.3306 87.9391L18.6425 86.8665ZM21.6086 86.6989C20.9665 86.6989 20.3471 86.6089 19.7616 86.4414L19.2116 88.3643C19.9742 88.5824 20.7786 88.6989 21.6086 88.6989V86.6989ZM23.498 86.4291C22.8999 86.6045 22.2662 86.6989 21.6086 86.6989V88.6989C22.4586 88.6989 23.2818 88.5767 24.0607 88.3483L23.498 86.4291ZM27.1683 90.8578L24.6234 86.8524L22.9353 87.925L25.4802 91.9304L27.1683 90.8578ZM31.4528 90.3941H26.3243V92.3941H31.4528V90.3941ZM27.6134 87.6484L30.6333 91.9671L32.2723 90.821L29.2525 86.5023L27.6134 87.6484ZM28.9974 86.0753H28.4329V88.0753H28.9974V86.0753ZM30.2355 84.8372C30.2355 85.521 29.6812 86.0753 28.9974 86.0753V88.0753C30.7858 88.0753 32.2355 86.6256 32.2355 84.8372H30.2355ZM28.9974 83.5991C29.6812 83.5991 30.2355 84.1534 30.2355 84.8372H32.2355C32.2355 83.0489 30.7858 81.5991 28.9974 81.5991V83.5991ZM28.8596 83.5991H28.9974V81.5991H28.8596V83.5991ZM28.3102 79.9973C28.3102 80.7936 28.1717 81.5554 27.9184 82.2613L29.8008 82.9369C30.1308 82.0173 30.3102 81.0272 30.3102 79.9973H28.3102ZM28.3102 56.8926V79.9973H30.3102V56.8926H28.3102Z" fill="white" mask="url(#path-47-inside-6)"/>
<circle cx="21.3719" cy="76.8232" r="3" fill="#6FCCFF"/>
<mask id="path-50-inside-7" fill="white">
<path fill-rule="evenodd" clip-rule="evenodd" d="M54.1477 56.8926C54.1477 53.227 51.5868 50.1596 48.1566 49.3817C48.0436 48.7816 47.5168 48.3276 46.8839 48.3276H46.0084C45.3755 48.3276 44.8486 48.7816 44.7357 49.3817C41.3054 50.1596 38.7446 53.227 38.7446 56.8926V79.9973C38.7446 80.9104 38.9035 81.7864 39.1951 82.5991H39.0572C37.8212 82.5991 36.8191 83.6012 36.8191 84.8372C36.8191 86.0733 37.8212 87.0753 39.0572 87.0753H39.6941L36.5134 91.6242H41.6419L44.3241 87.4028C44.9982 87.5956 45.7101 87.6989 46.4461 87.6989C47.1999 87.6989 47.9284 87.5906 48.6169 87.3887L51.1618 91.3941H56.2903L53.2705 87.0753H53.835C55.071 87.0753 56.0731 86.0733 56.0731 84.8372C56.0731 83.6012 55.071 82.5991 53.835 82.5991H53.6971C53.9888 81.7864 54.1477 80.9104 54.1477 79.9973V56.8926Z"/>
</mask>
<path fill-rule="evenodd" clip-rule="evenodd" d="M54.1477 56.8926C54.1477 53.227 51.5868 50.1596 48.1566 49.3817C48.0436 48.7816 47.5168 48.3276 46.8839 48.3276H46.0084C45.3755 48.3276 44.8486 48.7816 44.7357 49.3817C41.3054 50.1596 38.7446 53.227 38.7446 56.8926V79.9973C38.7446 80.9104 38.9035 81.7864 39.1951 82.5991H39.0572C37.8212 82.5991 36.8191 83.6012 36.8191 84.8372C36.8191 86.0733 37.8212 87.0753 39.0572 87.0753H39.6941L36.5134 91.6242H41.6419L44.3241 87.4028C44.9982 87.5956 45.7101 87.6989 46.4461 87.6989C47.1999 87.6989 47.9284 87.5906 48.6169 87.3887L51.1618 91.3941H56.2903L53.2705 87.0753H53.835C55.071 87.0753 56.0731 86.0733 56.0731 84.8372C56.0731 83.6012 55.071 82.5991 53.835 82.5991H53.6971C53.9888 81.7864 54.1477 80.9104 54.1477 79.9973V56.8926Z" fill="black"/>
<path d="M48.1566 49.3817L47.1738 49.5667L47.2953 50.2117L47.9354 50.3569L48.1566 49.3817ZM44.7357 49.3817L44.9568 50.3569L45.597 50.2117L45.7184 49.5667L44.7357 49.3817ZM39.1951 82.5991V83.5991H40.6164L40.1364 82.2613L39.1951 82.5991ZM39.6941 87.0753L40.5137 87.6484L41.6136 86.0753H39.6941V87.0753ZM36.5134 91.6242L35.6938 91.0511L34.5939 92.6242H36.5134V91.6242ZM41.6419 91.6242V92.6242H42.1913L42.4859 92.1605L41.6419 91.6242ZM44.3241 87.4028L44.5991 86.4414L43.8807 86.2359L43.4801 86.8665L44.3241 87.4028ZM48.6169 87.3887L49.4609 86.8524L49.0574 86.2174L48.3355 86.4291L48.6169 87.3887ZM51.1618 91.3941L50.3178 91.9304L50.6124 92.3941H51.1618V91.3941ZM56.2903 91.3941V92.3941H58.2098L57.1099 90.821L56.2903 91.3941ZM53.2705 87.0753V86.0753H51.351L52.4509 87.6484L53.2705 87.0753ZM53.6971 82.5991L52.7559 82.2613L52.2758 83.5991H53.6971V82.5991ZM47.9354 50.3569C50.9201 51.0338 53.1477 53.7042 53.1477 56.8926H55.1477C55.1477 52.7498 52.2535 49.2854 48.3777 48.4064L47.9354 50.3569ZM46.8839 49.3276C47.027 49.3276 47.1482 49.4305 47.1738 49.5667L49.1393 49.1967C48.939 48.1327 48.0066 47.3276 46.8839 47.3276V49.3276ZM46.0084 49.3276H46.8839V47.3276H46.0084V49.3276ZM45.7184 49.5667C45.744 49.4305 45.8652 49.3276 46.0084 49.3276V47.3276C44.8857 47.3276 43.9532 48.1327 43.7529 49.1967L45.7184 49.5667ZM39.7446 56.8926C39.7446 53.7042 41.9721 51.0338 44.9568 50.3569L44.5145 48.4064C40.6387 49.2854 37.7446 52.7498 37.7446 56.8926H39.7446ZM39.7446 79.9973V56.8926H37.7446V79.9973H39.7446ZM40.1364 82.2613C39.883 81.5554 39.7446 80.7936 39.7446 79.9973H37.7446C37.7446 81.0272 37.9239 82.0173 38.2539 82.9369L40.1364 82.2613ZM39.0572 83.5991H39.1951V81.5991H39.0572V83.5991ZM37.8191 84.8372C37.8191 84.1534 38.3735 83.5991 39.0572 83.5991V81.5991C37.2689 81.5991 35.8191 83.0489 35.8191 84.8372H37.8191ZM39.0572 86.0753C38.3735 86.0753 37.8191 85.521 37.8191 84.8372H35.8191C35.8191 86.6256 37.2689 88.0753 39.0572 88.0753V86.0753ZM39.6941 86.0753H39.0572V88.0753H39.6941V86.0753ZM37.3329 92.1972L40.5137 87.6484L38.8746 86.5023L35.6938 91.0511L37.3329 92.1972ZM41.6419 90.6242H36.5134V92.6242H41.6419V90.6242ZM43.4801 86.8665L40.7979 91.0879L42.4859 92.1605L45.1681 87.9391L43.4801 86.8665ZM46.4461 86.6989C45.804 86.6989 45.1846 86.6089 44.5991 86.4414L44.0491 88.3643C44.8117 88.5824 45.6162 88.6989 46.4461 88.6989V86.6989ZM48.3355 86.4291C47.7375 86.6045 47.1037 86.6989 46.4461 86.6989V88.6989C47.2961 88.6989 48.1193 88.5767 48.8982 88.3483L48.3355 86.4291ZM52.0058 90.8578L49.4609 86.8524L47.7728 87.925L50.3178 91.9304L52.0058 90.8578ZM56.2903 90.3941H51.1618V92.3941H56.2903V90.3941ZM52.4509 87.6484L55.4708 91.9671L57.1099 90.821L54.09 86.5023L52.4509 87.6484ZM53.835 86.0753H53.2705V88.0753H53.835V86.0753ZM55.0731 84.8372C55.0731 85.521 54.5187 86.0753 53.835 86.0753V88.0753C55.6233 88.0753 57.0731 86.6256 57.0731 84.8372H55.0731ZM53.835 83.5991C54.5187 83.5991 55.0731 84.1534 55.0731 84.8372H57.0731C57.0731 83.0489 55.6233 81.5991 53.835 81.5991V83.5991ZM53.6971 83.5991H53.835V81.5991H53.6971V83.5991ZM53.1477 79.9973C53.1477 80.7936 53.0092 81.5554 52.7559 82.2613L54.6384 82.9369C54.9684 82.0173 55.1477 81.0272 55.1477 79.9973H53.1477ZM53.1477 56.8926V79.9973H55.1477V56.8926H53.1477Z" fill="white" mask="url(#path-50-inside-7)"/>
<circle cx="46.5944" cy="76.8232" r="3" fill="#6FCCFF"/>
<path d="M75.2827 108.977C75.2827 108.658 75.5413 108.399 75.8603 108.399H90.8784C91.1974 108.399 91.456 108.658 91.456 108.977V108.977H75.2827V108.977Z" fill="black"/>
<path d="M134.007 114.015C134.007 110.701 136.693 108.015 140.007 108.015H145.336C148.649 108.015 151.336 110.701 151.336 114.015V127.076H134.007V114.015Z" fill="white"/>
<path d="M104.356 114.014C104.356 110.7 107.042 108.014 110.356 108.014H115.685C118.998 108.014 121.685 110.7 121.685 114.014V127.076H104.356V114.014Z" fill="white"/>
<rect x="75.2827" y="109.555" width="16.1733" height="0.577617" fill="black"/>
<rect x="134.585" y="110.613" width="16.1733" height="0.577617" fill="black"/>
<rect x="134.585" y="111.768" width="16.1733" height="0.577617" fill="black"/>
<rect x="134.585" y="112.923" width="16.1733" height="0.577617" fill="black"/>
<rect x="134.585" y="114.079" width="16.1733" height="0.577617" fill="black"/>
<rect x="134.585" y="115.234" width="16.1733" height="0.577617" fill="black"/>
<rect x="134.585" y="116.389" width="16.1733" height="0.577617" fill="black"/>
<rect x="134.585" y="117.544" width="16.1733" height="0.577617" fill="black"/>
<rect x="134.585" y="118.7" width="16.1733" height="0.577617" fill="black"/>
<rect x="134.585" y="119.855" width="16.1733" height="0.577617" fill="black"/>
<rect x="134.585" y="121.01" width="16.1733" height="0.577617" fill="black"/>
<rect x="134.585" y="122.166" width="16.1733" height="0.577617" fill="black"/>
<rect x="134.585" y="123.321" width="16.1733" height="0.577617" fill="black"/>
<rect x="134.585" y="124.476" width="16.1733" height="0.577617" fill="black"/>
<rect x="134.585" y="125.631" width="16.1733" height="0.577617" fill="black"/>
<path d="M134.585 110.035C134.585 109.716 134.843 109.458 135.162 109.458H150.18C150.499 109.458 150.758 109.716 150.758 110.035V110.035H134.585V110.035Z" fill="black"/>
<path d="M134.585 108.88C134.585 108.561 134.843 108.303 135.162 108.303H150.18C150.499 108.303 150.758 108.561 150.758 108.88V108.88H134.585V108.88Z" fill="black"/>
<rect x="104.934" y="110.325" width="16.1733" height="0.577617" fill="black"/>
<rect x="104.934" y="111.479" width="16.1733" height="0.577617" fill="black"/>
<rect x="104.934" y="112.635" width="16.1733" height="0.577617" fill="black"/>
<rect x="104.934" y="113.79" width="16.1733" height="0.577617" fill="black"/>
<rect x="104.934" y="114.945" width="16.1733" height="0.577617" fill="black"/>
<rect x="104.934" y="116.101" width="16.1733" height="0.577617" fill="black"/>
<rect x="104.934" y="117.256" width="16.1733" height="0.577617" fill="black"/>
<rect x="104.934" y="118.411" width="16.1733" height="0.577617" fill="black"/>
<rect x="104.934" y="119.566" width="16.1733" height="0.577617" fill="black"/>
<rect x="104.934" y="120.722" width="16.1733" height="0.577617" fill="black"/>
<rect x="104.934" y="121.877" width="16.1733" height="0.577617" fill="black"/>
<rect x="104.934" y="123.032" width="16.1733" height="0.577617" fill="black"/>
<rect x="104.934" y="124.188" width="16.1733" height="0.577617" fill="black"/>
<rect x="104.934" y="125.343" width="16.1733" height="0.577617" fill="black"/>
<path d="M104.934 109.747C104.934 109.428 105.192 109.169 105.511 109.169H120.529C120.848 109.169 121.107 109.428 121.107 109.747V109.747H104.934V109.747Z" fill="black"/>
<path d="M104.934 108.592C104.934 108.273 105.192 108.014 105.511 108.014H120.529C120.848 108.014 121.107 108.273 121.107 108.592V108.592H104.934V108.592Z" fill="black"/>
<mask id="path-89-inside-8" fill="white">
<path fill-rule="evenodd" clip-rule="evenodd" d="M89.1455 0C90.8037 0 92.217 1.04802 92.7593 2.51779C94.7265 2.69021 96.2695 4.34177 96.2695 6.35371C96.2695 6.55074 96.2547 6.74431 96.2262 6.93338C97.3805 7.63498 98.1516 8.90445 98.1516 10.354C98.1516 12.5631 96.3607 14.354 94.1516 14.354C94.0183 14.354 93.8865 14.3475 93.7565 14.3347C93.6134 16.3311 91.9485 17.9062 89.9157 17.9062C88.9139 17.9062 88.0014 17.5236 87.3165 16.8966C86.6315 17.5236 85.719 17.9062 84.7172 17.9062C82.9975 17.9062 81.5411 16.7789 81.0466 15.2231C79.4907 14.7286 78.3633 13.2722 78.3633 11.5524C78.3633 10.7402 78.6148 9.98665 79.0442 9.36547C78.1599 8.6599 77.5932 7.57298 77.5932 6.35371C77.5932 4.22698 79.3173 2.50293 81.444 2.50293C82.1454 2.50293 82.803 2.69045 83.3694 3.01809C83.9358 2.69045 84.5934 2.50293 85.2948 2.50293C85.3753 2.50293 85.4552 2.5054 85.5345 2.51027C86.0788 1.04444 87.4902 0 89.1455 0Z"/>
</mask>
<path fill-rule="evenodd" clip-rule="evenodd" d="M89.1455 0C90.8037 0 92.217 1.04802 92.7593 2.51779C94.7265 2.69021 96.2695 4.34177 96.2695 6.35371C96.2695 6.55074 96.2547 6.74431 96.2262 6.93338C97.3805 7.63498 98.1516 8.90445 98.1516 10.354C98.1516 12.5631 96.3607 14.354 94.1516 14.354C94.0183 14.354 93.8865 14.3475 93.7565 14.3347C93.6134 16.3311 91.9485 17.9062 89.9157 17.9062C88.9139 17.9062 88.0014 17.5236 87.3165 16.8966C86.6315 17.5236 85.719 17.9062 84.7172 17.9062C82.9975 17.9062 81.5411 16.7789 81.0466 15.2231C79.4907 14.7286 78.3633 13.2722 78.3633 11.5524C78.3633 10.7402 78.6148 9.98665 79.0442 9.36547C78.1599 8.6599 77.5932 7.57298 77.5932 6.35371C77.5932 4.22698 79.3173 2.50293 81.444 2.50293C82.1454 2.50293 82.803 2.69045 83.3694 3.01809C83.9358 2.69045 84.5934 2.50293 85.2948 2.50293C85.3753 2.50293 85.4552 2.5054 85.5345 2.51027C86.0788 1.04444 87.4902 0 89.1455 0Z" fill="black"/>
<path d="M92.7593 2.51779L91.8212 2.86396L92.0406 3.45863L92.672 3.51397L92.7593 2.51779ZM96.2262 6.93338L95.2374 6.7841L95.138 7.44222L95.7068 7.78792L96.2262 6.93338ZM93.7565 14.3347L93.8541 13.3395L92.8325 13.2394L92.7591 14.2632L93.7565 14.3347ZM87.3165 16.8966L87.9916 16.1589L87.3165 15.5409L86.6413 16.1589L87.3165 16.8966ZM81.0466 15.2231L81.9996 14.9201L81.8428 14.4268L81.3495 14.27L81.0466 15.2231ZM79.0442 9.36547L79.8668 9.93408L80.3977 9.16607L79.6679 8.58379L79.0442 9.36547ZM83.3694 3.01809L82.8686 3.8837L83.3694 4.17335L83.8701 3.8837L83.3694 3.01809ZM85.5345 2.51027L85.4732 3.50839L86.2137 3.55387L86.4719 2.85841L85.5345 2.51027ZM93.6975 2.17162C93.0149 0.321671 91.2358 -1 89.1455 -1V1C90.3715 1 91.4191 1.77436 91.8212 2.86396L93.6975 2.17162ZM97.2695 6.35371C97.2695 3.81876 95.3257 1.73889 92.8467 1.52161L92.672 3.51397C94.1273 3.64152 95.2695 4.86478 95.2695 6.35371H97.2695ZM97.215 7.08266C97.2509 6.84435 97.2695 6.60088 97.2695 6.35371H95.2695C95.2695 6.5006 95.2585 6.64428 95.2374 6.7841L97.215 7.08266ZM95.7068 7.78792C96.5751 8.31571 97.1516 9.268 97.1516 10.354H99.1516C99.1516 8.54089 98.1859 6.95426 96.7455 6.07884L95.7068 7.78792ZM97.1516 10.354C97.1516 12.0109 95.8084 13.354 94.1516 13.354V15.354C96.913 15.354 99.1516 13.1154 99.1516 10.354H97.1516ZM94.1516 13.354C94.0509 13.354 93.9517 13.3491 93.8541 13.3395L93.659 15.33C93.8213 15.3459 93.9856 15.354 94.1516 15.354V13.354ZM89.9157 18.9062C92.4768 18.9062 94.5736 16.922 94.754 14.4063L92.7591 14.2632C92.6532 15.7401 91.4202 16.9062 89.9157 16.9062V18.9062ZM86.6413 17.6342C87.5034 18.4234 88.6543 18.9062 89.9157 18.9062V16.9062C89.1735 16.9062 88.4995 16.6238 87.9916 16.1589L86.6413 17.6342ZM84.7172 18.9062C85.9786 18.9062 87.1295 18.4234 87.9916 17.6342L86.6413 16.1589C86.1334 16.6238 85.4594 16.9062 84.7172 16.9062V18.9062ZM80.0936 15.526C80.7162 17.4849 82.5494 18.9062 84.7172 18.9062V16.9062C83.4456 16.9062 82.366 16.0729 81.9996 14.9201L80.0936 15.526ZM77.3633 11.5524C77.3633 13.7203 78.7847 15.5535 80.7438 16.1761L81.3495 14.27C80.1966 13.9037 79.3633 12.8241 79.3633 11.5524H77.3633ZM78.2216 8.79687C77.6804 9.57978 77.3633 10.5306 77.3633 11.5524H79.3633C79.3633 10.9498 79.5492 10.3935 79.8668 9.93408L78.2216 8.79687ZM76.5932 6.35371C76.5932 7.89008 77.3086 9.26 78.4205 10.1472L79.6679 8.58379C79.0111 8.0598 78.5932 7.25589 78.5932 6.35371H76.5932ZM81.444 1.50293C78.765 1.50293 76.5932 3.6747 76.5932 6.35371H78.5932C78.5932 4.77927 79.8695 3.50293 81.444 3.50293V1.50293ZM83.8701 2.15249C83.1556 1.73917 82.3259 1.50293 81.444 1.50293V3.50293C81.9649 3.50293 82.4504 3.64173 82.8686 3.8837L83.8701 2.15249ZM85.2948 1.50293C84.4129 1.50293 83.5831 1.73917 82.8686 2.15249L83.8701 3.8837C84.2884 3.64173 84.7738 3.50293 85.2948 3.50293V1.50293ZM85.5958 1.51215C85.4961 1.50603 85.3957 1.50293 85.2948 1.50293V3.50293C85.3548 3.50293 85.4143 3.50477 85.4732 3.50839L85.5958 1.51215ZM89.1455 -1C87.0588 -1 85.2822 0.31718 84.597 2.16213L86.4719 2.85841C86.8755 1.77171 87.9216 1 89.1455 1V-1Z" fill="white" mask="url(#path-89-inside-8)"/>
<mask id="path-91-inside-9" fill="white">
<path fill-rule="evenodd" clip-rule="evenodd" d="M124.377 10.7822C125.096 10.7822 125.743 11.0853 126.199 11.5705C126.462 11.4358 126.76 11.3599 127.076 11.3599C127.947 11.3599 128.682 11.938 128.92 12.7314C129.839 12.8773 130.541 13.6731 130.541 14.6329C130.541 15.4371 130.048 16.1261 129.348 16.4142C129.495 16.6863 129.579 16.9977 129.579 17.3287C129.579 18.3921 128.717 19.2541 127.653 19.2541C127.653 20.3174 126.791 21.1794 125.728 21.1794C125.305 21.1794 124.915 21.0432 124.597 20.8124C124.296 21.4826 123.622 21.9494 122.84 21.9494C122.661 21.9494 122.488 21.925 122.324 21.8794C122.043 22.5966 121.346 23.1047 120.529 23.1047C119.735 23.1047 119.052 22.6231 118.758 21.9357C117.804 21.8217 117.064 21.0093 117.064 20.024C117.064 19.3908 117.369 18.829 117.841 18.4781C117.593 18.0897 117.449 17.6281 117.449 17.1328C117.449 16.1812 117.98 15.3538 118.763 14.9314C118.66 14.6579 118.604 14.3616 118.604 14.0522C118.604 12.6715 119.723 11.5522 121.104 11.5522C121.544 11.5522 121.958 11.666 122.317 11.8657C122.768 11.2112 123.522 10.7822 124.377 10.7822Z"/>
</mask>
<path fill-rule="evenodd" clip-rule="evenodd" d="M124.377 10.7822C125.096 10.7822 125.743 11.0853 126.199 11.5705C126.462 11.4358 126.76 11.3599 127.076 11.3599C127.947 11.3599 128.682 11.938 128.92 12.7314C129.839 12.8773 130.541 13.6731 130.541 14.6329C130.541 15.4371 130.048 16.1261 129.348 16.4142C129.495 16.6863 129.579 16.9977 129.579 17.3287C129.579 18.3921 128.717 19.2541 127.653 19.2541C127.653 20.3174 126.791 21.1794 125.728 21.1794C125.305 21.1794 124.915 21.0432 124.597 20.8124C124.296 21.4826 123.622 21.9494 122.84 21.9494C122.661 21.9494 122.488 21.925 122.324 21.8794C122.043 22.5966 121.346 23.1047 120.529 23.1047C119.735 23.1047 119.052 22.6231 118.758 21.9357C117.804 21.8217 117.064 21.0093 117.064 20.024C117.064 19.3908 117.369 18.829 117.841 18.4781C117.593 18.0897 117.449 17.6281 117.449 17.1328C117.449 16.1812 117.98 15.3538 118.763 14.9314C118.66 14.6579 118.604 14.3616 118.604 14.0522C118.604 12.6715 119.723 11.5522 121.104 11.5522C121.544 11.5522 121.958 11.666 122.317 11.8657C122.768 11.2112 123.522 10.7822 124.377 10.7822Z" fill="black"/>
<path d="M126.199 11.5705L125.471 12.2553L125.986 12.8034L126.655 12.4605L126.199 11.5705ZM128.92 12.7314L127.962 13.0186L128.143 13.6205L128.764 13.7191L128.92 12.7314ZM129.348 16.4142L128.968 15.4894L127.94 15.9123L128.469 16.8899L129.348 16.4142ZM127.653 19.2541L127.653 18.2541L126.653 18.2541L126.653 19.2541L127.653 19.2541ZM124.597 20.8124L125.185 20.0035L124.189 19.2797L123.685 20.4025L124.597 20.8124ZM122.324 21.8794L122.591 20.9159L121.721 20.6741L121.392 21.5156L122.324 21.8794ZM118.758 21.9357L119.678 21.5425L119.451 21.0113L118.877 20.9428L118.758 21.9357ZM117.841 18.4781L118.438 19.2805L119.186 18.7243L118.684 17.9392L117.841 18.4781ZM118.763 14.9314L119.238 15.8114L120.006 15.3968L119.699 14.5797L118.763 14.9314ZM122.317 11.8657L121.831 12.7397L122.625 13.1811L123.14 12.433L122.317 11.8657ZM126.928 10.8856C126.291 10.2077 125.383 9.78223 124.377 9.78223V11.7822C124.808 11.7822 125.196 11.9628 125.471 12.2553L126.928 10.8856ZM127.076 10.3599C126.598 10.3599 126.144 10.4752 125.743 10.6804L126.655 12.4605C126.78 12.3965 126.922 12.3599 127.076 12.3599V10.3599ZM129.878 12.4442C129.517 11.2395 128.4 10.3599 127.076 10.3599V12.3599C127.493 12.3599 127.848 12.6366 127.962 13.0186L129.878 12.4442ZM128.764 13.7191C129.204 13.789 129.541 14.1725 129.541 14.6329H131.541C131.541 13.1736 130.474 11.9655 129.077 11.7438L128.764 13.7191ZM129.541 14.6329C129.541 15.0179 129.306 15.3502 128.968 15.4894L129.729 17.339C130.791 16.9021 131.541 15.8563 131.541 14.6329H129.541ZM130.579 17.3287C130.579 16.8276 130.452 16.3531 130.228 15.9386L128.469 16.8899C128.539 17.0195 128.579 17.1679 128.579 17.3287H130.579ZM127.653 20.2541C129.269 20.2541 130.579 18.9443 130.579 17.3287H128.579C128.579 17.8398 128.164 18.2541 127.653 18.2541L127.653 20.2541ZM125.728 22.1794C127.344 22.1794 128.653 20.8697 128.653 19.2542L126.653 19.2541C126.653 19.7651 126.239 20.1794 125.728 20.1794V22.1794ZM124.009 21.6212C124.492 21.9721 125.087 22.1794 125.728 22.1794V20.1794C125.524 20.1794 125.337 20.1143 125.185 20.0035L124.009 21.6212ZM122.84 22.9494C124.03 22.9494 125.053 22.2385 125.509 21.2222L123.685 20.4025C123.539 20.7268 123.214 20.9494 122.84 20.9494V22.9494ZM122.056 22.8429C122.307 22.9125 122.57 22.9494 122.84 22.9494V20.9494C122.752 20.9494 122.669 20.9375 122.591 20.9159L122.056 22.8429ZM120.529 24.1047C121.771 24.1047 122.83 23.3311 123.255 22.2431L121.392 21.5156C121.257 21.8621 120.92 22.1047 120.529 22.1047V24.1047ZM117.839 22.3289C118.285 23.3712 119.32 24.1047 120.529 24.1047V22.1047C120.149 22.1047 119.82 21.8749 119.678 21.5425L117.839 22.3289ZM116.064 20.024C116.064 21.5217 117.188 22.7553 118.64 22.9287L118.877 20.9428C118.419 20.8881 118.064 20.4968 118.064 20.024H116.064ZM117.244 17.6757C116.53 18.2071 116.064 19.0613 116.064 20.024H118.064C118.064 19.7204 118.209 19.4508 118.438 19.2805L117.244 17.6757ZM116.449 17.1328C116.449 17.8247 116.651 18.4724 116.999 19.0169L118.684 17.9392C118.535 17.7069 118.449 17.4315 118.449 17.1328H116.449ZM118.288 14.0514C117.195 14.6414 116.449 15.7992 116.449 17.1328H118.449C118.449 16.5632 118.766 16.0662 119.238 15.8114L118.288 14.0514ZM117.604 14.0522C117.604 14.4836 117.682 14.8989 117.827 15.2831L119.699 14.5797C119.638 14.4169 119.604 14.2397 119.604 14.0522H117.604ZM121.104 10.5522C119.171 10.5522 117.604 12.1192 117.604 14.0522H119.604C119.604 13.2238 120.276 12.5522 121.104 12.5522V10.5522ZM122.803 10.9917C122.299 10.7115 121.719 10.5522 121.104 10.5522V12.5522C121.37 12.5522 121.617 12.6205 121.831 12.7397L122.803 10.9917ZM124.377 9.78223C123.18 9.78223 122.123 10.3846 121.493 11.2984L123.14 12.433C123.413 12.0378 123.865 11.7822 124.377 11.7822V9.78223Z" fill="white" mask="url(#path-91-inside-9)"/>
<mask id="path-93-inside-10" fill="white">
<path fill-rule="evenodd" clip-rule="evenodd" d="M147.289 20.6016C148.008 20.6016 148.655 20.9046 149.111 21.3898C149.374 21.2552 149.672 21.1792 149.988 21.1792C150.859 21.1792 151.595 21.7576 151.833 22.5513C152.751 22.6972 153.454 23.4929 153.454 24.4527C153.454 25.2568 152.961 25.9458 152.261 26.234C152.407 26.5059 152.491 26.8172 152.491 27.148C152.491 28.2114 151.629 29.0734 150.566 29.0734H150.566C150.565 30.1368 149.703 30.9987 148.64 30.9987C148.218 30.9987 147.827 30.8626 147.509 30.6319C147.208 31.3023 146.535 31.7692 145.752 31.7692C145.573 31.7692 145.4 31.7449 145.236 31.6992C144.956 32.4164 144.258 32.9245 143.442 32.9245C142.647 32.9245 141.964 32.4429 141.67 31.7555C140.716 31.6415 139.976 30.8291 139.976 29.8438C139.976 29.2107 140.282 28.6489 140.753 28.2979C140.505 27.9095 140.361 27.4479 140.361 26.9526C140.361 26.001 140.893 25.1736 141.675 24.7512C141.572 24.4777 141.516 24.1815 141.516 23.8721C141.516 22.4914 142.635 21.3721 144.016 21.3721C144.456 21.3721 144.87 21.4858 145.229 21.6854C145.68 21.0307 146.434 20.6016 147.289 20.6016Z"/>
</mask>
<path fill-rule="evenodd" clip-rule="evenodd" d="M147.289 20.6016C148.008 20.6016 148.655 20.9046 149.111 21.3898C149.374 21.2552 149.672 21.1792 149.988 21.1792C150.859 21.1792 151.595 21.7576 151.833 22.5513C152.751 22.6972 153.454 23.4929 153.454 24.4527C153.454 25.2568 152.961 25.9458 152.261 26.234C152.407 26.5059 152.491 26.8172 152.491 27.148C152.491 28.2114 151.629 29.0734 150.566 29.0734H150.566C150.565 30.1368 149.703 30.9987 148.64 30.9987C148.218 30.9987 147.827 30.8626 147.509 30.6319C147.208 31.3023 146.535 31.7692 145.752 31.7692C145.573 31.7692 145.4 31.7449 145.236 31.6992C144.956 32.4164 144.258 32.9245 143.442 32.9245C142.647 32.9245 141.964 32.4429 141.67 31.7555C140.716 31.6415 139.976 30.8291 139.976 29.8438C139.976 29.2107 140.282 28.6489 140.753 28.2979C140.505 27.9095 140.361 27.4479 140.361 26.9526C140.361 26.001 140.893 25.1736 141.675 24.7512C141.572 24.4777 141.516 24.1815 141.516 23.8721C141.516 22.4914 142.635 21.3721 144.016 21.3721C144.456 21.3721 144.87 21.4858 145.229 21.6854C145.68 21.0307 146.434 20.6016 147.289 20.6016Z" fill="black"/>
<path d="M149.111 21.3898L148.383 22.0746L148.898 22.6227L149.567 22.2799L149.111 21.3898ZM151.833 22.5513L150.875 22.8382L151.055 23.4403L151.676 23.5389L151.833 22.5513ZM152.261 26.234L151.88 25.3092L150.853 25.732L151.381 26.7094L152.261 26.234ZM150.566 29.0734V28.0734H149.566L149.566 29.0734L150.566 29.0734ZM147.509 30.6319L148.097 29.8229L147.101 29.0992L146.597 30.2222L147.509 30.6319ZM145.236 31.6992L145.503 30.7357L144.633 30.494L144.304 31.3355L145.236 31.6992ZM141.67 31.7555L142.59 31.3623L142.363 30.8311L141.789 30.7626L141.67 31.7555ZM140.753 28.2979L141.35 29.1003L142.098 28.5442L141.596 27.7591L140.753 28.2979ZM141.675 24.7512L142.15 25.6312L142.918 25.2166L142.611 24.3995L141.675 24.7512ZM145.229 21.6854L144.743 22.5595L145.537 23.0008L146.052 22.2525L145.229 21.6854ZM149.84 20.705C149.203 20.027 148.295 19.6016 147.289 19.6016V21.6016C147.72 21.6016 148.108 21.7821 148.383 22.0746L149.84 20.705ZM149.988 20.1792C149.51 20.1792 149.056 20.2945 148.656 20.4997L149.567 22.2799C149.692 22.2158 149.834 22.1792 149.988 22.1792V20.1792ZM152.791 22.2643C152.43 21.0592 151.313 20.1792 149.988 20.1792V22.1792C150.405 22.1792 150.76 22.456 150.875 22.8382L152.791 22.2643ZM151.676 23.5389C152.116 23.6089 152.454 23.9924 152.454 24.4527H154.454C154.454 22.9935 153.386 21.7854 151.989 21.5636L151.676 23.5389ZM152.454 24.4527C152.454 24.8376 152.218 25.17 151.88 25.3092L152.641 27.1587C153.703 26.7217 154.454 25.676 154.454 24.4527H152.454ZM153.491 27.148C153.491 26.6472 153.364 26.1729 153.14 25.7585L151.381 26.7094C151.451 26.8389 151.491 26.9873 151.491 27.148H153.491ZM150.566 30.0734C152.181 30.0734 153.491 28.7637 153.491 27.148H151.491C151.491 27.6591 151.077 28.0734 150.566 28.0734V30.0734ZM150.566 30.0734H150.566V28.0734H150.566V30.0734ZM148.64 31.9987C150.256 31.9987 151.565 30.6891 151.566 29.0735L149.566 29.0734C149.565 29.5844 149.151 29.9987 148.64 29.9987V31.9987ZM146.921 31.4408C147.404 31.7916 147.999 31.9987 148.64 31.9987V29.9987C148.436 29.9987 148.25 29.9337 148.097 29.8229L146.921 31.4408ZM145.752 32.7692C146.943 32.7692 147.965 32.0581 148.422 31.0416L146.597 30.2222C146.451 30.5466 146.127 30.7692 145.752 30.7692V32.7692ZM144.968 32.6628C145.219 32.7324 145.482 32.7692 145.752 32.7692V30.7692C145.664 30.7692 145.581 30.7573 145.503 30.7357L144.968 32.6628ZM143.442 33.9245C144.684 33.9245 145.742 33.151 146.167 32.063L144.304 31.3355C144.169 31.6819 143.832 31.9245 143.442 31.9245V33.9245ZM140.751 32.1487C141.197 33.191 142.232 33.9245 143.442 33.9245V31.9245C143.061 31.9245 142.732 31.6947 142.59 31.3623L140.751 32.1487ZM138.976 29.8438C138.976 31.3415 140.1 32.5751 141.552 32.7485L141.789 30.7626C141.331 30.7079 140.976 30.3167 140.976 29.8438H138.976ZM140.157 27.4955C139.442 28.027 138.976 28.8811 138.976 29.8438H140.976C140.976 29.5402 141.121 29.2707 141.35 29.1003L140.157 27.4955ZM139.361 26.9526C139.361 27.6445 139.563 28.2923 139.911 28.8368L141.596 27.7591C141.447 27.5268 141.361 27.2513 141.361 26.9526H139.361ZM141.2 23.8712C140.107 24.4612 139.361 25.619 139.361 26.9526H141.361C141.361 26.383 141.678 25.886 142.15 25.6312L141.2 23.8712ZM140.516 23.8721C140.516 24.3034 140.595 24.7187 140.739 25.1029L142.611 24.3995C142.55 24.2367 142.516 24.0595 142.516 23.8721H140.516ZM144.016 20.3721C142.083 20.3721 140.516 21.9391 140.516 23.8721H142.516C142.516 23.0436 143.188 22.3721 144.016 22.3721V20.3721ZM145.715 20.8113C145.211 20.5312 144.631 20.3721 144.016 20.3721V22.3721C144.282 22.3721 144.529 22.4403 144.743 22.5595L145.715 20.8113ZM147.289 19.6016C146.092 19.6016 145.035 20.2042 144.405 21.1182L146.052 22.2525C146.325 21.8573 146.777 21.6016 147.289 21.6016V19.6016Z" fill="white" mask="url(#path-93-inside-10)"/>
<rect x="8.08661" y="97.8101" width="11.5523" height="0.68764" rx="0.34382" fill="white"/>
<rect x="8.08661" y="99.8726" width="11.5523" height="0.68764" rx="0.34382" fill="white"/>
<rect x="8.08661" y="101.936" width="11.5523" height="0.68764" rx="0.34382" fill="white"/>
<rect x="21.5643" y="97.8101" width="11.5523" height="0.68764" rx="0.34382" fill="white"/>
<rect x="21.5643" y="99.8726" width="11.5523" height="0.68764" rx="0.34382" fill="white"/>
<rect x="21.5643" y="101.936" width="11.5523" height="0.68764" rx="0.34382" fill="white"/>
<rect x="35.0421" y="97.8101" width="11.5523" height="0.68764" rx="0.34382" fill="white"/>
<rect x="35.0421" y="99.8726" width="11.5523" height="0.68764" rx="0.34382" fill="white"/>
<rect x="35.0421" y="101.936" width="11.5523" height="0.68764" rx="0.34382" fill="white"/>
<rect x="48.5198" y="97.8101" width="11.5523" height="0.68764" rx="0.34382" fill="white"/>
<rect x="48.5198" y="99.8726" width="11.5523" height="0.68764" rx="0.34382" fill="white"/>
<rect x="48.5198" y="101.936" width="11.5523" height="0.68764" rx="0.34382" fill="white"/>
</svg>
