<svg width="179" height="129" viewBox="0 0 179 129" fill="none" xmlns="http://www.w3.org/2000/svg">
<path d="M46.0292 83.5H132.971C134.373 83.5 135.5 84.6228 135.5 85.9966V126.003C135.5 127.377 134.373 128.5 132.971 128.5H46.0292C44.6272 128.5 43.5 127.377 43.5 126.003V85.9966C43.5 84.6228 44.6272 83.5 46.0292 83.5Z" fill="black" stroke="white"/>
<path d="M127 95C129.209 95 131 93.2091 131 91C131 88.7909 129.209 87 127 87C124.791 87 123 88.7909 123 91C123 93.2091 124.791 95 127 95Z" fill="#6FCCFF"/>
<path d="M97.0425 63.5477C96.1991 61.3355 96.091 58.8959 96.7338 56.5786C97.3765 54.2613 98.7371 52.1853 100.621 50.648C102.504 49.1106 104.814 48.191 107.218 48.0209C109.623 47.8508 112 48.439 114.007 49.701L112.12 52.5798C110.715 51.6964 109.052 51.2847 107.368 51.4038C105.685 51.5229 104.068 52.1666 102.75 53.2427C101.431 54.3188 100.479 55.7721 100.029 57.3942C99.579 59.0163 99.6547 60.724 100.245 62.2725L97.0425 63.5477Z" fill="#6FCCFF"/>
<path d="M104.244 64.8322C103.714 63.473 103.628 61.981 103.998 60.57C104.368 59.1589 105.176 57.9014 106.305 56.9775C107.434 56.0536 108.826 55.5108 110.283 55.4269C111.739 55.3431 113.185 55.7224 114.412 56.5106L113.292 58.2544C112.433 57.7027 111.421 57.4372 110.402 57.4959C109.382 57.5546 108.408 57.9345 107.617 58.5812C106.827 59.228 106.262 60.1083 106.003 61.096C105.743 62.0837 105.804 63.1281 106.174 64.0795L104.244 64.8322Z" fill="#6FCCFF"/>
<path d="M110.074 67.682C109.721 66.7759 109.664 65.7812 109.911 64.8405C110.157 63.8999 110.696 63.0615 111.448 62.4456C112.201 61.8296 113.129 61.4678 114.1 61.4119C115.071 61.356 116.035 61.6089 116.853 62.1343L116.107 63.2969C115.534 62.929 114.859 62.752 114.18 62.7912C113.5 62.8303 112.85 63.0836 112.323 63.5147C111.797 63.9459 111.42 64.5328 111.247 65.1912C111.074 65.8497 111.114 66.546 111.362 67.1803L110.074 67.682Z" fill="#6FCCFF"/>
<path d="M102.317 110.223H102.014C101.462 110.223 101.014 110.671 101.014 111.223V123.039C101.014 123.591 101.462 124.039 102.014 124.039H102.317C102.869 124.039 103.317 123.591 103.317 123.039V111.223C103.317 110.671 102.869 110.223 102.317 110.223Z" fill="white"/>
<path d="M106.921 110.223H106.618C106.066 110.223 105.618 110.671 105.618 111.223V123.039C105.618 123.591 106.066 124.039 106.618 124.039H106.921C107.473 124.039 107.921 123.591 107.921 123.039V111.223C107.921 110.671 107.473 110.223 106.921 110.223Z" fill="white"/>
<path d="M111.527 110.223H111.224C110.672 110.223 110.224 110.671 110.224 111.223V123.039C110.224 123.591 110.672 124.039 111.224 124.039H111.527C112.079 124.039 112.527 123.591 112.527 123.039V111.223C112.527 110.671 112.079 110.223 111.527 110.223Z" fill="white"/>
<path d="M116.132 110.223H115.829C115.277 110.223 114.829 110.671 114.829 111.223V123.039C114.829 123.591 115.277 124.039 115.829 124.039H116.132C116.684 124.039 117.132 123.591 117.132 123.039V111.223C117.132 110.671 116.684 110.223 116.132 110.223Z" fill="white"/>
<path d="M120.738 110.223H120.435C119.883 110.223 119.435 110.671 119.435 111.223V123.039C119.435 123.591 119.883 124.039 120.435 124.039H120.738C121.29 124.039 121.738 123.591 121.738 123.039V111.223C121.738 110.671 121.29 110.223 120.738 110.223Z" fill="white"/>
<path d="M125.342 110.223H125.039C124.487 110.223 124.039 110.671 124.039 111.223V123.039C124.039 123.591 124.487 124.039 125.039 124.039H125.342C125.894 124.039 126.342 123.591 126.342 123.039V111.223C126.342 110.671 125.894 110.223 125.342 110.223Z" fill="white"/>
<path d="M129.948 110.223H129.645C129.093 110.223 128.645 110.671 128.645 111.223V123.039C128.645 123.591 129.093 124.039 129.645 124.039H129.948C130.5 124.039 130.948 123.591 130.948 123.039V111.223C130.948 110.671 130.5 110.223 129.948 110.223Z" fill="white"/>
<path d="M89.4999 26.0262C96.4107 26.0262 102.013 20.4239 102.013 13.5131C102.013 6.60231 96.4107 1 89.4999 1C82.5891 1 76.9868 6.60231 76.9868 13.5131C76.9868 20.4239 82.5891 26.0262 89.4999 26.0262Z" stroke="#6FCCFF" stroke-width="2"/>
<path d="M89.5006 20.4212C93.3158 20.4212 96.4085 17.3284 96.4085 13.5133C96.4085 9.69823 93.3158 6.60547 89.5006 6.60547C85.6855 6.60547 82.5928 9.69823 82.5928 13.5133C82.5928 17.3284 85.6855 20.4212 89.5006 20.4212Z" fill="white"/>
<path d="M43.4473 44.4471C36.5366 44.4471 30.9342 38.8448 30.9342 31.934C30.9342 25.0232 36.5366 19.4209 43.4473 19.4209C50.3581 19.4209 55.9604 25.0232 55.9604 31.934C55.9604 38.8448 50.3581 44.4471 43.4473 44.4471Z" stroke="#6FCCFF" stroke-width="2"/>
<path d="M13.5133 83.5916C6.60247 83.5916 1.00017 77.9893 1.00017 71.0785C1.00017 64.1677 6.60247 58.5654 13.5133 58.5654C20.4241 58.5654 26.0264 64.1677 26.0264 71.0785C26.0264 77.9893 20.4241 83.5916 13.5133 83.5916Z" stroke="#6FCCFF" stroke-width="2"/>
<path d="M43.4471 38.8421C39.632 38.8421 36.5392 35.7493 36.5392 31.9342C36.5392 28.1191 39.632 25.0264 43.4471 25.0264C47.2622 25.0264 50.355 28.1191 50.355 31.9342C50.355 35.7493 47.2622 38.8421 43.4471 38.8421Z" fill="white"/>
<path d="M13.514 77.9857C9.69889 77.9857 6.60614 74.8929 6.60614 71.0778C6.60614 67.2627 9.69889 64.1699 13.514 64.1699C17.3291 64.1699 20.4219 67.2627 20.4219 71.0778C20.4219 74.8929 17.3291 77.9857 13.514 77.9857Z" fill="white"/>
<path d="M135.552 44.4471C142.463 44.4471 148.065 38.8448 148.065 31.934C148.065 25.0232 142.463 19.4209 135.552 19.4209C128.641 19.4209 123.039 25.0232 123.039 31.934C123.039 38.8448 128.641 44.4471 135.552 44.4471Z" stroke="#6FCCFF" stroke-width="2"/>
<path d="M165.487 83.5916C172.398 83.5916 178 77.9893 178 71.0785C178 64.1677 172.398 58.5654 165.487 58.5654C158.576 58.5654 152.974 64.1677 152.974 71.0785C152.974 77.9893 158.576 83.5916 165.487 83.5916Z" stroke="#6FCCFF" stroke-width="2"/>
<path d="M135.553 38.8421C139.368 38.8421 142.461 35.7493 142.461 31.9342C142.461 28.1191 139.368 25.0264 135.553 25.0264C131.738 25.0264 128.645 28.1191 128.645 31.9342C128.645 35.7493 131.738 38.8421 135.553 38.8421Z" fill="white"/>
<path d="M165.487 77.9857C169.302 77.9857 172.395 74.8929 172.395 71.0778C172.395 67.2627 169.302 64.1699 165.487 64.1699C161.672 64.1699 158.579 67.2627 158.579 71.0778C158.579 74.8929 161.672 77.9857 165.487 77.9857Z" fill="white"/>
<path d="M52 93C53.1046 93 54 92.1046 54 91C54 89.8954 53.1046 89 52 89C50.8954 89 50 89.8954 50 91C50 92.1046 50.8954 93 52 93Z" fill="#6FCCFF"/>
<path d="M58 93C59.1046 93 60 92.1046 60 91C60 89.8954 59.1046 89 58 89C56.8954 89 56 89.8954 56 91C56 92.1046 56.8954 93 58 93Z" fill="#6FCCFF"/>
<path d="M64 93C65.1046 93 66 92.1046 66 91C66 89.8954 65.1046 89 64 89C62.8954 89 62 89.8954 62 91C62 92.1046 62.8954 93 64 93Z" fill="#6FCCFF"/>
<path d="M70 93C71.1046 93 72 92.1046 72 91C72 89.8954 71.1046 89 70 89C68.8954 89 68 89.8954 68 91C68 92.1046 68.8954 93 70 93Z" fill="#6FCCFF"/>
<path d="M76 93C77.1046 93 78 92.1046 78 91C78 89.8954 77.1046 89 76 89C74.8954 89 74 89.8954 74 91C74 92.1046 74.8954 93 76 93Z" fill="#6FCCFF"/>
<path d="M127.5 64V83.5H124.5V64C124.5 63.1716 125.172 62.5 126 62.5C126.828 62.5 127.5 63.1716 127.5 64Z" fill="black" stroke="white"/>
<path d="M120.5 74V83.5H117.5V74C117.5 73.1716 118.172 72.5 119 72.5C119.828 72.5 120.5 73.1716 120.5 74Z" fill="black" stroke="white"/>
</svg>
