<svg width="199" height="124" viewBox="0 0 199 124" fill="none" xmlns="http://www.w3.org/2000/svg">
<path d="M4 91.5H195C196.933 91.5 198.5 93.067 198.5 95V120C198.5 121.933 196.933 123.5 195 123.5H4C2.067 123.5 0.5 121.933 0.5 120V95C0.5 93.067 2.067 91.5 4 91.5Z" fill="black" stroke="white"/>
<path d="M4 0.5H96C98.0064 0.5 99.5 1.88439 99.5 3.44V82.56C99.5 84.1156 98.0064 85.5 96 85.5H4C1.99358 85.5 0.5 84.1156 0.5 82.56V3.44C0.5 1.88439 1.99358 0.5 4 0.5Z" fill="black" stroke="white"/>
<path d="M14.5 85.5H86.5V90.5H14.5V85.5Z" fill="white" stroke="white"/>
<path d="M13 21C15.7614 21 18 18.7614 18 16C18 13.2386 15.7614 11 13 11C10.2386 11 8 13.2386 8 16C8 18.7614 10.2386 21 13 21Z" fill="white"/>
<path d="M13 38C15.7614 38 18 35.7614 18 33C18 30.2386 15.7614 28 13 28C10.2386 28 8 30.2386 8 33C8 35.7614 10.2386 38 13 38Z" fill="white"/>
<path d="M7.5 51H5.5C5.22386 51 5 51.2239 5 51.5V53.5C5 53.7761 5.22386 54 5.5 54H7.5C7.77614 54 8 53.7761 8 53.5V51.5C8 51.2239 7.77614 51 7.5 51Z" fill="white"/>
<path d="M14.5 51H12.5C12.2239 51 12 51.2239 12 51.5V53.5C12 53.7761 12.2239 54 12.5 54H14.5C14.7761 54 15 53.7761 15 53.5V51.5C15 51.2239 14.7761 51 14.5 51Z" fill="#6FCCFF"/>
<path d="M21.5 51H19.5C19.2239 51 19 51.2239 19 51.5V53.5C19 53.7761 19.2239 54 19.5 54H21.5C21.7761 54 22 53.7761 22 53.5V51.5C22 51.2239 21.7761 51 21.5 51Z" fill="#6FCCFF"/>
<path d="M7.5 65H5.5C5.22386 65 5 65.2239 5 65.5V67.5C5 67.7761 5.22386 68 5.5 68H7.5C7.77614 68 8 67.7761 8 67.5V65.5C8 65.2239 7.77614 65 7.5 65Z" fill="#6FCCFF"/>
<path d="M14.5 65H12.5C12.2239 65 12 65.2239 12 65.5V67.5C12 67.7761 12.2239 68 12.5 68H14.5C14.7761 68 15 67.7761 15 67.5V65.5C15 65.2239 14.7761 65 14.5 65Z" fill="white"/>
<path d="M21.5 65H19.5C19.2239 65 19 65.2239 19 65.5V67.5C19 67.7761 19.2239 68 19.5 68H21.5C21.7761 68 22 67.7761 22 67.5V65.5C22 65.2239 21.7761 65 21.5 65Z" fill="#6FCCFF"/>
<path d="M7.5 58H5.5C5.22386 58 5 58.2239 5 58.5V60.5C5 60.7761 5.22386 61 5.5 61H7.5C7.77614 61 8 60.7761 8 60.5V58.5C8 58.2239 7.77614 58 7.5 58Z" fill="#6FCCFF"/>
<path d="M14.5 58H12.5C12.2239 58 12 58.2239 12 58.5V60.5C12 60.7761 12.2239 61 12.5 61H14.5C14.7761 61 15 60.7761 15 60.5V58.5C15 58.2239 14.7761 58 14.5 58Z" fill="white"/>
<path d="M21.5 58H19.5C19.2239 58 19 58.2239 19 58.5V60.5C19 60.7761 19.2239 61 19.5 61H21.5C21.7761 61 22 60.7761 22 60.5V58.5C22 58.2239 21.7761 58 21.5 58Z" fill="#6FCCFF"/>
<path d="M16.4122 11.5104L15.5522 11L12.7041 15.7983L13.564 16.3087L16.4122 11.5104Z" fill="black"/>
<path d="M16.7907 36.8044L17.4141 36.0225L13.2853 32.7307L12.6619 33.5126L16.7907 36.8044Z" fill="black"/>
<path d="M91 7H30C28.8954 7 28 7.80589 28 8.8V77.2C28 78.1941 28.8954 79 30 79H91C92.1046 79 93 78.1941 93 77.2V8.8C93 7.80589 92.1046 7 91 7Z" fill="white"/>
<path d="M64 31.3379H57V56.69H64V31.3379Z" fill="#000"/>
<path d="M48 40.4649V47.5635H73V40.4649H48Z" fill="#000"/>
<path d="M34 105H21C20.4477 105 20 105.448 20 106V108C20 108.552 20.4477 109 21 109H34C34.5523 109 35 108.552 35 108V106C35 105.448 34.5523 105 34 105Z" fill="white"/>
<path d="M57 105H44C43.4477 105 43 105.448 43 106V108C43 108.552 43.4477 109 44 109H57C57.5523 109 58 108.552 58 108V106C58 105.448 57.5523 105 57 105Z" fill="white"/>
<path d="M80 105H67C66.4477 105 66 105.448 66 106V108C66 108.552 66.4477 109 67 109H80C80.5523 109 81 108.552 81 108V106C81 105.448 80.5523 105 80 105Z" fill="white"/>
<rect x="116.5" y="30.5" width="9" height="53" rx="4.5" fill="black" stroke="white"/>
<path d="M124 35.125C124 33.3991 122.657 32 121 32C119.343 32 118 33.3991 118 35.125V78.875C118 80.6009 119.343 82 121 82C122.657 82 124 80.6009 124 78.875V35.125Z" fill="#6FCCFF"/>
<path d="M121 110C122.657 110 124 108.657 124 107C124 105.343 122.657 104 121 104C119.343 104 118 105.343 118 107C118 108.657 119.343 110 121 110Z" fill="#6FCCFF"/>
<path d="M148 110C149.657 110 151 108.657 151 107C151 105.343 149.657 104 148 104C146.343 104 145 105.343 145 107C145 108.657 146.343 110 148 110Z" fill="#6FCCFF"/>
<path d="M175 110C176.657 110 178 108.657 178 107C178 105.343 176.657 104 175 104C173.343 104 172 105.343 172 107C172 108.657 173.343 110 175 110Z" fill="#6FCCFF"/>
<path d="M120.5 28.5H121.5V30.5H120.5V28.5Z" fill="white" stroke="white"/>
<path d="M120.5 83.5H121.5V85.5H120.5V83.5Z" fill="white" stroke="white"/>
<path d="M99.5 17.5H187C187.828 17.5 188.5 18.1716 188.5 19V21C188.5 21.8284 187.828 22.5 187 22.5H99.5V17.5Z" fill="black" stroke="white"/>
<path d="M115 86.5H127C127.828 86.5 128.5 87.1716 128.5 88V91.5H113.5V88C113.5 87.1716 114.172 86.5 115 86.5Z" fill="black" stroke="white"/>
<path d="M115 27.5H127C127.828 27.5 128.5 26.8284 128.5 26V22.5H113.5V26C113.5 26.8284 114.172 27.5 115 27.5Z" fill="black" stroke="white"/>
<rect x="143.5" y="30.5" width="9" height="53" rx="4.5" fill="black" stroke="white"/>
<path d="M151 35.125C151 33.3991 149.657 32 148 32C146.343 32 145 33.3991 145 35.125V78.875C145 80.6009 146.343 82 148 82C149.657 82 151 80.6009 151 78.875V35.125Z" fill="#6FCCFF"/>
<path d="M147.5 28.5H148.5V30.5H147.5V28.5Z" fill="white" stroke="white"/>
<path d="M147.5 83.5H148.5V85.5H147.5V83.5Z" fill="white" stroke="white"/>
<path d="M142 86.5H154C154.828 86.5 155.5 87.1716 155.5 88V91.5H140.5V88C140.5 87.1716 141.172 86.5 142 86.5Z" fill="black" stroke="white"/>
<path d="M142 27.5H154C154.828 27.5 155.5 26.8284 155.5 26V22.5H140.5V26C140.5 26.8284 141.172 27.5 142 27.5Z" fill="black" stroke="white"/>
<rect x="170.5" y="30.5" width="9" height="53" rx="4.5" fill="black" stroke="white"/>
<path d="M178 35.125C178 33.3991 176.657 32 175 32C173.343 32 172 33.3991 172 35.125V78.875C172 80.6009 173.343 82 175 82C176.657 82 178 80.6009 178 78.875V35.125Z" fill="#6FCCFF"/>
<path d="M174.5 28.5H175.5V30.5H174.5V28.5Z" fill="white" stroke="white"/>
<path d="M174.5 83.5H175.5V85.5H174.5V83.5Z" fill="white" stroke="white"/>
<path d="M169 86.5H181C181.828 86.5 182.5 87.1716 182.5 88V91.5H167.5V88C167.5 87.1716 168.172 86.5 169 86.5Z" fill="black" stroke="white"/>
<path d="M169 27.5H181C181.828 27.5 182.5 26.8284 182.5 26V22.5H167.5V26C167.5 26.8284 168.172 27.5 169 27.5Z" fill="black" stroke="white"/>
<rect x="114" y="90" width="14" height="3" fill="black"/>
<rect x="141" y="90" width="14" height="3" fill="black"/>
<rect x="168" y="90" width="14" height="3" fill="black"/>
<rect x="114" y="21" width="14" height="3" fill="black"/>
<rect x="141" y="21" width="14" height="3" fill="black"/>
<rect x="168" y="21" width="14" height="3" fill="black"/>
<rect x="98" y="18" width="3" height="4" fill="black"/>
</svg>
