<svg width="161" height="168" viewBox="0 0 161 168" fill="none" xmlns="http://www.w3.org/2000/svg">
<path d="M146.539 131.391L149.573 134.644L137.377 146.021L134.343 142.769L146.539 131.391Z" fill="white"/>
<path d="M136.46 127.108L143.957 135.145L147.209 132.11L139.713 124.074L136.46 127.108Z" fill="white"/>
<path d="M13.0145 88H64.9855C65.5708 88 66 88.4554 66 88.9621V157.038C66 157.545 65.5708 158 64.9855 158H13.0145C12.4292 158 12 157.545 12 157.038V88.9621C12 88.4554 12.4292 88 13.0145 88Z" fill="black" stroke="white" stroke-width="1" />
<path d="M33 59H45V87H33V59Z" fill="black" stroke="white" stroke-width="1" />
<path d="M122.507 20.8687L124.105 32.0991L51.7295 42.4014L50.1309 31.171L122.507 20.8687Z" fill="black" stroke="white" stroke-width="1" />
<path d="M54.5983 43.2703C54.5983 51.9299 47.5783 58.9498 38.9188 58.9498C30.2592 58.9498 23.2393 51.9299 23.2393 43.2703C23.2393 34.6108 30.2592 27.5908 38.9188 27.5908C47.5783 27.5908 54.5983 34.6108 54.5983 43.2703Z" fill="black" stroke="white" stroke-width="1" />
<path d="M131.864 115.587L130.986 33.9853L145.528 34.9246L137.979 115.841L131.864 115.587Z" fill="black" stroke="white" stroke-width="1" />
<path d="M38.9192 48.8296C41.9898 48.8296 44.479 46.3404 44.479 43.2698C44.479 40.1992 41.9898 37.71 38.9192 37.71C35.8486 37.71 33.3594 40.1992 33.3594 43.2698C33.3594 46.3404 35.8486 48.8296 38.9192 48.8296Z" fill="white"/>
<path d="M147.104 35.1918C140.679 40.9975 130.764 40.4954 124.959 34.0704C119.153 27.6453 119.655 17.7303 126.08 11.9246C132.505 6.11888 142.42 6.62093 148.226 13.046C154.032 19.471 153.53 29.386 147.104 35.1918Z" fill="black" stroke="white" stroke-width="1" />
<path d="M132.467 27.2853C134.526 29.5636 138.041 29.7416 140.32 27.683C142.598 25.6243 142.776 22.1085 140.717 19.8303C138.659 17.552 135.143 17.374 132.865 19.4326C130.586 21.4913 130.408 25.0071 132.467 27.2853Z" fill="white"/>
<path d="M130.363 29.1867C133.472 32.627 138.781 32.8959 142.221 29.7871C145.662 26.6784 145.93 21.3693 142.822 17.929C139.713 14.4887 134.404 14.2198 130.964 17.3285C127.523 20.4373 127.254 25.7463 130.363 29.1867Z" stroke="white"/>
<path d="M117.681 132.618L115.776 128.599L130.847 121.453L132.753 125.472L117.681 132.618Z" fill="white"/>
<path d="M125.987 139.754L121.287 129.839L117.268 131.744L121.968 141.659L125.987 139.754Z" fill="white"/>
<path d="M38.9191 51.6654C43.556 51.6654 47.3149 47.9066 47.3149 43.2697C47.3149 38.6329 43.556 34.874 38.9191 34.874C34.2823 34.874 30.5234 38.6329 30.5234 43.2697C30.5234 47.9066 34.2823 51.6654 38.9191 51.6654Z" stroke="white"/>
<path d="M141.129 126.956C138.663 130.622 133.692 131.595 130.026 129.129C126.36 126.663 125.387 121.692 127.853 118.026C130.319 114.36 135.29 113.387 138.956 115.853C142.622 118.319 143.595 123.29 141.129 126.956Z" fill="black" stroke="white" stroke-width="1" />
<path d="M131.053 124.539C132.187 126.435 134.643 127.053 136.539 125.919C138.435 124.785 139.053 122.329 137.919 120.433C136.785 118.537 134.329 117.919 132.433 119.053C130.537 120.187 129.919 122.643 131.053 124.539Z" fill="white"/>
<path d="M129.823 125.366C131.382 127.973 134.759 128.823 137.366 127.263C139.973 125.704 140.823 122.327 139.263 119.72C137.704 117.113 134.327 116.264 131.72 117.823C129.113 119.382 128.264 122.759 129.823 125.366Z" stroke="white" stroke-width="0.5"/>
<path d="M2.00049 157.69H75.838C76.3903 157.69 76.838 158.138 76.838 158.69V165.81C76.838 166.362 76.3903 166.81 75.838 166.81H2.00049C1.4482 166.81 1.00049 166.362 1.00049 165.81V158.69C1.00049 158.138 1.4482 157.69 2.00049 157.69Z" fill="black" stroke="white" stroke-width="1" />
<path d="M52.3745 94.4199H25.4634C24.9111 94.4199 24.4634 94.8676 24.4634 95.4199V106.764C24.4634 107.316 24.9111 107.764 25.4634 107.764H52.3745C52.9268 107.764 53.3745 107.316 53.3745 106.764V95.4199C53.3745 94.8676 52.9268 94.4199 52.3745 94.4199Z" fill="white"/>
<path d="M21.1276 98.868C21.7417 98.868 22.2395 98.3701 22.2395 97.756C22.2395 97.1419 21.7417 96.644 21.1276 96.644C20.5135 96.644 20.0156 97.1419 20.0156 97.756C20.0156 98.3701 20.5135 98.868 21.1276 98.868Z" fill="#6FCCFF"/>
<path d="M21.1276 102.204C21.7417 102.204 22.2395 101.706 22.2395 101.092C22.2395 100.478 21.7417 99.98 21.1276 99.98C20.5135 99.98 20.0156 100.478 20.0156 101.092C20.0156 101.706 20.5135 102.204 21.1276 102.204Z" fill="#6FCCFF"/>
<path d="M21.1276 105.54C21.7417 105.54 22.2395 105.042 22.2395 104.428C22.2395 103.814 21.7417 103.316 21.1276 103.316C20.5135 103.316 20.0156 103.814 20.0156 104.428C20.0156 105.042 20.5135 105.54 21.1276 105.54Z" fill="#6FCCFF"/>
<path d="M51.1507 133.34C52.3789 133.34 53.3746 132.344 53.3746 131.116C53.3746 129.888 52.3789 128.892 51.1507 128.892C49.9224 128.892 48.9268 129.888 48.9268 131.116C48.9268 132.344 49.9224 133.34 51.1507 133.34Z" fill="#6FCCFF"/>
<path d="M43.367 133.34C44.5952 133.34 45.5909 132.344 45.5909 131.116C45.5909 129.888 44.5952 128.892 43.367 128.892C42.1388 128.892 41.1431 129.888 41.1431 131.116C41.1431 132.344 42.1388 133.34 43.367 133.34Z" fill="#6FCCFF"/>
<path d="M35.5833 133.34C36.8115 133.34 37.8072 132.344 37.8072 131.116C37.8072 129.888 36.8115 128.892 35.5833 128.892C34.3551 128.892 33.3594 129.888 33.3594 131.116C33.3594 132.344 34.3551 133.34 35.5833 133.34Z" fill="#6FCCFF"/>
<path d="M51.1507 141.123C52.3789 141.123 53.3746 140.127 53.3746 138.899C53.3746 137.671 52.3789 136.675 51.1507 136.675C49.9224 136.675 48.9268 137.671 48.9268 138.899C48.9268 140.127 49.9224 141.123 51.1507 141.123Z" fill="#6FCCFF"/>
<path d="M43.367 141.123C44.5952 141.123 45.5909 140.127 45.5909 138.899C45.5909 137.671 44.5952 136.675 43.367 136.675C42.1388 136.675 41.1431 137.671 41.1431 138.899C41.1431 140.127 42.1388 141.123 43.367 141.123Z" fill="#6FCCFF"/>
<path d="M35.5833 141.123C36.8115 141.123 37.8072 140.127 37.8072 138.899C37.8072 137.671 36.8115 136.675 35.5833 136.675C34.3551 136.675 33.3594 137.671 33.3594 138.899C33.3594 140.127 34.3551 141.123 35.5833 141.123Z" fill="#6FCCFF"/>
<path d="M28.9114 96.645H26.6875V105.541H28.9114V96.645Z" fill="black"/>
<path d="M33.3592 96.645H31.1353V105.541H33.3592V96.645Z" fill="black"/>
<path d="M37.8069 96.645H35.583V105.541H37.8069V96.645Z" fill="black"/>
<path d="M42.2549 97.7562V98.8682H46.7027V97.7562H42.2549Z" fill="black"/>
<path d="M48.9268 97.7562V98.8682H51.1507V97.7562H48.9268Z" fill="black"/>
<path d="M42.2549 99.9802V102.204H51.1506V99.9802H42.2549Z" fill="black"/>
<path d="M42.2549 104.428V105.54H44.4788V104.428H42.2549Z" fill="black"/>
<path d="M45.5908 104.428V105.54H47.8148V104.428H45.5908Z" fill="black"/>
<path d="M48.9268 104.428V105.54H51.1507V104.428H48.9268Z" fill="black"/>
<rect x="13" y="156" width="52" height="3" fill="black"/>
<rect x="34" y="86" width="10" height="3" fill="black"/>
<rect x="34" y="57" width="10" height="3" fill="black"/>
<rect x="48.354" y="32.3999" width="6.71673" height="9.3553" transform="rotate(-7.94004 48.354 32.3999)" fill="black"/>
<rect x="118.462" y="22.437" width="4.87476" height="9.32872" transform="rotate(-7.92657 118.462 22.437)" fill="black"/>
<path d="M132.044 40.4082L132.064 36.2634L144.521 35.2775L143.989 40.4657L132.044 40.4082Z" fill="black"/>
<path d="M132.82 112.042L137.245 112.959L136.937 115.966L132.914 116.04L132.82 112.042Z" fill="black"/>
</svg>
