<svg width="200" height="115" viewBox="0 0 200 115" fill="none" xmlns="http://www.w3.org/2000/svg">
<path d="M3 59.5H197C198.381 59.5 199.5 60.6193 199.5 62V111.046C199.5 112.427 198.381 113.546 197 113.546H3C1.61929 113.546 0.5 112.427 0.5 111.046V62C0.5 60.6193 1.61929 59.5 3 59.5Z" fill="black" stroke="white"/>
<path d="M178.899 94.6964C182.907 94.6964 186.156 91.4474 186.156 87.4395C186.156 83.4316 182.907 80.1826 178.899 80.1826C174.891 80.1826 171.642 83.4316 171.642 87.4395C171.642 91.4474 174.891 94.6964 178.899 94.6964Z" stroke="#6FCCFF" stroke-width="2"/>
<path d="M76.2156 65H18.5C18.2239 65 18 65.2239 18 65.5V68.5C18 68.7761 18.2239 69 18.5 69H76.2156C76.4917 69 76.7156 68.7761 76.7156 68.5V65.5C76.7156 65.2239 76.4917 65 76.2156 65Z" fill="white"/>
<path d="M19.6845 97.5312H18.8496C18.5735 97.5312 18.3496 97.7551 18.3496 98.0312V108.04C18.3496 108.317 18.5735 108.54 18.8496 108.54H19.6845C19.9606 108.54 20.1845 108.317 20.1845 108.04V98.0312C20.1845 97.7551 19.9606 97.5312 19.6845 97.5312Z" fill="white"/>
<path d="M23.3524 97.5312H22.5176C22.2414 97.5312 22.0176 97.7551 22.0176 98.0312V108.04C22.0176 108.317 22.2414 108.54 22.5176 108.54H23.3524C23.6286 108.54 23.8524 108.317 23.8524 108.04V98.0312C23.8524 97.7551 23.6286 97.5312 23.3524 97.5312Z" fill="white"/>
<path d="M27.0224 97.5312H26.1875C25.9114 97.5312 25.6875 97.7551 25.6875 98.0312V108.04C25.6875 108.317 25.9114 108.54 26.1875 108.54H27.0224C27.2985 108.54 27.5224 108.317 27.5224 108.04V98.0312C27.5224 97.7551 27.2985 97.5312 27.0224 97.5312Z" fill="white"/>
<path d="M30.6928 97.5312H29.8579C29.5818 97.5312 29.3579 97.7551 29.3579 98.0312V108.04C29.3579 108.317 29.5818 108.54 29.8579 108.54H30.6928C30.9689 108.54 31.1928 108.317 31.1928 108.04V98.0312C31.1928 97.7551 30.9689 97.5312 30.6928 97.5312Z" fill="white"/>
<path d="M39.8671 97.5312H39.0322C38.7561 97.5312 38.5322 97.7551 38.5322 98.0312V108.04C38.5322 108.317 38.7561 108.54 39.0322 108.54H39.8671C40.1432 108.54 40.3671 108.317 40.3671 108.04V98.0312C40.3671 97.7551 40.1432 97.5312 39.8671 97.5312Z" fill="white"/>
<path d="M43.5365 97.5312H42.7017C42.4255 97.5312 42.2017 97.7551 42.2017 98.0312V108.04C42.2017 108.317 42.4255 108.54 42.7017 108.54H43.5365C43.8127 108.54 44.0365 108.317 44.0365 108.04V98.0312C44.0365 97.7551 43.8127 97.5312 43.5365 97.5312Z" fill="white"/>
<path d="M47.205 97.5312H46.3701C46.094 97.5312 45.8701 97.7551 45.8701 98.0312V108.04C45.8701 108.317 46.094 108.54 46.3701 108.54H47.205C47.4811 108.54 47.705 108.317 47.705 108.04V98.0312C47.705 97.7551 47.4811 97.5312 47.205 97.5312Z" fill="white"/>
<path d="M50.8759 97.5312H50.041C49.7649 97.5312 49.541 97.7551 49.541 98.0312V108.04C49.541 108.317 49.7649 108.54 50.041 108.54H50.8759C51.152 108.54 51.3759 108.317 51.3759 108.04V98.0312C51.3759 97.7551 51.152 97.5312 50.8759 97.5312Z" fill="white"/>
<path d="M60.0512 97.5312H59.2163C58.9402 97.5312 58.7163 97.7551 58.7163 98.0312V108.04C58.7163 108.317 58.9402 108.54 59.2163 108.54H60.0512C60.3273 108.54 60.5512 108.317 60.5512 108.04V98.0312C60.5512 97.7551 60.3273 97.5312 60.0512 97.5312Z" fill="white"/>
<path d="M63.7196 97.5312H62.8848C62.6086 97.5312 62.3848 97.7551 62.3848 98.0312V108.04C62.3848 108.317 62.6086 108.54 62.8848 108.54H63.7196C63.9958 108.54 64.2196 108.317 64.2196 108.04V98.0312C64.2196 97.7551 63.9958 97.5312 63.7196 97.5312Z" fill="white"/>
<path d="M67.3891 97.5312H66.5542C66.2781 97.5312 66.0542 97.7551 66.0542 98.0312V108.04C66.0542 108.317 66.2781 108.54 66.5542 108.54H67.3891C67.6652 108.54 67.8891 108.317 67.8891 108.04V98.0312C67.8891 97.7551 67.6652 97.5312 67.3891 97.5312Z" fill="white"/>
<path d="M71.06 97.5312H70.2251C69.949 97.5312 69.7251 97.7551 69.7251 98.0312V108.04C69.7251 108.317 69.949 108.54 70.2251 108.54H71.06C71.3361 108.54 71.56 108.317 71.56 108.04V98.0312C71.56 97.7551 71.3361 97.5312 71.06 97.5312Z" fill="white"/>
<path d="M80.2333 97.5312H79.3984C79.1223 97.5312 78.8984 97.7551 78.8984 98.0312V108.04C78.8984 108.317 79.1223 108.54 79.3984 108.54H80.2333C80.5094 108.54 80.7333 108.317 80.7333 108.04V98.0312C80.7333 97.7551 80.5094 97.5312 80.2333 97.5312Z" fill="white"/>
<path d="M83.9037 97.5312H83.0688C82.7927 97.5312 82.5688 97.7551 82.5688 98.0312V108.04C82.5688 108.317 82.7927 108.54 83.0688 108.54H83.9037C84.1799 108.54 84.4037 108.317 84.4037 108.04V98.0312C84.4037 97.7551 84.1799 97.5312 83.9037 97.5312Z" fill="white"/>
<path d="M87.5736 97.5312H86.7388C86.4626 97.5312 86.2388 97.7551 86.2388 98.0312V108.04C86.2388 108.317 86.4626 108.54 86.7388 108.54H87.5736C87.8498 108.54 88.0736 108.317 88.0736 108.04V98.0312C88.0736 97.7551 87.8498 97.5312 87.5736 97.5312Z" fill="white"/>
<path d="M91.2431 97.5312H90.4082C90.1321 97.5312 89.9082 97.7551 89.9082 98.0312V108.04C89.9082 108.317 90.1321 108.54 90.4082 108.54H91.2431C91.5192 108.54 91.7431 108.317 91.7431 108.04V98.0312C91.7431 97.7551 91.5192 97.5312 91.2431 97.5312Z" fill="white"/>
<path d="M100.417 97.5312H99.5825C99.3064 97.5312 99.0825 97.7551 99.0825 98.0312V108.04C99.0825 108.317 99.3064 108.54 99.5825 108.54H100.417C100.694 108.54 100.917 108.317 100.917 108.04V98.0312C100.917 97.7551 100.694 97.5312 100.417 97.5312Z" fill="white"/>
<path d="M104.087 97.5312H103.252C102.976 97.5312 102.752 97.7551 102.752 98.0312V108.04C102.752 108.317 102.976 108.54 103.252 108.54H104.087C104.363 108.54 104.587 108.317 104.587 108.04V98.0312C104.587 97.7551 104.363 97.5312 104.087 97.5312Z" fill="white"/>
<path d="M107.757 97.5312H106.922C106.646 97.5312 106.422 97.7551 106.422 98.0312V108.04C106.422 108.317 106.646 108.54 106.922 108.54H107.757C108.033 108.54 108.257 108.317 108.257 108.04V98.0312C108.257 97.7551 108.033 97.5312 107.757 97.5312Z" fill="white"/>
<path d="M111.426 97.5312H110.591C110.315 97.5312 110.091 97.7551 110.091 98.0312V108.04C110.091 108.317 110.315 108.54 110.591 108.54H111.426C111.702 108.54 111.926 108.317 111.926 108.04V98.0312C111.926 97.7551 111.702 97.5312 111.426 97.5312Z" fill="white"/>
<path d="M18 74.5C18 74.2239 18.2239 74 18.5 74H76.2156C76.4917 74 76.7156 74.2239 76.7156 74.5V77.5C76.7156 77.7761 76.4917 78 76.2156 78H18.5C18.2239 78 18 77.7761 18 77.5V74.5Z" fill="white"/>
<path d="M161.468 90.1932C162.482 90.1932 163.303 89.3717 163.303 88.3583C163.303 87.3449 162.482 86.5234 161.468 86.5234C160.455 86.5234 159.633 87.3449 159.633 88.3583C159.633 89.3717 160.455 90.1932 161.468 90.1932Z" fill="#6FCCFF"/>
<path d="M146.789 90.1932C147.802 90.1932 148.624 89.3717 148.624 88.3583C148.624 87.3449 147.802 86.5234 146.789 86.5234C145.776 86.5234 144.954 87.3449 144.954 88.3583C144.954 89.3717 145.776 90.1932 146.789 90.1932Z" fill="#6FCCFF"/>
<path d="M154.127 90.1932C155.14 90.1932 155.962 89.3717 155.962 88.3583C155.962 87.3449 155.14 86.5234 154.127 86.5234C153.113 86.5234 152.292 87.3449 152.292 88.3583C152.292 89.3717 153.113 90.1932 154.127 90.1932Z" fill="#6FCCFF"/>
<path d="M13.8349 68.6697C14.8482 68.6697 15.6697 67.8482 15.6697 66.8349C15.6697 65.8215 14.8482 65 13.8349 65C12.8215 65 12 65.8215 12 66.8349C12 67.8482 12.8215 68.6697 13.8349 68.6697Z" fill="#6FCCFF"/>
<path d="M13.8349 77.6697C14.8482 77.6697 15.6697 76.8482 15.6697 75.8349C15.6697 74.8215 14.8482 74 13.8349 74C12.8215 74 12 74.8215 12 75.8349C12 76.8482 12.8215 77.6697 13.8349 77.6697Z" fill="#6FCCFF"/>
<path d="M3 0.5H197C198.381 0.5 199.5 1.61929 199.5 3V52.0459C199.5 53.4266 198.381 54.5459 197 54.5459H3C1.61929 54.5459 0.5 53.4266 0.5 52.0459V3C0.5 1.61929 1.61929 0.5 3 0.5Z" fill="black" stroke="white"/>
<path d="M178.899 35.6974C182.907 35.6974 186.156 32.4483 186.156 28.4405C186.156 24.4326 182.907 21.1836 178.899 21.1836C174.891 21.1836 171.642 24.4326 171.642 28.4405C171.642 32.4483 174.891 35.6974 178.899 35.6974Z" stroke="#6FCCFF" stroke-width="2"/>
<path d="M76.2156 7H18.5C18.2239 7 18 7.22386 18 7.5V10.5C18 10.7761 18.2239 11 18.5 11H76.2156C76.4917 11 76.7156 10.7761 76.7156 10.5V7.5C76.7156 7.22386 76.4917 7 76.2156 7Z" fill="white"/>
<path d="M19.684 38.5312H18.8491C18.573 38.5312 18.3491 38.7551 18.3491 39.0312V49.0405C18.3491 49.3166 18.573 49.5405 18.8491 49.5405H19.684C19.9601 49.5405 20.184 49.3166 20.184 49.0405V39.0312C20.184 38.7551 19.9601 38.5312 19.684 38.5312Z" fill="white"/>
<path d="M23.3534 38.5312H22.5186C22.2424 38.5312 22.0186 38.7551 22.0186 39.0312V49.0405C22.0186 49.3166 22.2424 49.5405 22.5186 49.5405H23.3534C23.6296 49.5405 23.8534 49.3166 23.8534 49.0405V39.0312C23.8534 38.7551 23.6296 38.5312 23.3534 38.5312Z" fill="white"/>
<path d="M27.0228 38.5312H26.188C25.9118 38.5312 25.688 38.7551 25.688 39.0312V49.0405C25.688 49.3166 25.9118 49.5405 26.188 49.5405H27.0228C27.299 49.5405 27.5228 49.3166 27.5228 49.0405V39.0312C27.5228 38.7551 27.299 38.5312 27.0228 38.5312Z" fill="white"/>
<path d="M30.6933 38.5312H29.8584C29.5823 38.5312 29.3584 38.7551 29.3584 39.0312V49.0405C29.3584 49.3166 29.5823 49.5405 29.8584 49.5405H30.6933C30.9694 49.5405 31.1933 49.3166 31.1933 49.0405V39.0312C31.1933 38.7551 30.9694 38.5312 30.6933 38.5312Z" fill="white"/>
<path d="M39.8681 38.5312H39.0332C38.7571 38.5312 38.5332 38.7551 38.5332 39.0312V49.0405C38.5332 49.3166 38.7571 49.5405 39.0332 49.5405H39.8681C40.1442 49.5405 40.3681 49.3166 40.3681 49.0405V39.0312C40.3681 38.7551 40.1442 38.5312 39.8681 38.5312Z" fill="white"/>
<path d="M43.537 38.5312H42.7021C42.426 38.5312 42.2021 38.7551 42.2021 39.0312V49.0405C42.2021 49.3166 42.426 49.5405 42.7021 49.5405H43.537C43.8132 49.5405 44.037 49.3166 44.037 49.0405V39.0312C44.037 38.7551 43.8132 38.5312 43.537 38.5312Z" fill="white"/>
<path d="M47.2064 38.5312H46.3716C46.0954 38.5312 45.8716 38.7551 45.8716 39.0312V49.0405C45.8716 49.3166 46.0954 49.5405 46.3716 49.5405H47.2064C47.4826 49.5405 47.7064 49.3166 47.7064 49.0405V39.0312C47.7064 38.7551 47.4826 38.5312 47.2064 38.5312Z" fill="white"/>
<path d="M50.8769 38.5312H50.042C49.7658 38.5312 49.542 38.7551 49.542 39.0312V49.0405C49.542 49.3166 49.7658 49.5405 50.042 49.5405H50.8769C51.153 49.5405 51.3769 49.3166 51.3769 49.0405V39.0312C51.3769 38.7551 51.153 38.5312 50.8769 38.5312Z" fill="white"/>
<path d="M60.0517 38.5312H59.2168C58.9407 38.5312 58.7168 38.7551 58.7168 39.0312V49.0405C58.7168 49.3166 58.9407 49.5405 59.2168 49.5405H60.0517C60.3278 49.5405 60.5517 49.3166 60.5517 49.0405V39.0312C60.5517 38.7551 60.3278 38.5312 60.0517 38.5312Z" fill="white"/>
<path d="M63.7206 38.5312H62.8857C62.6096 38.5312 62.3857 38.7551 62.3857 39.0312V49.0405C62.3857 49.3166 62.6096 49.5405 62.8857 49.5405H63.7206C63.9967 49.5405 64.2206 49.3166 64.2206 49.0405V39.0312C64.2206 38.7551 63.9967 38.5312 63.7206 38.5312Z" fill="white"/>
<path d="M67.39 38.5312H66.5552C66.279 38.5312 66.0552 38.7551 66.0552 39.0312V49.0405C66.0552 49.3166 66.279 49.5405 66.5552 49.5405H67.39C67.6662 49.5405 67.89 49.3166 67.89 49.0405V39.0312C67.89 38.7551 67.6662 38.5312 67.39 38.5312Z" fill="white"/>
<path d="M71.0604 38.5312H70.2256C69.9494 38.5312 69.7256 38.7551 69.7256 39.0312V49.0405C69.7256 49.3166 69.9494 49.5405 70.2256 49.5405H71.0604C71.3366 49.5405 71.5604 49.3166 71.5604 49.0405V39.0312C71.5604 38.7551 71.3366 38.5312 71.0604 38.5312Z" fill="white"/>
<path d="M80.2338 38.5312H79.3989C79.1228 38.5312 78.8989 38.7551 78.8989 39.0312V49.0405C78.8989 49.3166 79.1228 49.5405 79.3989 49.5405H80.2338C80.5099 49.5405 80.7338 49.3166 80.7338 49.0405V39.0312C80.7338 38.7551 80.5099 38.5312 80.2338 38.5312Z" fill="white"/>
<path d="M83.9042 38.5312H83.0693C82.7932 38.5312 82.5693 38.7551 82.5693 39.0312V49.0405C82.5693 49.3166 82.7932 49.5405 83.0693 49.5405H83.9042C84.1803 49.5405 84.4042 49.3166 84.4042 49.0405V39.0312C84.4042 38.7551 84.1803 38.5312 83.9042 38.5312Z" fill="white"/>
<path d="M87.5736 38.5312H86.7388C86.4626 38.5312 86.2388 38.7551 86.2388 39.0312V49.0405C86.2388 49.3166 86.4626 49.5405 86.7388 49.5405H87.5736C87.8498 49.5405 88.0736 49.3166 88.0736 49.0405V39.0312C88.0736 38.7551 87.8498 38.5312 87.5736 38.5312Z" fill="white"/>
<path d="M91.244 38.5312H90.4092C90.133 38.5312 89.9092 38.7551 89.9092 39.0312V49.0405C89.9092 49.3166 90.133 49.5405 90.4092 49.5405H91.244C91.5202 49.5405 91.744 49.3166 91.744 49.0405V39.0312C91.744 38.7551 91.5202 38.5312 91.244 38.5312Z" fill="white"/>
<path d="M100.417 38.5312H99.5825C99.3064 38.5312 99.0825 38.7551 99.0825 39.0312V49.0405C99.0825 49.3166 99.3064 49.5405 99.5825 49.5405H100.417C100.694 49.5405 100.917 49.3166 100.917 49.0405V39.0312C100.917 38.7551 100.694 38.5312 100.417 38.5312Z" fill="white"/>
<path d="M104.088 38.5312H103.253C102.977 38.5312 102.753 38.7551 102.753 39.0312V49.0405C102.753 49.3166 102.977 49.5405 103.253 49.5405H104.088C104.364 49.5405 104.588 49.3166 104.588 49.0405V39.0312C104.588 38.7551 104.364 38.5312 104.088 38.5312Z" fill="white"/>
<path d="M107.757 38.5312H106.922C106.646 38.5312 106.422 38.7551 106.422 39.0312V49.0405C106.422 49.3166 106.646 49.5405 106.922 49.5405H107.757C108.033 49.5405 108.257 49.3166 108.257 49.0405V39.0312C108.257 38.7551 108.033 38.5312 107.757 38.5312Z" fill="white"/>
<path d="M111.427 38.5312H110.592C110.316 38.5312 110.092 38.7551 110.092 39.0312V49.0405C110.092 49.3166 110.316 49.5405 110.592 49.5405H111.427C111.703 49.5405 111.927 49.3166 111.927 49.0405V39.0312C111.927 38.7551 111.703 38.5312 111.427 38.5312Z" fill="white"/>
<path d="M18 16.5C18 16.2239 18.2239 16 18.5 16H76.2156C76.4917 16 76.7156 16.2239 76.7156 16.5V19.5C76.7156 19.7761 76.4917 20 76.2156 20H18.5C18.2239 20 18 19.7761 18 19.5V16.5Z" fill="white"/>
<path d="M13.8349 19.6697C14.8482 19.6697 15.6697 18.8482 15.6697 17.8349C15.6697 16.8215 14.8482 16 13.8349 16C12.8215 16 12 16.8215 12 17.8349C12 18.8482 12.8215 19.6697 13.8349 19.6697Z" fill="#6FCCFF"/>
<path d="M13.8349 10.6697C14.8482 10.6697 15.6697 9.84823 15.6697 8.83486C15.6697 7.82149 14.8482 7 13.8349 7C12.8215 7 12 7.82149 12 8.83486C12 9.84823 12.8215 10.6697 13.8349 10.6697Z" fill="#6FCCFF"/>
<path d="M161.468 31.1932C162.482 31.1932 163.303 30.3717 163.303 29.3583C163.303 28.3449 162.482 27.5234 161.468 27.5234C160.455 27.5234 159.633 28.3449 159.633 29.3583C159.633 30.3717 160.455 31.1932 161.468 31.1932Z" fill="#6FCCFF"/>
<path d="M146.789 31.1932C147.802 31.1932 148.624 30.3717 148.624 29.3583C148.624 28.3449 147.802 27.5234 146.789 27.5234C145.776 27.5234 144.954 28.3449 144.954 29.3583C144.954 30.3717 145.776 31.1932 146.789 31.1932Z" fill="#6FCCFF"/>
<path d="M154.128 31.1932C155.141 31.1932 155.963 30.3717 155.963 29.3583C155.963 28.3449 155.141 27.5234 154.128 27.5234C153.114 27.5234 152.293 28.3449 152.293 29.3583C152.293 30.3717 153.114 31.1932 154.128 31.1932Z" fill="#6FCCFF"/>
<path d="M187 54H17V60H187V54Z" fill="white"/>
</svg>
