<svg width="125" height="118" viewBox="0 0 125 118" fill="none" xmlns="http://www.w3.org/2000/svg">
<path d="M6 0.5H115.647C117.58 0.5 119.147 2.067 119.147 4V113.647C119.147 115.58 117.58 117.147 115.647 117.147H6C4.067 117.147 2.5 115.58 2.5 113.647V4C2.5 2.067 4.067 0.5 6 0.5Z" fill="black" stroke="white"/>
<path d="M11.7644 13.2349C13.3888 13.2349 14.7056 11.9181 14.7056 10.2937C14.7056 8.66935 13.3888 7.35254 11.7644 7.35254C10.1401 7.35254 8.82324 8.66935 8.82324 10.2937C8.82324 11.9181 10.1401 13.2349 11.7644 13.2349Z" fill="white"/>
<path d="M108.824 110.293C110.448 110.293 111.765 108.976 111.765 107.352C111.765 105.727 110.448 104.411 108.824 104.411C107.2 104.411 105.883 105.727 105.883 107.352C105.883 108.976 107.2 110.293 108.824 110.293Z" fill="white"/>
<path d="M11.7644 110.293C13.3888 110.293 14.7056 108.976 14.7056 107.352C14.7056 105.727 13.3888 104.411 11.7644 104.411C10.1401 104.411 8.82324 105.727 8.82324 107.352C8.82324 108.976 10.1401 110.293 11.7644 110.293Z" fill="white"/>
<path d="M108.824 13.2339C110.448 13.2339 111.765 11.9171 111.765 10.2927C111.765 8.66837 110.448 7.35156 108.824 7.35156C107.2 7.35156 105.883 8.66837 105.883 10.2927C105.883 11.9171 107.2 13.2339 108.824 13.2339Z" fill="white"/>
<path d="M42.6464 10.2927C43.4586 10.2927 44.117 9.63434 44.117 8.82215C44.117 8.00997 43.4586 7.35156 42.6464 7.35156C41.8342 7.35156 41.1758 8.00997 41.1758 8.82215C41.1758 9.63434 41.8342 10.2927 42.6464 10.2927Z" fill="white"/>
<path d="M38.2338 10.2937C39.046 10.2937 39.7044 9.63531 39.7044 8.82313C39.7044 8.01094 39.046 7.35254 38.2338 7.35254C37.4216 7.35254 36.7632 8.01094 36.7632 8.82313C36.7632 9.63531 37.4216 10.2937 38.2338 10.2937Z" fill="white"/>
<path d="M82.3514 14.7049C83.1636 14.7049 83.822 14.0464 83.822 13.2343C83.822 12.4221 83.1636 11.7637 82.3514 11.7637C81.5393 11.7637 80.8809 12.4221 80.8809 13.2343C80.8809 14.0464 81.5393 14.7049 82.3514 14.7049Z" fill="white"/>
<path d="M47.057 10.2927C47.8692 10.2927 48.5276 9.63434 48.5276 8.82215C48.5276 8.00997 47.8692 7.35156 47.057 7.35156C46.2448 7.35156 45.5864 8.00997 45.5864 8.82215C45.5864 9.63434 46.2448 10.2927 47.057 10.2927Z" fill="white"/>
<path d="M47.057 14.7049C47.8692 14.7049 48.5276 14.0464 48.5276 13.2343C48.5276 12.4221 47.8692 11.7637 47.057 11.7637C46.2448 11.7637 45.5864 12.4221 45.5864 13.2343C45.5864 14.0464 46.2448 14.7049 47.057 14.7049Z" fill="white"/>
<path d="M51.4686 10.2927C52.2808 10.2927 52.9392 9.63434 52.9392 8.82215C52.9392 8.00997 52.2808 7.35156 51.4686 7.35156C50.6565 7.35156 49.998 8.00997 49.998 8.82215C49.998 9.63434 50.6565 10.2927 51.4686 10.2927Z" fill="white"/>
<path d="M42.6464 14.7049C43.4586 14.7049 44.117 14.0464 44.117 13.2343C44.117 12.4221 43.4586 11.7637 42.6464 11.7637C41.8342 11.7637 41.1758 12.4221 41.1758 13.2343C41.1758 14.0464 41.8342 14.7049 42.6464 14.7049Z" fill="white"/>
<path d="M51.4686 14.7049C52.2808 14.7049 52.9392 14.0464 52.9392 13.2343C52.9392 12.4221 52.2808 11.7637 51.4686 11.7637C50.6565 11.7637 49.998 12.4221 49.998 13.2343C49.998 14.0464 50.6565 14.7049 51.4686 14.7049Z" fill="white"/>
<path d="M55.8803 10.2927C56.6924 10.2927 57.3508 9.63434 57.3508 8.82215C57.3508 8.00997 56.6924 7.35156 55.8803 7.35156C55.0681 7.35156 54.4097 8.00997 54.4097 8.82215C54.4097 9.63434 55.0681 10.2927 55.8803 10.2927Z" fill="white"/>
<path d="M60.2933 10.2927C61.1055 10.2927 61.7639 9.63434 61.7639 8.82215C61.7639 8.00997 61.1055 7.35156 60.2933 7.35156C59.4812 7.35156 58.8228 8.00997 58.8228 8.82215C58.8228 9.63434 59.4812 10.2927 60.2933 10.2927Z" fill="white"/>
<path d="M64.705 10.2927C65.5172 10.2927 66.1756 9.63434 66.1756 8.82215C66.1756 8.00997 65.5172 7.35156 64.705 7.35156C63.8928 7.35156 63.2344 8.00997 63.2344 8.82215C63.2344 9.63434 63.8928 10.2927 64.705 10.2927Z" fill="white"/>
<path d="M69.1166 10.2927C69.9288 10.2927 70.5872 9.63434 70.5872 8.82215C70.5872 8.00997 69.9288 7.35156 69.1166 7.35156C68.3044 7.35156 67.646 8.00997 67.646 8.82215C67.646 9.63434 68.3044 10.2927 69.1166 10.2927Z" fill="white"/>
<path d="M73.5282 10.2927C74.3404 10.2927 74.9988 9.63434 74.9988 8.82215C74.9988 8.00997 74.3404 7.35156 73.5282 7.35156C72.716 7.35156 72.0576 8.00997 72.0576 8.82215C72.0576 9.63434 72.716 10.2927 73.5282 10.2927Z" fill="white"/>
<path d="M77.9398 10.2927C78.752 10.2927 79.4104 9.63434 79.4104 8.82215C79.4104 8.00997 78.752 7.35156 77.9398 7.35156C77.1276 7.35156 76.4692 8.00997 76.4692 8.82215C76.4692 9.63434 77.1276 10.2927 77.9398 10.2927Z" fill="white"/>
<path d="M38.2338 14.7049C39.046 14.7049 39.7044 14.0464 39.7044 13.2343C39.7044 12.4221 39.046 11.7637 38.2338 11.7637C37.4216 11.7637 36.7632 12.4221 36.7632 13.2343C36.7632 14.0464 37.4216 14.7049 38.2338 14.7049Z" fill="white"/>
<path d="M55.8803 14.7049C56.6924 14.7049 57.3508 14.0464 57.3508 13.2343C57.3508 12.4221 56.6924 11.7637 55.8803 11.7637C55.0681 11.7637 54.4097 12.4221 54.4097 13.2343C54.4097 14.0464 55.0681 14.7049 55.8803 14.7049Z" fill="white"/>
<path d="M60.2933 14.7049C61.1055 14.7049 61.7639 14.0464 61.7639 13.2343C61.7639 12.4221 61.1055 11.7637 60.2933 11.7637C59.4812 11.7637 58.8228 12.4221 58.8228 13.2343C58.8228 14.0464 59.4812 14.7049 60.2933 14.7049Z" fill="white"/>
<path d="M64.705 14.7049C65.5172 14.7049 66.1756 14.0464 66.1756 13.2343C66.1756 12.4221 65.5172 11.7637 64.705 11.7637C63.8928 11.7637 63.2344 12.4221 63.2344 13.2343C63.2344 14.0464 63.8928 14.7049 64.705 14.7049Z" fill="white"/>
<path d="M69.1166 14.7049C69.9288 14.7049 70.5872 14.0464 70.5872 13.2343C70.5872 12.4221 69.9288 11.7637 69.1166 11.7637C68.3044 11.7637 67.646 12.4221 67.646 13.2343C67.646 14.0464 68.3044 14.7049 69.1166 14.7049Z" fill="white"/>
<path d="M82.3514 10.2927C83.1636 10.2927 83.822 9.63434 83.822 8.82215C83.822 8.00997 83.1636 7.35156 82.3514 7.35156C81.5393 7.35156 80.8809 8.00997 80.8809 8.82215C80.8809 9.63434 81.5393 10.2927 82.3514 10.2927Z" fill="white"/>
<path d="M73.5282 14.7049C74.3404 14.7049 74.9988 14.0464 74.9988 13.2343C74.9988 12.4221 74.3404 11.7637 73.5282 11.7637C72.716 11.7637 72.0576 12.4221 72.0576 13.2343C72.0576 14.0464 72.716 14.7049 73.5282 14.7049Z" fill="white"/>
<path d="M77.9398 14.7049C78.752 14.7049 79.4104 14.0464 79.4104 13.2343C79.4104 12.4221 78.752 11.7637 77.9398 11.7637C77.1276 11.7637 76.4692 12.4221 76.4692 13.2343C76.4692 14.0464 77.1276 14.7049 77.9398 14.7049Z" fill="white"/>
<path d="M123 26.9707H100.529C99.7009 26.9707 99.0293 27.6423 99.0293 28.4707V42.1178C99.0293 42.9462 99.7009 43.6178 100.529 43.6178H123C123.828 43.6178 124.5 42.9462 124.5 42.1178V28.4707C124.5 27.6423 123.828 26.9707 123 26.9707Z" fill="white"/>
<path d="M111.03 32.3535H105.147C104.741 32.3535 104.412 32.6827 104.412 33.0888C104.412 33.4949 104.741 33.8241 105.147 33.8241H111.03C111.436 33.8241 111.765 33.4949 111.765 33.0888C111.765 32.6827 111.436 32.3535 111.03 32.3535Z" fill="black"/>
<path d="M111.03 36.7656H105.147C104.741 36.7656 104.412 37.0948 104.412 37.5009C104.412 37.907 104.741 38.2362 105.147 38.2362H111.03C111.436 38.2362 111.765 37.907 111.765 37.5009C111.765 37.0948 111.436 36.7656 111.03 36.7656Z" fill="black"/>
<path d="M6.82759 48H1.17241C0.524907 48 0 48.4464 0 48.9971V67.0029C0 67.5536 0.524907 68 1.17241 68H6.82759C7.47509 68 8 67.5536 8 67.0029V48.9971C8 48.4464 7.47509 48 6.82759 48Z" fill="white"/>
<path d="M12.2358 36.7637H6.88281C6.33053 36.7637 5.88281 37.2114 5.88281 37.7637V76.9402C5.88281 77.4925 6.33053 77.9402 6.88281 77.9402H12.2358C12.788 77.9402 13.2358 77.4925 13.2358 76.9402V37.7637C13.2358 37.2114 12.788 36.7637 12.2358 36.7637Z" fill="white"/>
<path d="M17.6485 36.7637H11.7661V38.2343H17.6485V36.7637Z" fill="white"/>
<path d="M17.6485 49.998H11.7661V51.4686H17.6485V49.998Z" fill="white"/>
<path d="M17.6485 58.8232H11.7661V60.2938H17.6485V58.8232Z" fill="white"/>
<path d="M17.6485 72.0576H11.7661V73.5282H17.6485V72.0576Z" fill="white"/>
<path d="M17.6485 76.4697H11.7661V77.9403H17.6485V76.4697Z" fill="white"/>
<path d="M17.6485 67.6465H11.7661V69.1171H17.6485V67.6465Z" fill="white"/>
<path d="M17.6485 63.2344H11.7661V64.705H17.6485V63.2344Z" fill="white"/>
<path d="M17.6485 54.4102H11.7661V55.8807H17.6485V54.4102Z" fill="white"/>
<path d="M17.6485 45.5869H11.7661V47.0575H17.6485V45.5869Z" fill="white"/>
<path d="M17.6485 41.1758H11.7661V42.6464H17.6485V41.1758Z" fill="white"/>
<path d="M89.7056 110.295C92.9543 110.295 95.588 107.661 95.588 104.412C95.588 101.163 92.9543 98.5298 89.7056 98.5298C86.4569 98.5298 83.8232 101.163 83.8232 104.412C83.8232 107.661 86.4569 110.295 89.7056 110.295Z" fill="white"/>
<path d="M89.7056 95.588C92.9543 95.588 95.588 92.9543 95.588 89.7056C95.588 86.4569 92.9543 83.8232 89.7056 83.8232C86.4569 83.8232 83.8232 86.4569 83.8232 89.7056C83.8232 92.9543 86.4569 95.588 89.7056 95.588Z" fill="white"/>
<path d="M74.5 97.0596H25.5C25.2239 97.0596 25 97.2834 25 97.5596V102.442C25 102.718 25.2239 102.942 25.5 102.942H74.5C74.7761 102.942 75 102.718 75 102.442V97.5596C75 97.2834 74.7761 97.0596 74.5 97.0596Z" fill="white"/>
<path d="M28.9119 98.5293H26.9707C26.6946 98.5293 26.4707 98.7532 26.4707 99.0293V100.97C26.4707 101.247 26.6946 101.47 26.9707 101.47H28.9119C29.188 101.47 29.4119 101.247 29.4119 100.97V99.0293C29.4119 98.7532 29.188 98.5293 28.9119 98.5293Z" fill="black"/>
<path d="M55.3816 98.5293H53.4404C53.1643 98.5293 52.9404 98.7532 52.9404 99.0293V100.97C52.9404 101.247 53.1643 101.47 53.4404 101.47H55.3816C55.6577 101.47 55.8816 101.247 55.8816 100.97V99.0293C55.8816 98.7532 55.6577 98.5293 55.3816 98.5293Z" fill="black"/>
<path d="M59.7947 98.5293H57.8535C57.5774 98.5293 57.3535 98.7532 57.3535 99.0293V100.97C57.3535 101.247 57.5774 101.47 57.8535 101.47H59.7947C60.0708 101.47 60.2947 101.247 60.2947 100.97V99.0293C60.2947 98.7532 60.0708 98.5293 59.7947 98.5293Z" fill="black"/>
<path d="M64.2073 98.5293H62.2661C61.99 98.5293 61.7661 98.7532 61.7661 99.0293V100.97C61.7661 101.247 61.99 101.47 62.2661 101.47H64.2073C64.4834 101.47 64.7073 101.247 64.7073 100.97V99.0293C64.7073 98.7532 64.4834 98.5293 64.2073 98.5293Z" fill="black"/>
<path d="M73.0291 98.5293H71.0879C70.8117 98.5293 70.5879 98.7532 70.5879 99.0293V100.97C70.5879 101.247 70.8117 101.47 71.0879 101.47H73.0291C73.3052 101.47 73.5291 101.247 73.5291 100.97V99.0293C73.5291 98.7532 73.3052 98.5293 73.0291 98.5293Z" fill="black"/>
<path d="M68.6179 98.5293H66.6768C66.4006 98.5293 66.1768 98.7532 66.1768 99.0293V100.97C66.1768 101.247 66.4006 101.47 66.6768 101.47H68.6179C68.8941 101.47 69.1179 101.247 69.1179 100.97V99.0293C69.1179 98.7532 68.8941 98.5293 68.6179 98.5293Z" fill="black"/>
<path d="M50.9705 98.5293H49.0293C48.7532 98.5293 48.5293 98.7532 48.5293 99.0293V100.97C48.5293 101.247 48.7532 101.47 49.0293 101.47H50.9705C51.2466 101.47 51.4705 101.247 51.4705 100.97V99.0293C51.4705 98.7532 51.2466 98.5293 50.9705 98.5293Z" fill="black"/>
<path d="M46.5579 98.5293H44.6167C44.3406 98.5293 44.1167 98.7532 44.1167 99.0293V100.97C44.1167 101.247 44.3406 101.47 44.6167 101.47H46.5579C46.834 101.47 47.0579 101.247 47.0579 100.97V99.0293C47.0579 98.7532 46.834 98.5293 46.5579 98.5293Z" fill="black"/>
<path d="M42.1472 98.5293H40.2061C39.9299 98.5293 39.7061 98.7532 39.7061 99.0293V100.97C39.7061 101.247 39.9299 101.47 40.2061 101.47H42.1472C42.4234 101.47 42.6472 101.247 42.6472 100.97V99.0293C42.6472 98.7532 42.4234 98.5293 42.1472 98.5293Z" fill="black"/>
<path d="M37.7351 98.5293H35.7939C35.5178 98.5293 35.2939 98.7532 35.2939 99.0293V100.97C35.2939 101.247 35.5178 101.47 35.7939 101.47H37.7351C38.0113 101.47 38.2351 101.247 38.2351 100.97V99.0293C38.2351 98.7532 38.0113 98.5293 37.7351 98.5293Z" fill="black"/>
<path d="M33.324 98.5293H31.3828C31.1067 98.5293 30.8828 98.7532 30.8828 99.0293V100.97C30.8828 101.247 31.1067 101.47 31.3828 101.47H33.324C33.6001 101.47 33.824 101.247 33.824 100.97V99.0293C33.824 98.7532 33.6001 98.5293 33.324 98.5293Z" fill="black"/>
<path d="M74.5 104.412H25.5C25.2239 104.412 25 104.636 25 104.912V109.794C25 110.071 25.2239 110.294 25.5 110.294H74.5C74.7761 110.294 75 110.071 75 109.794V104.912C75 104.636 74.7761 104.412 74.5 104.412Z" fill="white"/>
<path d="M28.9119 105.883H26.9707C26.6946 105.883 26.4707 106.107 26.4707 106.383V108.324C26.4707 108.6 26.6946 108.824 26.9707 108.824H28.9119C29.188 108.824 29.4119 108.6 29.4119 108.324V106.383C29.4119 106.107 29.188 105.883 28.9119 105.883Z" fill="black"/>
<path d="M55.3816 105.883H53.4404C53.1643 105.883 52.9404 106.107 52.9404 106.383V108.324C52.9404 108.6 53.1643 108.824 53.4404 108.824H55.3816C55.6577 108.824 55.8816 108.6 55.8816 108.324V106.383C55.8816 106.107 55.6577 105.883 55.3816 105.883Z" fill="black"/>
<path d="M59.7947 105.883H57.8535C57.5774 105.883 57.3535 106.107 57.3535 106.383V108.324C57.3535 108.6 57.5774 108.824 57.8535 108.824H59.7947C60.0708 108.824 60.2947 108.6 60.2947 108.324V106.383C60.2947 106.107 60.0708 105.883 59.7947 105.883Z" fill="black"/>
<path d="M64.2073 105.883H62.2661C61.99 105.883 61.7661 106.107 61.7661 106.383V108.324C61.7661 108.6 61.99 108.824 62.2661 108.824H64.2073C64.4834 108.824 64.7073 108.6 64.7073 108.324V106.383C64.7073 106.107 64.4834 105.883 64.2073 105.883Z" fill="black"/>
<path d="M73.0291 105.883H71.0879C70.8117 105.883 70.5879 106.107 70.5879 106.383V108.324C70.5879 108.6 70.8117 108.824 71.0879 108.824H73.0291C73.3052 108.824 73.5291 108.6 73.5291 108.324V106.383C73.5291 106.107 73.3052 105.883 73.0291 105.883Z" fill="black"/>
<path d="M68.6179 105.883H66.6768C66.4006 105.883 66.1768 106.107 66.1768 106.383V108.324C66.1768 108.6 66.4006 108.824 66.6768 108.824H68.6179C68.8941 108.824 69.1179 108.6 69.1179 108.324V106.383C69.1179 106.107 68.8941 105.883 68.6179 105.883Z" fill="black"/>
<path d="M50.9705 105.883H49.0293C48.7532 105.883 48.5293 106.107 48.5293 106.383V108.324C48.5293 108.6 48.7532 108.824 49.0293 108.824H50.9705C51.2466 108.824 51.4705 108.6 51.4705 108.324V106.383C51.4705 106.107 51.2466 105.883 50.9705 105.883Z" fill="black"/>
<path d="M46.5579 105.883H44.6167C44.3406 105.883 44.1167 106.107 44.1167 106.383V108.324C44.1167 108.6 44.3406 108.824 44.6167 108.824H46.5579C46.834 108.824 47.0579 108.6 47.0579 108.324V106.383C47.0579 106.107 46.834 105.883 46.5579 105.883Z" fill="black"/>
<path d="M42.1472 105.883H40.2061C39.9299 105.883 39.7061 106.107 39.7061 106.383V108.324C39.7061 108.6 39.9299 108.824 40.2061 108.824H42.1472C42.4234 108.824 42.6472 108.6 42.6472 108.324V106.383C42.6472 106.107 42.4234 105.883 42.1472 105.883Z" fill="black"/>
<path d="M37.7351 105.883H35.7939C35.5178 105.883 35.2939 106.107 35.2939 106.383V108.324C35.2939 108.6 35.5178 108.824 35.7939 108.824H37.7351C38.0113 108.824 38.2351 108.6 38.2351 108.324V106.383C38.2351 106.107 38.0113 105.883 37.7351 105.883Z" fill="black"/>
<path d="M33.324 105.883H31.3828C31.1067 105.883 30.8828 106.107 30.8828 106.383V108.324C30.8828 108.6 31.1067 108.824 31.3828 108.824H33.324C33.6001 108.824 33.824 108.6 33.824 108.324V106.383C33.824 106.107 33.6001 105.883 33.324 105.883Z" fill="black"/>
<rect x="53" y="44" width="1" height="2" fill="white"/>
<rect x="55" y="44" width="1" height="2" fill="white"/>
<rect x="57" y="44" width="1" height="2" fill="white"/>
<rect x="59" y="44" width="1" height="2" fill="white"/>
<rect x="61" y="44" width="1" height="2" fill="white"/>
<rect x="63" y="44" width="1" height="2" fill="white"/>
<rect x="65" y="44" width="1" height="2" fill="white"/>
<rect x="67" y="44" width="1" height="2" fill="white"/>
<rect x="69" y="44" width="1" height="2" fill="white"/>
<rect x="71" y="44" width="1" height="2" fill="white"/>
<rect x="53" y="71" width="1" height="2" fill="white"/>
<rect x="55" y="71" width="1" height="2" fill="white"/>
<rect x="57" y="71" width="1" height="2" fill="white"/>
<rect x="59" y="71" width="1" height="2" fill="white"/>
<rect x="61" y="71" width="1" height="2" fill="white"/>
<rect x="63" y="71" width="1" height="2" fill="white"/>
<rect x="65" y="71" width="1" height="2" fill="white"/>
<rect x="67" y="71" width="1" height="2" fill="white"/>
<rect x="69" y="71" width="1" height="2" fill="white"/>
<rect x="71" y="71" width="1" height="2" fill="white"/>
<rect x="75" y="68" width="1" height="2" transform="rotate(-90 75 68)" fill="white"/>
<rect x="75" y="66" width="1" height="2" transform="rotate(-90 75 66)" fill="white"/>
<rect x="75" y="64" width="1" height="2" transform="rotate(-90 75 64)" fill="white"/>
<rect x="75" y="62" width="1" height="2" transform="rotate(-90 75 62)" fill="white"/>
<rect x="75" y="60" width="1" height="2" transform="rotate(-90 75 60)" fill="white"/>
<rect x="75" y="58" width="1" height="2" transform="rotate(-90 75 58)" fill="white"/>
<rect x="75" y="56" width="1" height="2" transform="rotate(-90 75 56)" fill="white"/>
<rect x="75" y="54" width="1" height="2" transform="rotate(-90 75 54)" fill="white"/>
<rect x="75" y="52" width="1" height="2" transform="rotate(-90 75 52)" fill="white"/>
<rect x="75" y="50" width="1" height="2" transform="rotate(-90 75 50)" fill="white"/>
<rect x="48" y="68" width="1" height="2" transform="rotate(-90 48 68)" fill="white"/>
<rect x="48" y="66" width="1" height="2" transform="rotate(-90 48 66)" fill="white"/>
<rect x="48" y="64" width="1" height="2" transform="rotate(-90 48 64)" fill="white"/>
<rect x="48" y="62" width="1" height="2" transform="rotate(-90 48 62)" fill="white"/>
<rect x="48" y="60" width="1" height="2" transform="rotate(-90 48 60)" fill="white"/>
<rect x="48" y="58" width="1" height="2" transform="rotate(-90 48 58)" fill="white"/>
<rect x="48" y="56" width="1" height="2" transform="rotate(-90 48 56)" fill="white"/>
<rect x="48" y="54" width="1" height="2" transform="rotate(-90 48 54)" fill="white"/>
<rect x="48" y="52" width="1" height="2" transform="rotate(-90 48 52)" fill="white"/>
<rect x="48" y="50" width="1" height="2" transform="rotate(-90 48 50)" fill="white"/>
<rect x="50" y="46" width="25" height="25" rx="2" fill="white"/>
<rect x="53" y="49" width="19" height="19" rx="1" fill="#6FCCFF"/>
</svg>
