<svg
   xmlns:dc="http://purl.org/dc/elements/1.1/"
   xmlns:cc="http://creativecommons.org/ns#"
   xmlns:rdf="http://www.w3.org/1999/02/22-rdf-syntax-ns#"
   xmlns:svg="http://www.w3.org/2000/svg"
   xmlns="http://www.w3.org/2000/svg"
   width="512"
   height="512"
   version="1.1"
   fill="#fff"
   >
  <g
     transform="translate(-80.75915,-520.95513)">
    <g
       transform="matrix(1.8062188,0,0,1.8062258,100.75924,484.95513)">
      <g
         transform="matrix(0.55364278,0,0,0.55364064,-27.732994,22.504561)">
        <g
           transform="matrix(0.8746356,0,0,0.8746356,14.730518,23.408954)">
          <path
             style="fill-opacity:1;fill-rule:evenodd;stroke:none"
             d="M 318.26231,-58.482636 C 293.5208,2.1769689 278.59791,41.855478 251.05148,100.7119 c 16.88942,17.90277 37.62038,38.75144 71.28738,62.29806 -36.19533,-14.89416 -60.88498,-29.84754 -79.33595,-45.3647 -35.25418,73.56327 -90.48734,178.35087 -202.573224,379.74639 88.095744,-50.8592 156.385984,-82.21444 220.029224,-94.17877 -2.73287,-11.75402 -4.28661,-24.46827 -4.18108,-37.73423 l 0.10453,-2.82223 c 1.39787,-56.4406 30.75823,-99.84343 65.53839,-96.89648 34.78018,2.94696 61.81443,51.11759 60.41658,107.55823 -0.26291,10.62034 -1.46084,20.83699 -3.55392,30.31281 62.95225,12.31458 130.51228,43.58955 217.41605,93.76067 -17.13573,-31.54807 -32.43085,-59.98635 -47.03713,-87.07094 -23.00726,-17.83216 -47.00498,-41.04079 -95.95573,-66.16556 33.64593,8.74264 57.736,18.8293 76.51372,30.10376 C 381.21419,97.766453 369.18837,61.026312 318.26231,-58.482636 z" />
        </g>
      </g>
    </g>
  </g>
</svg>